YoungSerif-Regular.ufo
<glyph name="exclam" format="1">
  <advance width="374"/>
  <unicode hex="0021"/>
  <outline>
    <contour>
      <point x="99" y="716" type="line" smooth="yes"/>
      <point x="87" y="704"/>
      <point x="80" y="691"/>
      <point x="80" y="678" type="curve" smooth="yes"/>
      <point x="80" y="626"/>
      <point x="117" y="487"/>
      <point x="128" y="350" type="curve" smooth="yes"/>
      <point x="132" y="290"/>
      <point x="132" y="281"/>
      <point x="133" y="273" type="curve" smooth="yes"/>
      <point x="133" y="265"/>
      <point x="138" y="260"/>
      <point x="146" y="260" type="curve" smooth="yes"/>
      <point x="208" y="260" type="line" smooth="yes"/>
      <point x="216" y="260"/>
      <point x="221" y="265"/>
      <point x="221" y="273" type="curve" smooth="yes"/>
      <point x="222" y="281"/>
      <point x="222" y="290"/>
      <point x="227" y="350" type="curve" smooth="yes"/>
      <point x="237" y="485"/>
      <point x="274" y="626"/>
      <point x="274" y="678" type="curve" smooth="yes"/>
      <point x="274" y="691"/>
      <point x="267" y="704"/>
      <point x="255" y="716" type="curve" smooth="yes"/>
      <point x="216" y="755" type="line" smooth="yes"/>
      <point x="203" y="768"/>
      <point x="190" y="774"/>
      <point x="177" y="774" type="curve" smooth="yes"/>
      <point x="164" y="774"/>
      <point x="151" y="768"/>
      <point x="138" y="755" type="curve" smooth="yes"/>
    </contour>
    <contour>
      <point x="99" y="116" type="line" smooth="yes"/>
      <point x="86" y="104"/>
      <point x="80" y="91"/>
      <point x="80" y="77" type="curve" smooth="yes"/>
      <point x="80" y="64"/>
      <point x="86" y="51"/>
      <point x="99" y="39" type="curve" smooth="yes"/>
      <point x="138" y="1" type="line" smooth="yes"/>
      <point x="151" y="-12"/>
      <point x="164" y="-18"/>
      <point x="177" y="-18" type="curve" smooth="yes"/>
      <point x="190" y="-18"/>
      <point x="203" y="-12"/>
      <point x="216" y="1" type="curve" smooth="yes"/>
      <point x="255" y="39" type="line" smooth="yes"/>
      <point x="268" y="51"/>
      <point x="274" y="64"/>
      <point x="274" y="77" type="curve" smooth="yes"/>
      <point x="274" y="91"/>
      <point x="268" y="104"/>
      <point x="255" y="116" type="curve" smooth="yes"/>
      <point x="216" y="155" type="line" smooth="yes"/>
      <point x="203" y="168"/>
      <point x="190" y="174"/>
      <point x="177" y="174" type="curve" smooth="yes"/>
      <point x="164" y="174"/>
      <point x="151" y="168"/>
      <point x="138" y="156" type="curve" smooth="yes"/>
    </contour>
  </outline>
</glyph>
<glyph name="quotedbl" format="1">
  <advance width="405"/>
  <unicode hex="0022"/>
  <outline>
    <contour>
      <point x="63" y="779" type="line" smooth="yes"/>
      <point x="54" y="779"/>
      <point x="49" y="775"/>
      <point x="49" y="766" type="curve" smooth="yes"/>
      <point x="49" y="764" type="line"/>
      <point x="73" y="536" type="line" smooth="yes"/>
      <point x="74" y="527"/>
      <point x="79" y="522"/>
      <point x="88" y="522" type="curve" smooth="yes"/>
      <point x="133" y="522" type="line" smooth="yes"/>
      <point x="142" y="522"/>
      <point x="148" y="527"/>
      <point x="149" y="536" type="curve" smooth="yes"/>
      <point x="172" y="764" type="line" smooth="yes"/>
      <point x="173" y="774"/>
      <point x="168" y="779"/>
      <point x="158" y="779" type="curve" smooth="yes"/>
    </contour>
    <contour>
      <point x="247" y="779" type="line" smooth="yes"/>
      <point x="237" y="779"/>
      <point x="232" y="775"/>
      <point x="232" y="766" type="curve" smooth="yes"/>
      <point x="232" y="764" type="line"/>
      <point x="256" y="536" type="line" smooth="yes"/>
      <point x="257" y="527"/>
      <point x="262" y="522"/>
      <point x="272" y="522" type="curve" smooth="yes"/>
      <point x="316" y="522" type="line" smooth="yes"/>
      <point x="326" y="522"/>
      <point x="331" y="527"/>
      <point x="332" y="536" type="curve" smooth="yes"/>
      <point x="355" y="764" type="line" smooth="yes"/>
      <point x="356" y="774"/>
      <point x="351" y="779"/>
      <point x="341" y="779" type="curve" smooth="yes"/>
    </contour>
  </outline>
</glyph>
<glyph name="percent" format="1">
  <advance width="881"/>
  <unicode hex="0025"/>
  <outline>
    <contour>
      <point x="181" y="-11" type="line" smooth="yes"/>
      <point x="189" y="-11"/>
      <point x="194" y="-8"/>
      <point x="199" y="-2" type="curve" smooth="yes"/>
      <point x="753" y="717" type="line" smooth="yes"/>
      <point x="755" y="720"/>
      <point x="756" y="723"/>
      <point x="756" y="726" type="curve" smooth="yes"/>
      <point x="756" y="732"/>
      <point x="752" y="735"/>
      <point x="744" y="735" type="curve" smooth="yes"/>
      <point x="702" y="735" type="line" smooth="yes"/>
      <point x="694" y="735"/>
      <point x="689" y="732"/>
      <point x="684" y="726" type="curve" smooth="yes"/>
      <point x="131" y="7" type="line" smooth="yes"/>
      <point x="128" y="3"/>
      <point x="127" y="0"/>
      <point x="127" y="-2" type="curve" smooth="yes"/>
      <point x="127" y="-7"/>
      <point x="132" y="-11"/>
      <point x="140" y="-11" type="curve" smooth="yes"/>
    </contour>
    <contour>
      <point x="72" y="546" type="curve" smooth="yes"/>
      <point x="72" y="521"/>
      <point x="77" y="495"/>
      <point x="88" y="470" type="curve" smooth="yes"/>
      <point x="119" y="401"/>
      <point x="185" y="360"/>
      <point x="254" y="360" type="curve" smooth="yes"/>
      <point x="278" y="360"/>
      <point x="302" y="365"/>
      <point x="325" y="375" type="curve" smooth="yes"/>
      <point x="390" y="404"/>
      <point x="429" y="469"/>
      <point x="429" y="538" type="curve" smooth="yes"/>
      <point x="429" y="563"/>
      <point x="424" y="589"/>
      <point x="413" y="614" type="curve" smooth="yes"/>
      <point x="382" y="683"/>
      <point x="315" y="724"/>
      <point x="246" y="724" type="curve" smooth="yes"/>
      <point x="223" y="724"/>
      <point x="199" y="719"/>
      <point x="176" y="709" type="curve" smooth="yes"/>
      <point x="111" y="680"/>
      <point x="72" y="615"/>
    </contour>
    <contour>
      <point x="227" y="657" type="curve" smooth="yes"/>
      <point x="266" y="657"/>
      <point x="300" y="618"/>
      <point x="320" y="573" type="curve" smooth="yes"/>
      <point x="330" y="549"/>
      <point x="337" y="523"/>
      <point x="337" y="499" type="curve" smooth="yes"/>
      <point x="337" y="470"/>
      <point x="326" y="445"/>
      <point x="299" y="433" type="curve" smooth="yes"/>
      <point x="290" y="429"/>
      <point x="282" y="427"/>
      <point x="274" y="427" type="curve" smooth="yes"/>
      <point x="235" y="427"/>
      <point x="201" y="466"/>
      <point x="181" y="511" type="curve" smooth="yes"/>
      <point x="171" y="535"/>
      <point x="164" y="561"/>
      <point x="164" y="585" type="curve" smooth="yes"/>
      <point x="164" y="614"/>
      <point x="174" y="639"/>
      <point x="202" y="651" type="curve" smooth="yes"/>
      <point x="210" y="655"/>
      <point x="219" y="657"/>
    </contour>
    <contour>
      <point x="629" y="-0" type="curve" smooth="yes"/>
      <point x="701" y="-0"/>
      <point x="770" y="45"/>
      <point x="798" y="118" type="curve" smooth="yes"/>
      <point x="807" y="140"/>
      <point x="811" y="163"/>
      <point x="811" y="185" type="curve" smooth="yes"/>
      <point x="811" y="258"/>
      <point x="768" y="325"/>
      <point x="698" y="352" type="curve" smooth="yes"/>
      <point x="678" y="360"/>
      <point x="657" y="364"/>
      <point x="636" y="364" type="curve" smooth="yes"/>
      <point x="564" y="364"/>
      <point x="495" y="318"/>
      <point x="467" y="245" type="curve" smooth="yes"/>
      <point x="458" y="223"/>
      <point x="454" y="200"/>
      <point x="454" y="178" type="curve" smooth="yes"/>
      <point x="454" y="105"/>
      <point x="497" y="38"/>
      <point x="567" y="11" type="curve" smooth="yes"/>
      <point x="587" y="3"/>
      <point x="608" y="-0"/>
    </contour>
    <contour>
      <point x="548" y="141" type="curve" smooth="yes"/>
      <point x="548" y="162"/>
      <point x="553" y="186"/>
      <point x="562" y="209" type="curve" smooth="yes"/>
      <point x="580" y="256"/>
      <point x="613" y="298"/>
      <point x="653" y="298" type="curve" smooth="yes"/>
      <point x="660" y="298"/>
      <point x="668" y="296"/>
      <point x="675" y="293" type="curve" smooth="yes"/>
      <point x="705" y="282"/>
      <point x="717" y="254"/>
      <point x="717" y="222" type="curve" smooth="yes"/>
      <point x="717" y="201"/>
      <point x="712" y="177"/>
      <point x="703" y="154" type="curve" smooth="yes"/>
      <point x="685" y="107"/>
      <point x="652" y="65"/>
      <point x="612" y="65" type="curve" smooth="yes"/>
      <point x="605" y="65"/>
      <point x="597" y="67"/>
      <point x="589" y="70" type="curve" smooth="yes"/>
      <point x="559" y="81"/>
      <point x="548" y="109"/>
    </contour>
  </outline>
</glyph>
<glyph name="ampersand" format="1">
  <advance width="813"/>
  <unicode hex="0026"/>
  <outline>
    <contour>
      <point x="500" y="500" type="line" smooth="yes"/>
      <point x="490" y="500"/>
      <point x="485" y="494"/>
      <point x="485" y="485" type="curve" smooth="yes"/>
      <point x="485" y="455" type="line" smooth="yes"/>
      <point x="485" y="445"/>
      <point x="490" y="440"/>
      <point x="500" y="440" type="curve" smooth="yes"/>
      <point x="516" y="440" type="line"/>
      <point x="549" y="438"/>
      <point x="574" y="415"/>
      <point x="574" y="381" type="curve" smooth="yes"/>
      <point x="574" y="354"/>
      <point x="555" y="292"/>
      <point x="519" y="230" type="curve"/>
      <point x="273" y="513" type="line" smooth="yes"/>
      <point x="243" y="548"/>
      <point x="227" y="586"/>
      <point x="227" y="620" type="curve" smooth="yes"/>
      <point x="227" y="668"/>
      <point x="260" y="705"/>
      <point x="333" y="705" type="curve" smooth="yes"/>
      <point x="384" y="705"/>
      <point x="398" y="675"/>
      <point x="398" y="643" type="curve" smooth="yes"/>
      <point x="398" y="621"/>
      <point x="395" y="606"/>
      <point x="377" y="584" type="curve" smooth="yes"/>
      <point x="375" y="581"/>
      <point x="374" y="577"/>
      <point x="374" y="574" type="curve" smooth="yes"/>
      <point x="374" y="568"/>
      <point x="376" y="563"/>
      <point x="382" y="563" type="curve" smooth="yes"/>
      <point x="384" y="564" type="line"/>
      <point x="489" y="588" type="line" smooth="yes"/>
      <point x="504" y="592"/>
      <point x="510" y="597"/>
      <point x="514" y="607" type="curve" smooth="yes"/>
      <point x="521" y="624"/>
      <point x="525" y="641"/>
      <point x="525" y="656" type="curve" smooth="yes"/>
      <point x="525" y="714"/>
      <point x="454" y="763"/>
      <point x="335" y="763" type="curve" smooth="yes"/>
      <point x="183" y="763"/>
      <point x="107" y="673"/>
      <point x="107" y="578" type="curve" smooth="yes"/>
      <point x="107" y="532"/>
      <point x="124" y="486"/>
      <point x="157" y="447" type="curve" smooth="yes"/>
      <point x="214" y="382" type="line"/>
      <point x="105" y="356"/>
      <point x="20" y="298"/>
      <point x="20" y="186" type="curve" smooth="yes"/>
      <point x="20" y="36"/>
      <point x="157" y="-15"/>
      <point x="279" y="-15" type="curve" smooth="yes"/>
      <point x="365" y="-15"/>
      <point x="432" y="16"/>
      <point x="487" y="68" type="curve"/>
      <point x="545" y="11"/>
      <point x="617" y="-9"/>
      <point x="704" y="-9" type="curve" smooth="yes"/>
      <point x="726" y="-9"/>
      <point x="746" y="2"/>
      <point x="765" y="5" type="curve" smooth="yes"/>
      <point x="774" y="6"/>
      <point x="779" y="10"/>
      <point x="779" y="18" type="curve" smooth="yes"/>
      <point x="778" y="21" type="line"/>
      <point x="775" y="51" type="line" smooth="yes"/>
      <point x="774" y="59"/>
      <point x="770" y="65"/>
      <point x="762" y="65" type="curve" smooth="yes"/>
      <point x="757" y="65"/>
      <point x="741" y="62"/>
      <point x="733" y="62" type="curve" smooth="yes"/>
      <point x="675" y="62"/>
      <point x="646" y="82"/>
      <point x="612" y="122" type="curve" smooth="yes"/>
      <point x="569" y="172" type="line"/>
      <point x="600" y="223"/>
      <point x="628" y="282"/>
      <point x="655" y="345" type="curve" smooth="yes"/>
      <point x="675" y="394"/>
      <point x="719" y="437"/>
      <point x="771" y="440" type="curve"/>
      <point x="778" y="440" type="line" smooth="yes"/>
      <point x="788" y="440"/>
      <point x="793" y="445"/>
      <point x="793" y="455" type="curve" smooth="yes"/>
      <point x="793" y="485" type="line" smooth="yes"/>
      <point x="793" y="494"/>
      <point x="788" y="500"/>
      <point x="778" y="500" type="curve" smooth="yes"/>
    </contour>
    <contour>
      <point x="435" y="127" type="line"/>
      <point x="396" y="94"/>
      <point x="349" y="71"/>
      <point x="295" y="71" type="curve" smooth="yes"/>
      <point x="229" y="71"/>
      <point x="164" y="105"/>
      <point x="164" y="192" type="curve" smooth="yes"/>
      <point x="164" y="261"/>
      <point x="212" y="303"/>
      <point x="263" y="326" type="curve"/>
    </contour>
  </outline>
</glyph>
<glyph name="quotesingle" format="1">
  <advance width="214"/>
  <unicode hex="0027"/>
  <outline>
    <contour>
      <point x="58" y="779" type="line" smooth="yes"/>
      <point x="49" y="779"/>
      <point x="44" y="775"/>
      <point x="44" y="766" type="curve" smooth="yes"/>
      <point x="44" y="764" type="line"/>
      <point x="67" y="536" type="line" smooth="yes"/>
      <point x="68" y="527"/>
      <point x="74" y="522"/>
      <point x="83" y="522" type="curve" smooth="yes"/>
      <point x="128" y="522" type="line" smooth="yes"/>
      <point x="137" y="522"/>
      <point x="142" y="527"/>
      <point x="143" y="536" type="curve" smooth="yes"/>
      <point x="167" y="764" type="line" smooth="yes"/>
      <point x="168" y="774"/>
      <point x="163" y="779"/>
      <point x="153" y="779" type="curve" smooth="yes"/>
    </contour>
  </outline>
</glyph>
<glyph name="parenleft" format="1">
  <advance width="479"/>
  <unicode hex="0028"/>
  <outline>
    <contour>
      <point x="363" y="-109" type="line" smooth="yes"/>
      <point x="360" y="-114"/>
      <point x="356" y="-116"/>
      <point x="351" y="-116" type="curve" smooth="yes"/>
      <point x="349" y="-116"/>
      <point x="346" y="-115"/>
      <point x="343" y="-114" type="curve" smooth="yes"/>
      <point x="183" y="-31"/>
      <point x="80" y="154"/>
      <point x="80" y="331" type="curve" smooth="yes"/>
      <point x="80" y="508"/>
      <point x="181" y="696"/>
      <point x="341" y="779" type="curve" smooth="yes"/>
      <point x="344" y="781"/>
      <point x="347" y="782"/>
      <point x="349" y="782" type="curve" smooth="yes"/>
      <point x="354" y="782"/>
      <point x="358" y="779"/>
      <point x="362" y="774" type="curve" smooth="yes"/>
      <point x="380" y="746" type="line" smooth="yes"/>
      <point x="382" y="743"/>
      <point x="383" y="740"/>
      <point x="383" y="737" type="curve" smooth="yes"/>
      <point x="383" y="733"/>
      <point x="381" y="729"/>
      <point x="377" y="725" type="curve" smooth="yes"/>
      <point x="289" y="657"/>
      <point x="207" y="481"/>
      <point x="207" y="331" type="curve" smooth="yes"/>
      <point x="207" y="181"/>
      <point x="290" y="6"/>
      <point x="377" y="-63" type="curve" smooth="yes"/>
      <point x="381" y="-66"/>
      <point x="383" y="-70"/>
      <point x="383" y="-74" type="curve" smooth="yes"/>
      <point x="383" y="-77"/>
      <point x="382" y="-80"/>
      <point x="380" y="-83" type="curve" smooth="yes"/>
    </contour>
  </outline>
</glyph>
<glyph name="parenright" format="1">
  <advance width="480"/>
  <unicode hex="0029"/>
  <outline>
    <contour>
      <point x="116" y="-109" type="line" smooth="yes"/>
      <point x="119" y="-114"/>
      <point x="123" y="-116"/>
      <point x="128" y="-116" type="curve" smooth="yes"/>
      <point x="131" y="-116"/>
      <point x="133" y="-115"/>
      <point x="137" y="-114" type="curve" smooth="yes"/>
      <point x="296" y="-31"/>
      <point x="400" y="154"/>
      <point x="400" y="331" type="curve" smooth="yes"/>
      <point x="400" y="508"/>
      <point x="298" y="696"/>
      <point x="138" y="779" type="curve" smooth="yes"/>
      <point x="135" y="781"/>
      <point x="132" y="782"/>
      <point x="130" y="782" type="curve" smooth="yes"/>
      <point x="125" y="782"/>
      <point x="121" y="779"/>
      <point x="118" y="774" type="curve" smooth="yes"/>
      <point x="99" y="746" type="line" smooth="yes"/>
      <point x="97" y="743"/>
      <point x="96" y="740"/>
      <point x="96" y="737" type="curve" smooth="yes"/>
      <point x="96" y="733"/>
      <point x="98" y="729"/>
      <point x="103" y="725" type="curve" smooth="yes"/>
      <point x="190" y="657"/>
      <point x="272" y="481"/>
      <point x="272" y="331" type="curve" smooth="yes"/>
      <point x="272" y="181"/>
      <point x="189" y="6"/>
      <point x="103" y="-63" type="curve" smooth="yes"/>
      <point x="98" y="-66"/>
      <point x="96" y="-70"/>
      <point x="96" y="-74" type="curve" smooth="yes"/>
      <point x="96" y="-77"/>
      <point x="97" y="-80"/>
      <point x="99" y="-83" type="curve" smooth="yes"/>
    </contour>
  </outline>
</glyph>
<glyph name="plus" format="1">
  <advance width="600"/>
  <unicode hex="002B"/>
  <outline>
    <contour>
      <point x="358" y="322" type="line"/>
      <point x="358" y="511" type="line" smooth="yes"/>
      <point x="358" y="521"/>
      <point x="353" y="526"/>
      <point x="343" y="526" type="curve" smooth="yes"/>
      <point x="256" y="526" type="line" smooth="yes"/>
      <point x="246" y="526"/>
      <point x="241" y="521"/>
      <point x="241" y="511" type="curve" smooth="yes"/>
      <point x="241" y="322" type="line"/>
      <point x="52" y="322" type="line" smooth="yes"/>
      <point x="42" y="322"/>
      <point x="37" y="317"/>
      <point x="37" y="307" type="curve" smooth="yes"/>
      <point x="37" y="220" type="line" smooth="yes"/>
      <point x="37" y="210"/>
      <point x="42" y="205"/>
      <point x="52" y="205" type="curve" smooth="yes"/>
      <point x="241" y="205" type="line"/>
      <point x="241" y="16" type="line" smooth="yes"/>
      <point x="241" y="6"/>
      <point x="246" y="1"/>
      <point x="256" y="1" type="curve" smooth="yes"/>
      <point x="343" y="1" type="line" smooth="yes"/>
      <point x="353" y="1"/>
      <point x="358" y="6"/>
      <point x="358" y="16" type="curve" smooth="yes"/>
      <point x="358" y="205" type="line"/>
      <point x="547" y="205" type="line" smooth="yes"/>
      <point x="557" y="205"/>
      <point x="562" y="210"/>
      <point x="562" y="220" type="curve" smooth="yes"/>
      <point x="562" y="307" type="line" smooth="yes"/>
      <point x="562" y="317"/>
      <point x="557" y="322"/>
      <point x="547" y="322" type="curve" smooth="yes"/>
    </contour>
  </outline>
</glyph>
<glyph name="hyphen" format="1">
  <advance width="521"/>
  <unicode hex="002D"/>
  <outline>
    <contour>
      <point x="22" y="220" type="line" smooth="yes"/>
      <point x="22" y="210"/>
      <point x="27" y="205"/>
      <point x="37" y="205" type="curve" smooth="yes"/>
      <point x="482" y="205" type="line" smooth="yes"/>
      <point x="492" y="205"/>
      <point x="497" y="210"/>
      <point x="497" y="220" type="curve" smooth="yes"/>
      <point x="497" y="307" type="line" smooth="yes"/>
      <point x="497" y="317"/>
      <point x="492" y="322"/>
      <point x="482" y="322" type="curve" smooth="yes"/>
      <point x="37" y="322" type="line" smooth="yes"/>
      <point x="27" y="322"/>
      <point x="22" y="317"/>
      <point x="22" y="307" type="curve" smooth="yes"/>
    </contour>
  </outline>
</glyph>
<glyph name="four" format="1">
  <advance width="564"/>
  <unicode hex="0034"/>
  <outline>
    <contour>
      <point x="539" y="73" type="line" smooth="yes"/>
      <point x="539" y="82"/>
      <point x="534" y="88"/>
      <point x="524" y="88" type="curve" smooth="yes"/>
      <point x="413" y="88" type="line"/>
      <point x="413" y="210" type="line" smooth="yes"/>
      <point x="413" y="219"/>
      <point x="408" y="223"/>
      <point x="401" y="223" type="curve" smooth="yes"/>
      <point x="396" y="223" type="line" smooth="yes"/>
      <point x="308" y="206" type="line" smooth="yes"/>
      <point x="299" y="204"/>
      <point x="295" y="198"/>
      <point x="295" y="189" type="curve" smooth="yes"/>
      <point x="295" y="88" type="line"/>
      <point x="116" y="88" type="line"/>
      <point x="185" y="169"/>
      <point x="370" y="350"/>
      <point x="370" y="469" type="curve" smooth="yes"/>
      <point x="370" y="481"/>
      <point x="368" y="491"/>
      <point x="365" y="501" type="curve" smooth="yes"/>
      <point x="361" y="512"/>
      <point x="355" y="518"/>
      <point x="340" y="521" type="curve" smooth="yes"/>
      <point x="196" y="551" type="line" smooth="yes"/>
      <point x="189" y="553"/>
      <point x="186" y="548"/>
      <point x="186" y="542" type="curve" smooth="yes"/>
      <point x="186" y="539"/>
      <point x="187" y="535"/>
      <point x="189" y="531" type="curve" smooth="yes"/>
      <point x="204" y="498"/>
      <point x="211" y="467"/>
      <point x="211" y="439" type="curve" smooth="yes"/>
      <point x="211" y="317"/>
      <point x="91" y="229"/>
      <point x="5" y="96" type="curve" smooth="yes"/>
      <point x="1" y="90"/>
      <point x="-8" y="85"/>
      <point x="-8" y="78" type="curve" smooth="yes"/>
      <point x="-8" y="16" type="line" smooth="yes"/>
      <point x="-8" y="6"/>
      <point x="5" y="1"/>
      <point x="15" y="1" type="curve" smooth="yes"/>
      <point x="295" y="1" type="line"/>
      <point x="295" y="-185" type="line" smooth="yes"/>
      <point x="295" y="-195"/>
      <point x="300" y="-200"/>
      <point x="310" y="-200" type="curve" smooth="yes"/>
      <point x="398" y="-200" type="line" smooth="yes"/>
      <point x="408" y="-200"/>
      <point x="413" y="-195"/>
      <point x="413" y="-185" type="curve" smooth="yes"/>
      <point x="413" y="1" type="line"/>
      <point x="524" y="1" type="line" smooth="yes"/>
      <point x="534" y="1"/>
      <point x="539" y="6"/>
      <point x="539" y="16" type="curve" smooth="yes"/>
    </contour>
  </outline>
</glyph>
<glyph name="five" format="1">
  <advance width="551"/>
  <unicode hex="0035"/>
  <outline>
    <contour>
      <point x="198" y="460" type="line"/>
      <point x="411" y="460" type="line" smooth="yes"/>
      <point x="418" y="460"/>
      <point x="424" y="460"/>
      <point x="429" y="455" type="curve" smooth="yes"/>
      <point x="435" y="450" type="line" smooth="yes"/>
      <point x="438" y="448"/>
      <point x="440" y="447"/>
      <point x="443" y="447" type="curve" smooth="yes"/>
      <point x="448" y="447"/>
      <point x="452" y="450"/>
      <point x="455" y="455" type="curve" smooth="yes"/>
      <point x="519" y="560" type="line" smooth="yes"/>
      <point x="521" y="563"/>
      <point x="521" y="566"/>
      <point x="521" y="569" type="curve" smooth="yes"/>
      <point x="521" y="573"/>
      <point x="519" y="577"/>
      <point x="513" y="581" type="curve" smooth="yes"/>
      <point x="482" y="598" type="line" smooth="yes"/>
      <point x="479" y="600"/>
      <point x="476" y="601"/>
      <point x="474" y="601" type="curve" smooth="yes"/>
      <point x="469" y="601"/>
      <point x="465" y="598"/>
      <point x="462" y="593" type="curve" smooth="yes"/>
      <point x="459" y="588" type="line" smooth="yes"/>
      <point x="436" y="548"/>
      <point x="314" y="546"/>
      <point x="265" y="545" type="curve" smooth="yes"/>
      <point x="118" y="543" type="line" smooth="yes"/>
      <point x="109" y="543"/>
      <point x="104" y="538"/>
      <point x="102" y="529" type="curve" smooth="yes"/>
      <point x="47" y="245" type="line" smooth="yes"/>
      <point x="46" y="235"/>
      <point x="50" y="230"/>
      <point x="57" y="230" type="curve" smooth="yes"/>
      <point x="62" y="230" type="line" smooth="yes"/>
      <point x="85" y="236"/>
      <point x="116" y="240"/>
      <point x="148" y="240" type="curve" smooth="yes"/>
      <point x="230" y="240"/>
      <point x="322" y="210"/>
      <point x="322" y="81" type="curve" smooth="yes"/>
      <point x="322" y="-63"/>
      <point x="230" y="-121"/>
      <point x="117" y="-121" type="curve" smooth="yes"/>
      <point x="89" y="-121"/>
      <point x="59" y="-117"/>
      <point x="30" y="-111" type="curve" smooth="yes"/>
      <point x="20" y="-109"/>
      <point x="15" y="-114"/>
      <point x="15" y="-123" type="curve" smooth="yes"/>
      <point x="15" y="-126" type="line" smooth="yes"/>
      <point x="20" y="-169" type="line" smooth="yes"/>
      <point x="21" y="-178"/>
      <point x="26" y="-182"/>
      <point x="36" y="-183" type="curve" smooth="yes"/>
      <point x="67" y="-186"/>
      <point x="98" y="-188"/>
      <point x="128" y="-188" type="curve" smooth="yes"/>
      <point x="322" y="-188"/>
      <point x="486" y="-107"/>
      <point x="486" y="78" type="curve" smooth="yes"/>
      <point x="486" y="227"/>
      <point x="366" y="307"/>
      <point x="221" y="307" type="curve" smooth="yes"/>
      <point x="202" y="307"/>
      <point x="183" y="305"/>
      <point x="164" y="303" type="curve"/>
    </contour>
  </outline>
</glyph>
<glyph name="six" format="1">
  <advance width="642"/>
  <unicode hex="0036"/>
  <outline>
    <contour>
      <point x="579" y="566" type="line" smooth="yes"/>
      <point x="594" y="570"/>
      <point x="600" y="575"/>
      <point x="604" y="586" type="curve" smooth="yes"/>
      <point x="609" y="597"/>
      <point x="612" y="610"/>
      <point x="612" y="622" type="curve" smooth="yes"/>
      <point x="612" y="693"/>
      <point x="528" y="761"/>
      <point x="405" y="761" type="curve" smooth="yes"/>
      <point x="109" y="761"/>
      <point x="29" y="483"/>
      <point x="29" y="303" type="curve" smooth="yes"/>
      <point x="29" y="270"/>
      <point x="32" y="240"/>
      <point x="37" y="216" type="curve" smooth="yes"/>
      <point x="38" y="211"/>
      <point x="38" y="207"/>
      <point x="40" y="203" type="curve" smooth="yes"/>
      <point x="40" y="202" type="line"/>
      <point x="72" y="74"/>
      <point x="195" y="-14"/>
      <point x="328" y="-14" type="curve" smooth="yes"/>
      <point x="345" y="-14"/>
      <point x="362" y="-12"/>
      <point x="378" y="-9" type="curve" smooth="yes"/>
      <point x="507" y="13"/>
      <point x="594" y="117"/>
      <point x="594" y="236" type="curve" smooth="yes"/>
      <point x="594" y="256"/>
      <point x="591" y="277"/>
      <point x="586" y="298" type="curve" smooth="yes"/>
      <point x="554" y="425"/>
      <point x="432" y="514"/>
      <point x="299" y="514" type="curve" smooth="yes"/>
      <point x="282" y="514"/>
      <point x="265" y="513"/>
      <point x="248" y="509" type="curve" smooth="yes"/>
      <point x="230" y="506"/>
      <point x="213" y="502"/>
      <point x="197" y="496" type="curve"/>
      <point x="226" y="601"/>
      <point x="288" y="694"/>
      <point x="409" y="694" type="curve" smooth="yes"/>
      <point x="446" y="694"/>
      <point x="489" y="682"/>
      <point x="489" y="634" type="curve" smooth="yes"/>
      <point x="489" y="616"/>
      <point x="483" y="593"/>
      <point x="467" y="563" type="curve" smooth="yes"/>
      <point x="463" y="554"/>
      <point x="464" y="543"/>
      <point x="472" y="543" type="curve" smooth="yes"/>
      <point x="474" y="543" type="line" smooth="yes"/>
    </contour>
    <contour>
      <point x="288" y="439" type="curve" smooth="yes"/>
      <point x="367" y="439"/>
      <point x="420" y="358"/>
      <point x="441" y="272" type="curve" smooth="yes"/>
      <point x="448" y="247"/>
      <point x="451" y="220"/>
      <point x="451" y="195" type="curve" smooth="yes"/>
      <point x="451" y="130"/>
      <point x="426" y="74"/>
      <point x="360" y="63" type="curve" smooth="yes"/>
      <point x="353" y="61"/>
      <point x="345" y="61"/>
      <point x="338" y="61" type="curve" smooth="yes"/>
      <point x="259" y="61"/>
      <point x="207" y="142"/>
      <point x="185" y="227" type="curve" smooth="yes"/>
      <point x="180" y="248"/>
      <point x="176" y="283"/>
      <point x="176" y="325" type="curve"/>
      <point x="181" y="381"/>
      <point x="207" y="426"/>
      <point x="266" y="437" type="curve" smooth="yes"/>
      <point x="274" y="438"/>
      <point x="281" y="439"/>
    </contour>
  </outline>
</glyph>
<glyph name="eight" format="1">
  <advance width="557"/>
  <unicode hex="0038"/>
  <outline>
    <contour>
      <point x="46" y="566" type="curve" smooth="yes"/>
      <point x="46" y="472"/>
      <point x="103" y="410"/>
      <point x="166" y="370" type="curve"/>
      <point x="89" y="338"/>
      <point x="30" y="285"/>
      <point x="30" y="193" type="curve" smooth="yes"/>
      <point x="30" y="66"/>
      <point x="127" y="-9"/>
      <point x="272" y="-9" type="curve" smooth="yes"/>
      <point x="419" y="-9"/>
      <point x="527" y="67"/>
      <point x="527" y="194" type="curve" smooth="yes"/>
      <point x="527" y="292"/>
      <point x="473" y="353"/>
      <point x="389" y="399" type="curve"/>
      <point x="453" y="434"/>
      <point x="507" y="502"/>
      <point x="507" y="577" type="curve" smooth="yes"/>
      <point x="507" y="683"/>
      <point x="418" y="765"/>
      <point x="282" y="765" type="curve" smooth="yes"/>
      <point x="147" y="765"/>
      <point x="46" y="683"/>
    </contour>
    <contour>
      <point x="396" y="577" type="curve" smooth="yes"/>
      <point x="396" y="515"/>
      <point x="367" y="460"/>
      <point x="298" y="439" type="curve"/>
      <point x="251" y="456"/>
      <point x="174" y="507"/>
      <point x="174" y="578" type="curve" smooth="yes"/>
      <point x="174" y="661"/>
      <point x="218" y="702"/>
      <point x="282" y="702" type="curve" smooth="yes"/>
      <point x="361" y="702"/>
      <point x="396" y="640"/>
    </contour>
    <contour>
      <point x="396" y="181" type="curve" smooth="yes"/>
      <point x="396" y="97"/>
      <point x="360" y="52"/>
      <point x="272" y="52" type="curve" smooth="yes"/>
      <point x="179" y="52"/>
      <point x="138" y="120"/>
      <point x="138" y="193" type="curve" smooth="yes"/>
      <point x="138" y="252"/>
      <point x="170" y="300"/>
      <point x="257" y="326" type="curve"/>
      <point x="304" y="312"/>
      <point x="396" y="264"/>
    </contour>
  </outline>
</glyph>
<glyph name="semicolon" format="1">
  <advance width="370"/>
  <unicode hex="003B"/>
  <outline>
    <contour>
      <point x="115" y="527" type="line" smooth="yes"/>
      <point x="103" y="515"/>
      <point x="96" y="502"/>
      <point x="96" y="488" type="curve" smooth="yes"/>
      <point x="96" y="475"/>
      <point x="103" y="462"/>
      <point x="115" y="450" type="curve" smooth="yes"/>
      <point x="154" y="410" type="line" smooth="yes"/>
      <point x="167" y="398"/>
      <point x="180" y="392"/>
      <point x="193" y="392" type="curve" smooth="yes"/>
      <point x="206" y="392"/>
      <point x="220" y="398"/>
      <point x="232" y="410" type="curve" smooth="yes"/>
      <point x="271" y="450" type="line" smooth="yes"/>
      <point x="284" y="462"/>
      <point x="290" y="475"/>
      <point x="290" y="488" type="curve" smooth="yes"/>
      <point x="290" y="502"/>
      <point x="284" y="515"/>
      <point x="271" y="527" type="curve" smooth="yes"/>
      <point x="232" y="566" type="line" smooth="yes"/>
      <point x="219" y="579"/>
      <point x="206" y="585"/>
      <point x="193" y="585" type="curve" smooth="yes"/>
      <point x="180" y="585"/>
      <point x="167" y="579"/>
      <point x="154" y="567" type="curve" smooth="yes"/>
    </contour>
    <contour>
      <point x="228" y="156" type="line" smooth="yes"/>
      <point x="215" y="168"/>
      <point x="202" y="175"/>
      <point x="189" y="175" type="curve" smooth="yes"/>
      <point x="176" y="175"/>
      <point x="163" y="168"/>
      <point x="150" y="156" type="curve" smooth="yes"/>
      <point x="111" y="117" type="line" smooth="yes"/>
      <point x="98" y="104"/>
      <point x="92" y="91"/>
      <point x="92" y="78" type="curve" smooth="yes"/>
      <point x="92" y="65"/>
      <point x="98" y="52"/>
      <point x="111" y="39" type="curve" smooth="yes"/>
      <point x="150" y="0" type="line" smooth="yes"/>
      <point x="156" y="-5"/>
      <point x="159" y="-12"/>
      <point x="159" y="-22" type="curve" smooth="yes"/>
      <point x="159" y="-53"/>
      <point x="127" y="-101"/>
      <point x="80" y="-138" type="curve"/>
      <point x="108" y="-151"/>
      <point x="114" y="-153"/>
      <point x="119" y="-153" type="curve" smooth="yes"/>
      <point x="142" y="-153"/>
      <point x="268" y="-46"/>
      <point x="285" y="32" type="curve" smooth="yes"/>
      <point x="287" y="43"/>
      <point x="288" y="53"/>
      <point x="288" y="61" type="curve" smooth="yes"/>
      <point x="288" y="87"/>
      <point x="279" y="105"/>
      <point x="267" y="117" type="curve" smooth="yes"/>
    </contour>
  </outline>
</glyph>
<glyph name="greater" format="1">
  <advance width="600"/>
  <unicode hex="003E"/>
  <outline>
    <contour>
      <point x="571" y="276" type="line" smooth="yes"/>
      <point x="577" y="279"/>
      <point x="579" y="283"/>
      <point x="579" y="287" type="curve" smooth="yes"/>
      <point x="579" y="290"/>
      <point x="577" y="294"/>
      <point x="571" y="297" type="curve" smooth="yes"/>
      <point x="40" y="565" type="line" smooth="yes"/>
      <point x="37" y="566"/>
      <point x="35" y="567"/>
      <point x="32" y="567" type="curve" smooth="yes"/>
      <point x="26" y="567"/>
      <point x="22" y="562"/>
      <point x="22" y="554" type="curve" smooth="yes"/>
      <point x="22" y="485" type="line" smooth="yes"/>
      <point x="22" y="477"/>
      <point x="26" y="471"/>
      <point x="33" y="467" type="curve" smooth="yes"/>
      <point x="392" y="287" type="line"/>
      <point x="33" y="106" type="line" smooth="yes"/>
      <point x="26" y="102"/>
      <point x="22" y="97"/>
      <point x="22" y="88" type="curve" smooth="yes"/>
      <point x="22" y="19" type="line" smooth="yes"/>
      <point x="22" y="11"/>
      <point x="26" y="6"/>
      <point x="32" y="6" type="curve" smooth="yes"/>
      <point x="35" y="6"/>
      <point x="37" y="7"/>
      <point x="40" y="8" type="curve" smooth="yes"/>
    </contour>
  </outline>
</glyph>
<glyph name="at" format="1">
  <advance width="962"/>
  <unicode hex="0040"/>
  <outline>
    <contour>
      <point x="580" y="-47" type="line"/>
      <point x="550" y="-55"/>
      <point x="518" y="-59"/>
      <point x="485" y="-59" type="curve" smooth="yes"/>
      <point x="270" y="-59"/>
      <point x="96" y="115"/>
      <point x="96" y="330" type="curve" smooth="yes"/>
      <point x="96" y="546"/>
      <point x="270" y="720"/>
      <point x="485" y="720" type="curve" smooth="yes"/>
      <point x="721" y="720"/>
      <point x="865" y="546"/>
      <point x="865" y="330" type="curve" smooth="yes"/>
      <point x="865" y="245"/>
      <point x="828" y="180"/>
      <point x="758" y="184" type="curve"/>
      <point x="710" y="189"/>
      <point x="702" y="233"/>
      <point x="701" y="279" type="curve"/>
      <point x="701" y="564" type="line"/>
      <point x="701" y="578" type="line"/>
      <point x="701" y="586" type="line"/>
      <point x="701" y="596" type="line" smooth="yes"/>
      <point x="701" y="597"/>
      <point x="701" y="597"/>
      <point x="699" y="597" type="curve" smooth="yes"/>
      <point x="697" y="597" type="line" smooth="yes"/>
      <point x="696" y="597"/>
      <point x="694" y="596"/>
      <point x="693" y="595" type="curve" smooth="yes"/>
      <point x="673" y="581"/>
      <point x="651" y="563"/>
      <point x="597" y="540" type="curve"/>
      <point x="556" y="577"/>
      <point x="502" y="597"/>
      <point x="439" y="597" type="curve" smooth="yes"/>
      <point x="322" y="597"/>
      <point x="213" y="523"/>
      <point x="213" y="343" type="curve" smooth="yes"/>
      <point x="213" y="155"/>
      <point x="340" y="87"/>
      <point x="428" y="87" type="curve" smooth="yes"/>
      <point x="527" y="87"/>
      <point x="565" y="150"/>
      <point x="576" y="176" type="curve"/>
      <point x="565" y="90" type="line" smooth="yes"/>
      <point x="564" y="88"/>
      <point x="565" y="87"/>
      <point x="566" y="87" type="curve" smooth="yes"/>
      <point x="568" y="87" type="line" smooth="yes"/>
      <point x="571" y="87"/>
      <point x="575" y="88"/>
      <point x="576" y="89" type="curve" smooth="yes"/>
      <point x="621" y="108"/>
      <point x="661" y="126"/>
      <point x="758" y="126" type="curve" smooth="yes"/>
      <point x="887" y="126"/>
      <point x="941" y="235"/>
      <point x="941" y="330" type="curve" smooth="yes"/>
      <point x="941" y="587"/>
      <point x="763" y="796"/>
      <point x="485" y="796" type="curve" smooth="yes"/>
      <point x="228" y="796"/>
      <point x="20" y="587"/>
      <point x="20" y="330" type="curve" smooth="yes"/>
      <point x="20" y="73"/>
      <point x="228" y="-135"/>
      <point x="485" y="-135" type="curve" smooth="yes"/>
      <point x="525" y="-135"/>
      <point x="565" y="-130"/>
      <point x="602" y="-120" type="curve"/>
    </contour>
    <contour>
      <point x="565" y="236" type="line"/>
      <point x="565" y="236"/>
      <point x="544" y="172"/>
      <point x="472" y="172" type="curve" smooth="yes"/>
      <point x="392" y="172"/>
      <point x="337" y="250"/>
      <point x="337" y="374" type="curve" smooth="yes"/>
      <point x="337" y="454"/>
      <point x="363" y="532"/>
      <point x="457" y="532" type="curve" smooth="yes"/>
      <point x="533" y="532"/>
      <point x="558" y="470"/>
      <point x="565" y="431" type="curve"/>
    </contour>
  </outline>
</glyph>
<glyph name="C" format="1">
  <advance width="748"/>
  <unicode hex="0043"/>
  <outline>
    <contour>
      <point x="384" y="750" type="move" name="top"/>
    </contour>
    <contour>
      <point x="384" y="0" type="move" name="bottom"/>
    </contour>
    <contour>
      <point x="694" y="255" type="line" smooth="yes"/>
      <point x="690" y="258"/>
      <point x="685" y="259"/>
      <point x="681" y="259" type="curve" smooth="yes"/>
      <point x="674" y="259"/>
      <point x="668" y="255"/>
      <point x="664" y="246" type="curve" smooth="yes"/>
      <point x="632" y="174"/>
      <point x="571" y="83"/>
      <point x="422" y="83" type="curve" smooth="yes"/>
      <point x="273" y="83"/>
      <point x="205" y="216"/>
      <point x="205" y="410" type="curve" smooth="yes"/>
      <point x="205" y="522"/>
      <point x="253" y="682"/>
      <point x="395" y="682" type="curve" smooth="yes"/>
      <point x="509" y="682"/>
      <point x="542" y="593"/>
      <point x="542" y="522" type="curve" smooth="yes"/>
      <point x="542" y="504" type="line" smooth="yes"/>
      <point x="540" y="489" type="line" smooth="yes"/>
      <point x="539" y="482"/>
      <point x="543" y="478"/>
      <point x="551" y="478" type="curve" smooth="yes"/>
      <point x="555" y="478"/>
      <point x="559" y="479"/>
      <point x="564" y="481" type="curve" smooth="yes"/>
      <point x="692" y="525" type="line" smooth="yes"/>
      <point x="703" y="528"/>
      <point x="709" y="535"/>
      <point x="709" y="545" type="curve" smooth="yes"/>
      <point x="709" y="551" type="line"/>
      <point x="676" y="699"/>
      <point x="536" y="761"/>
      <point x="403" y="761" type="curve" smooth="yes"/>
      <point x="116" y="761"/>
      <point x="35" y="533"/>
      <point x="35" y="367" type="curve" smooth="yes"/>
      <point x="35" y="151"/>
      <point x="166" y="-10"/>
      <point x="407" y="-10" type="curve" smooth="yes"/>
      <point x="600" y="-10"/>
      <point x="698" y="115"/>
      <point x="741" y="219" type="curve" smooth="yes"/>
      <point x="746" y="231"/>
      <point x="739" y="235"/>
      <point x="730" y="239" type="curve" smooth="yes"/>
    </contour>
  </outline>
</glyph>
<glyph name="G" format="1">
  <advance width="771"/>
  <unicode hex="0047"/>
  <outline>
    <contour>
      <point x="387" y="750" type="move" name="top"/>
    </contour>
    <contour>
      <point x="387" y="0" type="move" name="bottom"/>
    </contour>
    <contour>
      <point x="422" y="371" type="line" smooth="yes"/>
      <point x="412" y="371"/>
      <point x="407" y="366"/>
      <point x="407" y="356" type="curve" smooth="yes"/>
      <point x="407" y="326" type="line" smooth="yes"/>
      <point x="407" y="317"/>
      <point x="412" y="311"/>
      <point x="422" y="311" type="curve" smooth="yes"/>
      <point x="429" y="311" type="line"/>
      <point x="480" y="309"/>
      <point x="535" y="309"/>
      <point x="535" y="196" type="curve" smooth="yes"/>
      <point x="535" y="144" type="line" smooth="yes"/>
      <point x="535" y="98"/>
      <point x="473" y="83"/>
      <point x="422" y="83" type="curve" smooth="yes"/>
      <point x="273" y="83"/>
      <point x="205" y="255"/>
      <point x="205" y="410" type="curve" smooth="yes"/>
      <point x="205" y="522"/>
      <point x="253" y="682"/>
      <point x="395" y="682" type="curve" smooth="yes"/>
      <point x="509" y="682"/>
      <point x="542" y="593"/>
      <point x="542" y="522" type="curve" smooth="yes"/>
      <point x="542" y="516"/>
      <point x="542" y="510"/>
      <point x="541" y="504" type="curve" smooth="yes"/>
      <point x="540" y="489" type="line" smooth="yes"/>
      <point x="539" y="482"/>
      <point x="543" y="478"/>
      <point x="551" y="478" type="curve" smooth="yes"/>
      <point x="555" y="478"/>
      <point x="559" y="479"/>
      <point x="564" y="481" type="curve" smooth="yes"/>
      <point x="692" y="525" type="line" smooth="yes"/>
      <point x="703" y="528"/>
      <point x="709" y="535"/>
      <point x="709" y="545" type="curve"/>
      <point x="708" y="551" type="line"/>
      <point x="676" y="699"/>
      <point x="536" y="761"/>
      <point x="403" y="761" type="curve" smooth="yes"/>
      <point x="115" y="761"/>
      <point x="35" y="533"/>
      <point x="35" y="367" type="curve" smooth="yes"/>
      <point x="35" y="151"/>
      <point x="178" y="-10"/>
      <point x="396" y="-10" type="curve" smooth="yes"/>
      <point x="520" y="-10"/>
      <point x="607" y="35"/>
      <point x="668" y="112" type="curve" smooth="yes"/>
      <point x="680" y="127"/>
      <point x="696" y="154"/>
      <point x="702" y="170" type="curve"/>
      <point x="702" y="279" type="line" smooth="yes"/>
      <point x="702" y="301"/>
      <point x="709" y="311"/>
      <point x="728" y="311" type="curve" smooth="yes"/>
      <point x="736" y="311" type="line" smooth="yes"/>
      <point x="746" y="311"/>
      <point x="751" y="317"/>
      <point x="751" y="326" type="curve" smooth="yes"/>
      <point x="751" y="356" type="line" smooth="yes"/>
      <point x="751" y="366"/>
      <point x="746" y="371"/>
      <point x="736" y="371" type="curve" smooth="yes"/>
    </contour>
  </outline>
</glyph>
<glyph name="I" format="1">
  <advance width="407"/>
  <unicode hex="0049"/>
  <outline>
    <contour>
      <point x="363" y="-16" type="move" name="ogonek"/>
    </contour>
    <contour>
      <point x="204" y="750" type="move" name="top"/>
    </contour>
    <contour>
      <point x="284" y="594" type="line" smooth="yes"/>
      <point x="284" y="647"/>
      <point x="300" y="687"/>
      <point x="351" y="689" type="curve"/>
      <point x="357" y="689" type="line" smooth="yes"/>
      <point x="367" y="689"/>
      <point x="372" y="695"/>
      <point x="372" y="704" type="curve" smooth="yes"/>
      <point x="372" y="735" type="line" smooth="yes"/>
      <point x="372" y="744"/>
      <point x="367" y="750"/>
      <point x="357" y="750" type="curve" smooth="yes"/>
      <point x="50" y="750" type="line" smooth="yes"/>
      <point x="40" y="750"/>
      <point x="35" y="744"/>
      <point x="35" y="735" type="curve" smooth="yes"/>
      <point x="35" y="704" type="line" smooth="yes"/>
      <point x="35" y="695"/>
      <point x="40" y="689"/>
      <point x="50" y="689" type="curve" smooth="yes"/>
      <point x="56" y="689" type="line"/>
      <point x="107" y="687"/>
      <point x="124" y="647"/>
      <point x="124" y="594" type="curve" smooth="yes"/>
      <point x="124" y="155" type="line" smooth="yes"/>
      <point x="124" y="102"/>
      <point x="107" y="62"/>
      <point x="56" y="60" type="curve"/>
      <point x="50" y="60" type="line" smooth="yes"/>
      <point x="40" y="60"/>
      <point x="35" y="54"/>
      <point x="35" y="45" type="curve" smooth="yes"/>
      <point x="35" y="15" type="line" smooth="yes"/>
      <point x="35" y="5"/>
      <point x="40" y="-7"/>
      <point x="50" y="-7" type="curve" smooth="yes"/>
      <point x="357" y="-7" type="line" smooth="yes"/>
      <point x="367" y="-7"/>
      <point x="372" y="5"/>
      <point x="372" y="15" type="curve" smooth="yes"/>
      <point x="372" y="45" type="line" smooth="yes"/>
      <point x="372" y="54"/>
      <point x="367" y="60"/>
      <point x="357" y="60" type="curve" smooth="yes"/>
      <point x="351" y="60" type="line"/>
      <point x="300" y="62"/>
      <point x="284" y="102"/>
      <point x="284" y="155" type="curve" smooth="yes"/>
    </contour>
  </outline>
</glyph>
<glyph name="J" format="1">
  <advance width="524"/>
  <unicode hex="004A"/>
  <outline>
    <contour>
      <point x="257" y="750" type="move" name="top"/>
    </contour>
    <contour>
      <point x="177" y="750" type="line" smooth="yes"/>
      <point x="167" y="750"/>
      <point x="162" y="744"/>
      <point x="162" y="735" type="curve" smooth="yes"/>
      <point x="162" y="704" type="line" smooth="yes"/>
      <point x="162" y="695"/>
      <point x="167" y="689"/>
      <point x="177" y="689" type="curve" smooth="yes"/>
      <point x="184" y="689" type="line"/>
      <point x="235" y="687"/>
      <point x="251" y="647"/>
      <point x="251" y="594" type="curve" smooth="yes"/>
      <point x="251" y="333" type="line"/>
      <point x="251" y="253" type="line"/>
      <point x="251" y="127" type="line" smooth="yes"/>
      <point x="251" y="85"/>
      <point x="237" y="53"/>
      <point x="190" y="53" type="curve" smooth="yes"/>
      <point x="148" y="53"/>
      <point x="135" y="99"/>
      <point x="135" y="146" type="curve" smooth="yes"/>
      <point x="135" y="159"/>
      <point x="136" y="172"/>
      <point x="138" y="184" type="curve" smooth="yes"/>
      <point x="138" y="196"/>
      <point x="132" y="202"/>
      <point x="126" y="202" type="curve" smooth="yes"/>
      <point x="124" y="202"/>
      <point x="121" y="201"/>
      <point x="119" y="200" type="curve" smooth="yes"/>
      <point x="20" y="147" type="line" smooth="yes"/>
      <point x="9" y="141"/>
      <point x="4" y="131"/>
      <point x="4" y="122" type="curve" smooth="yes"/>
      <point x="4" y="96"/>
      <point x="47" y="-10"/>
      <point x="181" y="-10" type="curve" smooth="yes"/>
      <point x="376" y="-10"/>
      <point x="411" y="113"/>
      <point x="411" y="218" type="curve" smooth="yes"/>
      <point x="411" y="594" type="line" smooth="yes"/>
      <point x="411" y="647"/>
      <point x="427" y="687"/>
      <point x="478" y="689" type="curve"/>
      <point x="484" y="689" type="line" smooth="yes"/>
      <point x="494" y="689"/>
      <point x="499" y="695"/>
      <point x="499" y="704" type="curve" smooth="yes"/>
      <point x="499" y="735" type="line" smooth="yes"/>
      <point x="499" y="744"/>
      <point x="494" y="750"/>
      <point x="484" y="750" type="curve" smooth="yes"/>
    </contour>
  </outline>
</glyph>
<glyph name="K" format="1">
  <advance width="798"/>
  <unicode hex="004B"/>
  <outline>
    <contour>
      <point x="411" y="750" type="move" name="top"/>
    </contour>
    <contour>
      <point x="411" y="0" type="move" name="bottom"/>
    </contour>
    <contour>
      <point x="769" y="60" type="line"/>
      <point x="718" y="62"/>
      <point x="703" y="104"/>
      <point x="670" y="155" type="curve" smooth="yes"/>
      <point x="462" y="466" type="line"/>
      <point x="609" y="625" type="line" smooth="yes"/>
      <point x="657" y="677"/>
      <point x="680" y="690"/>
      <point x="719" y="690" type="curve" smooth="yes"/>
      <point x="731" y="690" type="line" smooth="yes"/>
      <point x="739" y="690"/>
      <point x="744" y="695"/>
      <point x="744" y="705" type="curve" smooth="yes"/>
      <point x="744" y="735" type="line" smooth="yes"/>
      <point x="743" y="745"/>
      <point x="739" y="750"/>
      <point x="729" y="750" type="curve" smooth="yes"/>
      <point x="597" y="750" type="line"/>
      <point x="477" y="750" type="line" smooth="yes"/>
      <point x="467" y="750"/>
      <point x="462" y="745"/>
      <point x="462" y="735" type="curve" smooth="yes"/>
      <point x="462" y="705" type="line" smooth="yes"/>
      <point x="461" y="695"/>
      <point x="467" y="690"/>
      <point x="475" y="690" type="curve" smooth="yes"/>
      <point x="495" y="690" type="line" smooth="yes"/>
      <point x="509" y="690"/>
      <point x="515" y="682"/>
      <point x="515" y="673" type="curve" smooth="yes"/>
      <point x="515" y="665"/>
      <point x="511" y="656"/>
      <point x="505" y="649" type="curve" smooth="yes"/>
      <point x="475" y="614" type="line"/>
      <point x="279" y="397" type="line"/>
      <point x="279" y="593" type="line" smooth="yes"/>
      <point x="279" y="646"/>
      <point x="295" y="687"/>
      <point x="345" y="689" type="curve"/>
      <point x="352" y="689" type="line" smooth="yes"/>
      <point x="362" y="689"/>
      <point x="367" y="695"/>
      <point x="367" y="704" type="curve" smooth="yes"/>
      <point x="367" y="735" type="line" smooth="yes"/>
      <point x="367" y="744"/>
      <point x="362" y="750"/>
      <point x="352" y="750" type="curve" smooth="yes"/>
      <point x="347" y="750" type="line"/>
      <point x="50" y="750" type="line"/>
      <point x="45" y="750" type="line" smooth="yes"/>
      <point x="35" y="750"/>
      <point x="30" y="744"/>
      <point x="30" y="735" type="curve" smooth="yes"/>
      <point x="30" y="704" type="line" smooth="yes"/>
      <point x="30" y="695"/>
      <point x="35" y="689"/>
      <point x="45" y="689" type="curve" smooth="yes"/>
      <point x="52" y="689" type="line"/>
      <point x="102" y="687"/>
      <point x="119" y="647"/>
      <point x="119" y="594" type="curve" smooth="yes"/>
      <point x="119" y="155" type="line" smooth="yes"/>
      <point x="119" y="102"/>
      <point x="102" y="62"/>
      <point x="51" y="60" type="curve"/>
      <point x="45" y="60" type="line" smooth="yes"/>
      <point x="35" y="60"/>
      <point x="30" y="54"/>
      <point x="30" y="45" type="curve" smooth="yes"/>
      <point x="30" y="15" type="line" smooth="yes"/>
      <point x="30" y="5"/>
      <point x="35" y="3"/>
      <point x="45" y="3" type="curve" smooth="yes"/>
      <point x="352" y="3" type="line" smooth="yes"/>
      <point x="362" y="3"/>
      <point x="367" y="5"/>
      <point x="367" y="15" type="curve" smooth="yes"/>
      <point x="367" y="45" type="line" smooth="yes"/>
      <point x="367" y="54"/>
      <point x="362" y="60"/>
      <point x="352" y="60" type="curve" smooth="yes"/>
      <point x="346" y="60" type="line"/>
      <point x="295" y="62"/>
      <point x="279" y="102"/>
      <point x="279" y="155" type="curve" smooth="yes"/>
      <point x="279" y="269" type="line"/>
      <point x="364" y="361" type="line"/>
      <point x="510" y="155" type="line" smooth="yes"/>
      <point x="522" y="137"/>
      <point x="527" y="121"/>
      <point x="527" y="107" type="curve" smooth="yes"/>
      <point x="527" y="80"/>
      <point x="507" y="61"/>
      <point x="474" y="60" type="curve"/>
      <point x="467" y="60" type="line" smooth="yes"/>
      <point x="457" y="60"/>
      <point x="452" y="54"/>
      <point x="452" y="45" type="curve" smooth="yes"/>
      <point x="452" y="14" type="line" smooth="yes"/>
      <point x="452" y="5"/>
      <point x="457" y="-9"/>
      <point x="467" y="-9" type="curve" smooth="yes"/>
      <point x="775" y="-9" type="line" smooth="yes"/>
      <point x="784" y="-9"/>
      <point x="790" y="5"/>
      <point x="790" y="14" type="curve" smooth="yes"/>
      <point x="790" y="45" type="line" smooth="yes"/>
      <point x="790" y="54"/>
      <point x="784" y="60"/>
      <point x="775" y="60" type="curve" smooth="yes"/>
    </contour>
  </outline>
</glyph>
<glyph name="N" format="1">
  <advance width="890"/>
  <unicode hex="004E"/>
  <outline>
    <contour>
      <point x="457" y="750" type="move" name="top"/>
    </contour>
    <contour>
      <point x="457" y="0" type="move" name="bottom"/>
    </contour>
    <contour>
      <point x="619" y="750" type="line" smooth="yes"/>
      <point x="609" y="750"/>
      <point x="604" y="744"/>
      <point x="604" y="735" type="curve" smooth="yes"/>
      <point x="604" y="705" type="line" smooth="yes"/>
      <point x="604" y="695"/>
      <point x="609" y="690"/>
      <point x="619" y="690" type="curve" smooth="yes"/>
      <point x="668" y="690"/>
      <point x="692" y="649"/>
      <point x="692" y="595" type="curve" smooth="yes"/>
      <point x="692" y="231" type="line"/>
      <point x="246" y="741" type="line" smooth="yes"/>
      <point x="241" y="747"/>
      <point x="235" y="749"/>
      <point x="227" y="749" type="curve" smooth="yes"/>
      <point x="54" y="749" type="line" smooth="yes"/>
      <point x="45" y="750"/>
      <point x="39" y="744"/>
      <point x="39" y="735" type="curve" smooth="yes"/>
      <point x="39" y="705" type="line" smooth="yes"/>
      <point x="39" y="695"/>
      <point x="45" y="690"/>
      <point x="54" y="690" type="curve" smooth="yes"/>
      <point x="79" y="690"/>
      <point x="98" y="681"/>
      <point x="117" y="664" type="curve"/>
      <point x="117" y="155" type="line" smooth="yes"/>
      <point x="117" y="100"/>
      <point x="93" y="60"/>
      <point x="45" y="60" type="curve" smooth="yes"/>
      <point x="35" y="60"/>
      <point x="30" y="54"/>
      <point x="30" y="45" type="curve" smooth="yes"/>
      <point x="30" y="15" type="line" smooth="yes"/>
      <point x="30" y="5"/>
      <point x="35" y="-3"/>
      <point x="45" y="-3" type="curve" smooth="yes"/>
      <point x="291" y="-3" type="line" smooth="yes"/>
      <point x="301" y="-3"/>
      <point x="306" y="5"/>
      <point x="306" y="15" type="curve" smooth="yes"/>
      <point x="306" y="45" type="line" smooth="yes"/>
      <point x="306" y="54"/>
      <point x="301" y="60"/>
      <point x="291" y="60" type="curve" smooth="yes"/>
      <point x="242" y="60"/>
      <point x="218" y="100"/>
      <point x="218" y="155" type="curve" smooth="yes"/>
      <point x="218" y="553" type="line"/>
      <point x="690" y="8" type="line" smooth="yes"/>
      <point x="696" y="2"/>
      <point x="701" y="1"/>
      <point x="709" y="1" type="curve" smooth="yes"/>
      <point x="778" y="1" type="line" smooth="yes"/>
      <point x="787" y="1"/>
      <point x="793" y="5"/>
      <point x="793" y="15" type="curve" smooth="yes"/>
      <point x="793" y="595" type="line" smooth="yes"/>
      <point x="792" y="649"/>
      <point x="816" y="690"/>
      <point x="865" y="690" type="curve" smooth="yes"/>
      <point x="875" y="690"/>
      <point x="880" y="695"/>
      <point x="880" y="705" type="curve" smooth="yes"/>
      <point x="880" y="735" type="line" smooth="yes"/>
      <point x="880" y="744"/>
      <point x="875" y="750"/>
      <point x="865" y="750" type="curve" smooth="yes"/>
    </contour>
  </outline>
</glyph>
<glyph name="O" format="1">
  <advance width="821"/>
  <unicode hex="004F"/>
  <outline>
    <contour>
      <point x="410" y="750" type="move" name="top"/>
    </contour>
    <contour>
      <point x="35" y="379" type="curve" smooth="yes"/>
      <point x="35" y="351"/>
      <point x="37" y="323"/>
      <point x="43" y="296" type="curve" smooth="yes"/>
      <point x="82" y="113"/>
      <point x="240" y="-12"/>
      <point x="415" y="-12" type="curve" smooth="yes"/>
      <point x="440" y="-12"/>
      <point x="465" y="-10"/>
      <point x="491" y="-5" type="curve" smooth="yes"/>
      <point x="666" y="32"/>
      <point x="786" y="191"/>
      <point x="786" y="368" type="curve" smooth="yes"/>
      <point x="786" y="396"/>
      <point x="783" y="424"/>
      <point x="777" y="452" type="curve" smooth="yes"/>
      <point x="739" y="634"/>
      <point x="579" y="762"/>
      <point x="404" y="762" type="curve" smooth="yes"/>
      <point x="379" y="762"/>
      <point x="354" y="759"/>
      <point x="329" y="754" type="curve" smooth="yes"/>
      <point x="153" y="716"/>
      <point x="35" y="556"/>
    </contour>
    <contour>
      <point x="394" y="673" type="curve" smooth="yes"/>
      <point x="526" y="673"/>
      <point x="599" y="543"/>
      <point x="626" y="419" type="curve" smooth="yes"/>
      <point x="633" y="386"/>
      <point x="637" y="351"/>
      <point x="637" y="317" type="curve" smooth="yes"/>
      <point x="637" y="209"/>
      <point x="596" y="107"/>
      <point x="473" y="81" type="curve" smooth="yes"/>
      <point x="456" y="77"/>
      <point x="440" y="76"/>
      <point x="425" y="76" type="curve" smooth="yes"/>
      <point x="293" y="76"/>
      <point x="221" y="204"/>
      <point x="195" y="328" type="curve" smooth="yes"/>
      <point x="188" y="361"/>
      <point x="184" y="397"/>
      <point x="184" y="432" type="curve" smooth="yes"/>
      <point x="184" y="540"/>
      <point x="224" y="642"/>
      <point x="347" y="668" type="curve" smooth="yes"/>
      <point x="363" y="672"/>
      <point x="379" y="673"/>
    </contour>
  </outline>
</glyph>
<glyph name="R" format="1">
  <advance width="798"/>
  <unicode hex="0052"/>
  <outline>
    <contour>
      <point x="347" y="750" type="move" name="top"/>
    </contour>
    <contour>
      <point x="411" y="0" type="move" name="bottom"/>
    </contour>
    <contour>
      <point x="769" y="60" type="line"/>
      <point x="717" y="62"/>
      <point x="694" y="108"/>
      <point x="670" y="155" type="curve" smooth="yes"/>
      <point x="560" y="360" type="line"/>
      <point x="646" y="401"/>
      <point x="679" y="470"/>
      <point x="679" y="538" type="curve" smooth="yes"/>
      <point x="679" y="653"/>
      <point x="575" y="750"/>
      <point x="413" y="750" type="curve" smooth="yes"/>
      <point x="45" y="750" type="line" smooth="yes"/>
      <point x="35" y="750"/>
      <point x="30" y="744"/>
      <point x="30" y="735" type="curve" smooth="yes"/>
      <point x="30" y="705" type="line" smooth="yes"/>
      <point x="30" y="695"/>
      <point x="35" y="690"/>
      <point x="45" y="690" type="curve" smooth="yes"/>
      <point x="46" y="690" type="line" smooth="yes"/>
      <point x="101" y="690"/>
      <point x="119" y="649"/>
      <point x="119" y="594" type="curve" smooth="yes"/>
      <point x="119" y="155" type="line" smooth="yes"/>
      <point x="119" y="102"/>
      <point x="102" y="62"/>
      <point x="51" y="60" type="curve"/>
      <point x="44" y="60" type="line" smooth="yes"/>
      <point x="35" y="60"/>
      <point x="29" y="54"/>
      <point x="29" y="45" type="curve" smooth="yes"/>
      <point x="29" y="15" type="line" smooth="yes"/>
      <point x="29" y="5"/>
      <point x="35" y="2"/>
      <point x="44" y="2" type="curve" smooth="yes"/>
      <point x="352" y="2" type="line" smooth="yes"/>
      <point x="362" y="2"/>
      <point x="367" y="5"/>
      <point x="367" y="15" type="curve" smooth="yes"/>
      <point x="367" y="45" type="line" smooth="yes"/>
      <point x="367" y="54"/>
      <point x="362" y="60"/>
      <point x="352" y="60" type="curve" smooth="yes"/>
      <point x="346" y="60" type="line"/>
      <point x="295" y="62"/>
      <point x="279" y="102"/>
      <point x="279" y="155" type="curve" smooth="yes"/>
      <point x="279" y="321" type="line"/>
      <point x="353" y="321" type="line" smooth="yes"/>
      <point x="376" y="321"/>
      <point x="398" y="322"/>
      <point x="419" y="324" type="curve"/>
      <point x="510" y="155" type="line" smooth="yes"/>
      <point x="518" y="139"/>
      <point x="523" y="123"/>
      <point x="523" y="108" type="curve" smooth="yes"/>
      <point x="523" y="82"/>
      <point x="507" y="61"/>
      <point x="474" y="60" type="curve"/>
      <point x="467" y="60" type="line" smooth="yes"/>
      <point x="457" y="60"/>
      <point x="452" y="54"/>
      <point x="452" y="45" type="curve" smooth="yes"/>
      <point x="452" y="15" type="line" smooth="yes"/>
      <point x="452" y="5"/>
      <point x="457" y="4"/>
      <point x="467" y="4" type="curve" smooth="yes"/>
      <point x="775" y="4" type="line" smooth="yes"/>
      <point x="784" y="4"/>
      <point x="790" y="5"/>
      <point x="790" y="15" type="curve" smooth="yes"/>
      <point x="790" y="45" type="line" smooth="yes"/>
      <point x="790" y="54"/>
      <point x="784" y="60"/>
      <point x="775" y="60" type="curve" smooth="yes"/>
    </contour>
    <contour>
      <point x="279" y="392" type="line"/>
      <point x="279" y="690" type="line"/>
      <point x="282" y="690" type="line"/>
      <point x="369" y="689" type="line" smooth="yes"/>
      <point x="469" y="689"/>
      <point x="529" y="631"/>
      <point x="529" y="538" type="curve" smooth="yes"/>
      <point x="529" y="448"/>
      <point x="470" y="392"/>
      <point x="337" y="392" type="curve" smooth="yes"/>
    </contour>
  </outline>
</glyph>
<glyph name="S" format="1">
  <advance width="722"/>
  <unicode hex="0053"/>
  <outline>
    <contour>
      <point x="374" y="750" type="move" name="top"/>
    </contour>
    <contour>
      <point x="403" y="0" type="move" name="bottom"/>
    </contour>
    <contour>
      <point x="652" y="531" type="line" smooth="yes"/>
      <point x="660" y="535"/>
      <point x="663" y="540"/>
      <point x="663" y="546" type="curve" smooth="yes"/>
      <point x="663" y="550"/>
      <point x="662" y="554"/>
      <point x="660" y="560" type="curve" smooth="yes"/>
      <point x="589" y="739" type="line" smooth="yes"/>
      <point x="585" y="750"/>
      <point x="577" y="755"/>
      <point x="565" y="755" type="curve" smooth="yes"/>
      <point x="528" y="755" type="line" smooth="yes"/>
      <point x="516" y="755"/>
      <point x="510" y="750"/>
      <point x="510" y="741" type="curve" smooth="yes"/>
      <point x="510" y="738"/>
      <point x="511" y="735"/>
      <point x="512" y="731" type="curve" smooth="yes"/>
      <point x="516" y="716"/>
      <point x="518" y="702"/>
      <point x="510" y="702" type="curve" smooth="yes"/>
      <point x="508" y="702"/>
      <point x="506" y="702"/>
      <point x="504" y="704" type="curve" smooth="yes"/>
      <point x="479" y="718"/>
      <point x="406" y="750"/>
      <point x="332" y="750" type="curve" smooth="yes"/>
      <point x="178" y="750"/>
      <point x="80" y="680"/>
      <point x="80" y="568" type="curve" smooth="yes"/>
      <point x="80" y="490"/>
      <point x="114" y="394"/>
      <point x="344" y="325" type="curve" smooth="yes"/>
      <point x="452" y="293"/>
      <point x="558" y="279"/>
      <point x="558" y="176" type="curve" smooth="yes"/>
      <point x="558" y="116"/>
      <point x="509" y="71"/>
      <point x="422" y="71" type="curve" smooth="yes"/>
      <point x="307" y="71"/>
      <point x="194" y="137"/>
      <point x="103" y="275" type="curve" smooth="yes"/>
      <point x="99" y="283"/>
      <point x="93" y="286"/>
      <point x="86" y="286" type="curve" smooth="yes"/>
      <point x="83" y="286"/>
      <point x="79" y="285"/>
      <point x="74" y="283" type="curve" smooth="yes"/>
      <point x="31" y="257" type="line" smooth="yes"/>
      <point x="23" y="253"/>
      <point x="19" y="247"/>
      <point x="19" y="241" type="curve" smooth="yes"/>
      <point x="19" y="237"/>
      <point x="21" y="233"/>
      <point x="23" y="229" type="curve" smooth="yes"/>
      <point x="144" y="2" type="line" smooth="yes"/>
      <point x="150" y="-7"/>
      <point x="158" y="-12"/>
      <point x="169" y="-12" type="curve" smooth="yes"/>
      <point x="220" y="-12" type="line" smooth="yes"/>
      <point x="231" y="-12"/>
      <point x="236" y="-8"/>
      <point x="236" y="-0" type="curve" smooth="yes"/>
      <point x="236" y="2"/>
      <point x="235" y="6"/>
      <point x="234" y="11" type="curve" smooth="yes"/>
      <point x="230" y="23"/>
      <point x="232" y="32"/>
      <point x="241" y="32" type="curve" smooth="yes"/>
      <point x="244" y="32"/>
      <point x="248" y="30"/>
      <point x="253" y="28" type="curve" smooth="yes"/>
      <point x="302" y="4"/>
      <point x="359" y="-7"/>
      <point x="417" y="-7" type="curve" smooth="yes"/>
      <point x="600" y="-7"/>
      <point x="707" y="89"/>
      <point x="707" y="220" type="curve" smooth="yes"/>
      <point x="707" y="371"/>
      <point x="548" y="422"/>
      <point x="395" y="466" type="curve" smooth="yes"/>
      <point x="319" y="489"/>
      <point x="238" y="521"/>
      <point x="238" y="583" type="curve" smooth="yes"/>
      <point x="238" y="653"/>
      <point x="295" y="669"/>
      <point x="345" y="669" type="curve" smooth="yes"/>
      <point x="413" y="669"/>
      <point x="504" y="627"/>
      <point x="589" y="521" type="curve" smooth="yes"/>
      <point x="595" y="514"/>
      <point x="600" y="510"/>
      <point x="607" y="510" type="curve" smooth="yes"/>
      <point x="610" y="510"/>
      <point x="614" y="511"/>
      <point x="618" y="513" type="curve" smooth="yes"/>
    </contour>
  </outline>
</glyph>
<glyph name="T" format="1">
  <advance width="787"/>
  <unicode hex="0054"/>
  <outline>
    <contour>
      <point x="388" y="375" type="move" name="center"/>
    </contour>
    <contour>
      <point x="388" y="0" type="move" name="bottom"/>
    </contour>
    <contour>
      <point x="388" y="750" type="move" name="top"/>
    </contour>
    <contour>
      <point x="690" y="755" type="line" smooth="yes"/>
      <point x="687" y="760"/>
      <point x="682" y="763"/>
      <point x="677" y="763" type="curve" smooth="yes"/>
      <point x="674" y="763"/>
      <point x="671" y="762"/>
      <point x="669" y="760" type="curve" smooth="yes"/>
      <point x="663" y="755" type="line" smooth="yes"/>
      <point x="657" y="750"/>
      <point x="651" y="750"/>
      <point x="644" y="750" type="curve" smooth="yes"/>
      <point x="133" y="750" type="line" smooth="yes"/>
      <point x="125" y="750"/>
      <point x="119" y="750"/>
      <point x="113" y="755" type="curve" smooth="yes"/>
      <point x="108" y="760" type="line" smooth="yes"/>
      <point x="105" y="762"/>
      <point x="102" y="763"/>
      <point x="99" y="763" type="curve" smooth="yes"/>
      <point x="94" y="763"/>
      <point x="90" y="760"/>
      <point x="87" y="755" type="curve" smooth="yes"/>
      <point x="7" y="609" type="line" smooth="yes"/>
      <point x="5" y="605"/>
      <point x="4" y="603"/>
      <point x="4" y="600" type="curve" smooth="yes"/>
      <point x="4" y="595"/>
      <point x="7" y="591"/>
      <point x="13" y="587" type="curve" smooth="yes"/>
      <point x="55" y="565" type="line" smooth="yes"/>
      <point x="58" y="563"/>
      <point x="61" y="562"/>
      <point x="63" y="562" type="curve" smooth="yes"/>
      <point x="68" y="562"/>
      <point x="72" y="565"/>
      <point x="76" y="571" type="curve" smooth="yes"/>
      <point x="79" y="576" type="line" smooth="yes"/>
      <point x="117" y="641"/>
      <point x="177" y="668"/>
      <point x="258" y="668" type="curve" smooth="yes"/>
      <point x="307" y="668" type="line"/>
      <point x="307" y="155" type="line" smooth="yes"/>
      <point x="307" y="102"/>
      <point x="290" y="62"/>
      <point x="240" y="60" type="curve"/>
      <point x="234" y="60" type="line" smooth="yes"/>
      <point x="224" y="60"/>
      <point x="219" y="54"/>
      <point x="219" y="45" type="curve" smooth="yes"/>
      <point x="219" y="15" type="line" smooth="yes"/>
      <point x="219" y="5"/>
      <point x="224" y="1"/>
      <point x="234" y="1" type="curve" smooth="yes"/>
      <point x="541" y="1" type="line" smooth="yes"/>
      <point x="551" y="1"/>
      <point x="556" y="5"/>
      <point x="556" y="15" type="curve" smooth="yes"/>
      <point x="556" y="45" type="line" smooth="yes"/>
      <point x="556" y="54"/>
      <point x="551" y="60"/>
      <point x="541" y="60" type="curve" smooth="yes"/>
      <point x="534" y="60" type="line"/>
      <point x="483" y="62"/>
      <point x="467" y="102"/>
      <point x="467" y="155" type="curve" smooth="yes"/>
      <point x="467" y="668" type="line"/>
      <point x="518" y="668" type="line" smooth="yes"/>
      <point x="599" y="668"/>
      <point x="660" y="641"/>
      <point x="698" y="576" type="curve" smooth="yes"/>
      <point x="701" y="571" type="line" smooth="yes"/>
      <point x="704" y="565"/>
      <point x="708" y="562"/>
      <point x="713" y="562" type="curve" smooth="yes"/>
      <point x="716" y="562"/>
      <point x="719" y="563"/>
      <point x="722" y="565" type="curve" smooth="yes"/>
      <point x="764" y="587" type="line" smooth="yes"/>
      <point x="769" y="591"/>
      <point x="772" y="595"/>
      <point x="772" y="600" type="curve" smooth="yes"/>
      <point x="772" y="602"/>
      <point x="771" y="605"/>
      <point x="769" y="609" type="curve" smooth="yes"/>
    </contour>
  </outline>
</glyph>
<glyph name="U" format="1">
  <advance width="808"/>
  <unicode hex="0055"/>
  <outline>
    <contour>
      <point x="593" y="10" type="move" name="ogonek"/>
    </contour>
    <contour>
      <point x="435" y="750" type="move" name="top"/>
    </contour>
    <contour>
      <point x="535" y="750" type="line" smooth="yes"/>
      <point x="525" y="750"/>
      <point x="520" y="744"/>
      <point x="520" y="735" type="curve" smooth="yes"/>
      <point x="520" y="704" type="line" smooth="yes"/>
      <point x="520" y="695"/>
      <point x="525" y="689"/>
      <point x="535" y="689" type="curve" smooth="yes"/>
      <point x="540" y="689" type="line"/>
      <point x="591" y="687"/>
      <point x="608" y="647"/>
      <point x="608" y="594" type="curve" smooth="yes"/>
      <point x="608" y="284" type="line" smooth="yes"/>
      <point x="608" y="163"/>
      <point x="567" y="75"/>
      <point x="451" y="75" type="curve" smooth="yes"/>
      <point x="295" y="75"/>
      <point x="274" y="172"/>
      <point x="274" y="284" type="curve" smooth="yes"/>
      <point x="274" y="594" type="line" smooth="yes"/>
      <point x="274" y="647"/>
      <point x="290" y="687"/>
      <point x="341" y="689" type="curve"/>
      <point x="347" y="689" type="line" smooth="yes"/>
      <point x="357" y="689"/>
      <point x="362" y="695"/>
      <point x="362" y="704" type="curve" smooth="yes"/>
      <point x="362" y="735" type="line" smooth="yes"/>
      <point x="362" y="744"/>
      <point x="357" y="750"/>
      <point x="347" y="750" type="curve" smooth="yes"/>
      <point x="40" y="750" type="line" smooth="yes"/>
      <point x="30" y="750"/>
      <point x="25" y="744"/>
      <point x="25" y="735" type="curve" smooth="yes"/>
      <point x="25" y="704" type="line" smooth="yes"/>
      <point x="25" y="695"/>
      <point x="30" y="689"/>
      <point x="40" y="689" type="curve" smooth="yes"/>
      <point x="46" y="689" type="line"/>
      <point x="97" y="687"/>
      <point x="114" y="647"/>
      <point x="114" y="594" type="curve" smooth="yes"/>
      <point x="114" y="264" type="line" smooth="yes"/>
      <point x="114" y="91"/>
      <point x="224" y="-13"/>
      <point x="422" y="-13" type="curve" smooth="yes"/>
      <point x="621" y="-13"/>
      <point x="709" y="91"/>
      <point x="709" y="274" type="curve" smooth="yes"/>
      <point x="709" y="594" type="line" smooth="yes"/>
      <point x="709" y="647"/>
      <point x="725" y="687"/>
      <point x="776" y="689" type="curve"/>
      <point x="783" y="689" type="line" smooth="yes"/>
      <point x="792" y="689"/>
      <point x="798" y="695"/>
      <point x="798" y="704" type="curve" smooth="yes"/>
      <point x="798" y="735" type="line" smooth="yes"/>
      <point x="798" y="744"/>
      <point x="792" y="750"/>
      <point x="783" y="750" type="curve" smooth="yes"/>
    </contour>
  </outline>
</glyph>
<glyph name="V" format="1">
  <advance width="783"/>
  <unicode hex="0056"/>
  <outline>
    <contour>
      <point x="515" y="752" type="line" smooth="yes"/>
      <point x="505" y="752"/>
      <point x="500" y="747"/>
      <point x="500" y="737" type="curve" smooth="yes"/>
      <point x="500" y="707" type="line" smooth="yes"/>
      <point x="500" y="697"/>
      <point x="505" y="692"/>
      <point x="515" y="692" type="curve" smooth="yes"/>
      <point x="556" y="692"/>
      <point x="593" y="663"/>
      <point x="593" y="622" type="curve" smooth="yes"/>
      <point x="593" y="614"/>
      <point x="591" y="606"/>
      <point x="588" y="597" type="curve" smooth="yes"/>
      <point x="427" y="140" type="line"/>
      <point x="254" y="597" type="line" smooth="yes"/>
      <point x="250" y="606"/>
      <point x="249" y="615"/>
      <point x="249" y="623" type="curve" smooth="yes"/>
      <point x="249" y="663"/>
      <point x="286" y="692"/>
      <point x="326" y="692" type="curve" smooth="yes"/>
      <point x="336" y="692"/>
      <point x="341" y="697"/>
      <point x="341" y="707" type="curve" smooth="yes"/>
      <point x="341" y="737" type="line" smooth="yes"/>
      <point x="341" y="747"/>
      <point x="336" y="752"/>
      <point x="326" y="752" type="curve" smooth="yes"/>
      <point x="20" y="752" type="line" smooth="yes"/>
      <point x="10" y="752"/>
      <point x="5" y="747"/>
      <point x="5" y="737" type="curve" smooth="yes"/>
      <point x="5" y="707" type="line" smooth="yes"/>
      <point x="5" y="697"/>
      <point x="10" y="692"/>
      <point x="20" y="692" type="curve" smooth="yes"/>
      <point x="61" y="692"/>
      <point x="73" y="648"/>
      <point x="93" y="597" type="curve" smooth="yes"/>
      <point x="319" y="11" type="line" smooth="yes"/>
      <point x="322" y="3"/>
      <point x="327" y="-5"/>
      <point x="336" y="-5" type="curve" smooth="yes"/>
      <point x="456" y="-5" type="line" smooth="yes"/>
      <point x="465" y="-5"/>
      <point x="470" y="3"/>
      <point x="473" y="12" type="curve" smooth="yes"/>
      <point x="689" y="597" type="line" smooth="yes"/>
      <point x="708" y="649"/>
      <point x="720" y="692"/>
      <point x="763" y="692" type="curve" smooth="yes"/>
      <point x="773" y="692"/>
      <point x="778" y="697"/>
      <point x="778" y="707" type="curve" smooth="yes"/>
      <point x="778" y="737" type="line" smooth="yes"/>
      <point x="778" y="747"/>
      <point x="773" y="752"/>
      <point x="763" y="752" type="curve" smooth="yes"/>
    </contour>
  </outline>
</glyph>
<glyph name="X" format="1">
  <advance width="853"/>
  <unicode hex="0058"/>
  <outline>
    <contour>
      <point x="823" y="66" type="line" smooth="yes"/>
      <point x="795" y="66"/>
      <point x="764" y="89"/>
      <point x="725" y="137" type="curve" smooth="yes"/>
      <point x="511" y="399" type="line"/>
      <point x="681" y="613" type="line" smooth="yes"/>
      <point x="719" y="662"/>
      <point x="734" y="683"/>
      <point x="780" y="683" type="curve" smooth="yes"/>
      <point x="796" y="683" type="line" smooth="yes"/>
      <point x="807" y="683"/>
      <point x="813" y="689"/>
      <point x="813" y="700" type="curve" smooth="yes"/>
      <point x="813" y="733" type="line" smooth="yes"/>
      <point x="813" y="744"/>
      <point x="807" y="750"/>
      <point x="796" y="750" type="curve" smooth="yes"/>
      <point x="560" y="750" type="line" smooth="yes"/>
      <point x="549" y="750"/>
      <point x="544" y="744"/>
      <point x="544" y="733" type="curve" smooth="yes"/>
      <point x="544" y="700" type="line" smooth="yes"/>
      <point x="544" y="689"/>
      <point x="549" y="683"/>
      <point x="560" y="683" type="curve" smooth="yes"/>
      <point x="571" y="683" type="line" smooth="yes"/>
      <point x="590" y="683"/>
      <point x="599" y="678"/>
      <point x="599" y="669" type="curve" smooth="yes"/>
      <point x="599" y="658"/>
      <point x="586" y="639"/>
      <point x="565" y="612" type="curve" smooth="yes"/>
      <point x="453" y="470" type="line"/>
      <point x="322" y="630" type="line" smooth="yes"/>
      <point x="309" y="646"/>
      <point x="302" y="658"/>
      <point x="302" y="666" type="curve" smooth="yes"/>
      <point x="302" y="677"/>
      <point x="316" y="682"/>
      <point x="343" y="682" type="curve" smooth="yes"/>
      <point x="345" y="682" type="line" smooth="yes"/>
      <point x="356" y="682"/>
      <point x="362" y="688"/>
      <point x="362" y="699" type="curve" smooth="yes"/>
      <point x="362" y="733" type="line" smooth="yes"/>
      <point x="362" y="744"/>
      <point x="356" y="750"/>
      <point x="345" y="750" type="curve" smooth="yes"/>
      <point x="54" y="750" type="line" smooth="yes"/>
      <point x="43" y="750"/>
      <point x="37" y="744"/>
      <point x="37" y="733" type="curve" smooth="yes"/>
      <point x="37" y="699" type="line" smooth="yes"/>
      <point x="37" y="688"/>
      <point x="43" y="682"/>
      <point x="54" y="682" type="curve" smooth="yes"/>
      <point x="57" y="682" type="line" smooth="yes"/>
      <point x="85" y="682"/>
      <point x="117" y="659"/>
      <point x="155" y="612" type="curve" smooth="yes"/>
      <point x="332" y="396" type="line"/>
      <point x="130" y="137" type="line" smooth="yes"/>
      <point x="92" y="87"/>
      <point x="77" y="67"/>
      <point x="31" y="67" type="curve" smooth="yes"/>
      <point x="18" y="67" type="line"/>
      <point x="18" y="65" type="line"/>
      <point x="12" y="62"/>
      <point x="10" y="57"/>
      <point x="10" y="50" type="curve" smooth="yes"/>
      <point x="10" y="16" type="line" smooth="yes"/>
      <point x="10" y="8"/>
      <point x="12" y="3"/>
      <point x="18" y="1" type="curve"/>
      <point x="18" y="-0" type="line"/>
      <point x="262" y="-0" type="line" smooth="yes"/>
      <point x="273" y="-0"/>
      <point x="278" y="5"/>
      <point x="278" y="16" type="curve" smooth="yes"/>
      <point x="278" y="50" type="line" smooth="yes"/>
      <point x="278" y="61"/>
      <point x="273" y="67"/>
      <point x="262" y="67" type="curve" smooth="yes"/>
      <point x="240" y="67" type="line" smooth="yes"/>
      <point x="221" y="67"/>
      <point x="212" y="71"/>
      <point x="212" y="80" type="curve" smooth="yes"/>
      <point x="212" y="92"/>
      <point x="225" y="110"/>
      <point x="246" y="137" type="curve" smooth="yes"/>
      <point x="391" y="325" type="line"/>
      <point x="557" y="123" type="line" smooth="yes"/>
      <point x="568" y="109"/>
      <point x="573" y="98"/>
      <point x="573" y="90" type="curve" smooth="yes"/>
      <point x="573" y="71"/>
      <point x="546" y="66"/>
      <point x="532" y="66" type="curve" smooth="yes"/>
      <point x="529" y="66" type="line" smooth="yes"/>
      <point x="519" y="66"/>
      <point x="513" y="60"/>
      <point x="513" y="50" type="curve" smooth="yes"/>
      <point x="513" y="16" type="line" smooth="yes"/>
      <point x="513" y="5"/>
      <point x="519" y="-0"/>
      <point x="530" y="-0" type="curve" smooth="yes"/>
      <point x="826" y="-0" type="line" smooth="yes"/>
      <point x="837" y="-0"/>
      <point x="843" y="5"/>
      <point x="843" y="16" type="curve" smooth="yes"/>
      <point x="843" y="50" type="line" smooth="yes"/>
      <point x="843" y="61"/>
      <point x="837" y="66"/>
      <point x="826" y="66" type="curve" smooth="yes"/>
    </contour>
  </outline>
</glyph>
<glyph name="backslash" format="1">
  <advance width="499"/>
  <unicode hex="005C"/>
  <outline>
    <contour>
      <point x="458" y="-119" type="line" smooth="yes"/>
      <point x="462" y="-130"/>
      <point x="457" y="-136"/>
      <point x="446" y="-136" type="curve" smooth="yes"/>
      <point x="365" y="-136" type="line" smooth="yes"/>
      <point x="356" y="-136"/>
      <point x="351" y="-133"/>
      <point x="347" y="-124" type="curve" smooth="yes"/>
      <point x="28" y="765" type="line" smooth="yes"/>
      <point x="24" y="775"/>
      <point x="29" y="782"/>
      <point x="40" y="782" type="curve" smooth="yes"/>
      <point x="121" y="782" type="line" smooth="yes"/>
      <point x="130" y="782"/>
      <point x="135" y="778"/>
      <point x="138" y="770" type="curve" smooth="yes"/>
    </contour>
  </outline>
</glyph>
<glyph name="asciicircum" format="1">
  <advance width="600"/>
  <unicode hex="005E"/>
  <outline>
    <contour>
      <point x="288" y="763" type="line" smooth="yes"/>
      <point x="291" y="769"/>
      <point x="294" y="772"/>
      <point x="298" y="772" type="curve" smooth="yes"/>
      <point x="302" y="772"/>
      <point x="306" y="769"/>
      <point x="308" y="764" type="curve" smooth="yes"/>
      <point x="576" y="233" type="line" smooth="yes"/>
      <point x="578" y="230"/>
      <point x="578" y="227"/>
      <point x="578" y="225" type="curve" smooth="yes"/>
      <point x="578" y="219"/>
      <point x="574" y="215"/>
      <point x="565" y="215" type="curve" smooth="yes"/>
      <point x="497" y="215" type="line" smooth="yes"/>
      <point x="488" y="215"/>
      <point x="483" y="219"/>
      <point x="479" y="226" type="curve" smooth="yes"/>
      <point x="298" y="584" type="line"/>
      <point x="117" y="226" type="line" smooth="yes"/>
      <point x="113" y="219"/>
      <point x="108" y="215"/>
      <point x="100" y="215" type="curve" smooth="yes"/>
      <point x="31" y="215" type="line" smooth="yes"/>
      <point x="22" y="215"/>
      <point x="18" y="219"/>
      <point x="18" y="225" type="curve" smooth="yes"/>
      <point x="18" y="227"/>
      <point x="18" y="230"/>
      <point x="20" y="233" type="curve" smooth="yes"/>
    </contour>
  </outline>
</glyph>
<glyph name="b" format="1">
  <advance width="608"/>
  <unicode hex="0062"/>
  <outline>
    <contour>
      <point x="75" y="215" type="line" smooth="yes"/>
      <point x="75" y="50"/>
      <point x="183" y="-12"/>
      <point x="316" y="-12" type="curve" smooth="yes"/>
      <point x="478" y="-12"/>
      <point x="578" y="95"/>
      <point x="578" y="249" type="curve" smooth="yes"/>
      <point x="578" y="442"/>
      <point x="443" y="513"/>
      <point x="336" y="513" type="curve" smooth="yes"/>
      <point x="279" y="513"/>
      <point x="232" y="490"/>
      <point x="215" y="464" type="curve"/>
      <point x="215" y="798" type="line" smooth="yes"/>
      <point x="215" y="799"/>
      <point x="215" y="800"/>
      <point x="214" y="800" type="curve" smooth="yes"/>
      <point x="211" y="800" type="line" smooth="yes"/>
      <point x="210" y="799"/>
      <point x="208" y="798"/>
      <point x="207" y="797" type="curve" smooth="yes"/>
      <point x="180" y="778"/>
      <point x="124" y="740"/>
      <point x="19" y="705" type="curve" smooth="yes"/>
      <point x="10" y="701"/>
      <point x="5" y="700"/>
      <point x="5" y="691" type="curve" smooth="yes"/>
      <point x="5" y="657" type="line" smooth="yes"/>
      <point x="4" y="651"/>
      <point x="6" y="646"/>
      <point x="16" y="645" type="curve" smooth="yes"/>
      <point x="71" y="639"/>
      <point x="75" y="583"/>
      <point x="75" y="530" type="curve" smooth="yes"/>
    </contour>
    <contour>
      <point x="215" y="399" type="line"/>
      <point x="239" y="416"/>
      <point x="265" y="424"/>
      <point x="291" y="424" type="curve" smooth="yes"/>
      <point x="393" y="424"/>
      <point x="449" y="344"/>
      <point x="449" y="216" type="curve" smooth="yes"/>
      <point x="449" y="134"/>
      <point x="423" y="52"/>
      <point x="326" y="52" type="curve" smooth="yes"/>
      <point x="269" y="52"/>
      <point x="215" y="95"/>
      <point x="215" y="194" type="curve" smooth="yes"/>
    </contour>
  </outline>
</glyph>
<glyph name="d" format="1">
  <advance width="618"/>
  <unicode hex="0064"/>
  <outline>
    <contour>
      <point x="317" y="250" type="move" name="center"/>
    </contour>
    <contour>
      <point x="532" y="798" type="line" smooth="yes"/>
      <point x="532" y="799"/>
      <point x="532" y="800"/>
      <point x="531" y="800" type="curve" smooth="yes"/>
      <point x="529" y="799" type="line" smooth="yes"/>
      <point x="527" y="799"/>
      <point x="526" y="798"/>
      <point x="524" y="797" type="curve" smooth="yes"/>
      <point x="497" y="778"/>
      <point x="442" y="740"/>
      <point x="336" y="705" type="curve" smooth="yes"/>
      <point x="327" y="701"/>
      <point x="322" y="700"/>
      <point x="322" y="691" type="curve" smooth="yes"/>
      <point x="322" y="657" type="line" smooth="yes"/>
      <point x="322" y="651"/>
      <point x="324" y="646"/>
      <point x="334" y="645" type="curve" smooth="yes"/>
      <point x="389" y="639"/>
      <point x="393" y="583"/>
      <point x="393" y="530" type="curve" smooth="yes"/>
      <point x="393" y="466" type="line"/>
      <point x="358" y="496"/>
      <point x="313" y="512"/>
      <point x="263" y="512" type="curve" smooth="yes"/>
      <point x="142" y="512"/>
      <point x="30" y="436"/>
      <point x="30" y="250" type="curve" smooth="yes"/>
      <point x="30" y="57"/>
      <point x="161" y="-13"/>
      <point x="251" y="-13" type="curve" smooth="yes"/>
      <point x="354" y="-13"/>
      <point x="393" y="52"/>
      <point x="404" y="79" type="curve"/>
      <point x="392" y="-10" type="line" smooth="yes"/>
      <point x="392" y="-12"/>
      <point x="392" y="-13"/>
      <point x="394" y="-13" type="curve" smooth="yes"/>
      <point x="396" y="-13" type="line" smooth="yes"/>
      <point x="399" y="-13"/>
      <point x="403" y="-12"/>
      <point x="405" y="-11" type="curve" smooth="yes"/>
      <point x="449" y="8"/>
      <point x="490" y="27"/>
      <point x="589" y="27" type="curve" smooth="yes"/>
      <point x="599" y="27"/>
      <point x="603" y="32"/>
      <point x="603" y="40" type="curve" smooth="yes"/>
      <point x="603" y="74" type="line" smooth="yes"/>
      <point x="603" y="81"/>
      <point x="601" y="86"/>
      <point x="591" y="87" type="curve" smooth="yes"/>
      <point x="542" y="92"/>
      <point x="534" y="137"/>
      <point x="532" y="185" type="curve" smooth="yes"/>
    </contour>
    <contour>
      <point x="393" y="159" type="line"/>
      <point x="393" y="159"/>
      <point x="371" y="75"/>
      <point x="296" y="75" type="curve" smooth="yes"/>
      <point x="214" y="75"/>
      <point x="158" y="155"/>
      <point x="158" y="283" type="curve" smooth="yes"/>
      <point x="158" y="365"/>
      <point x="184" y="436"/>
      <point x="281" y="436" type="curve" smooth="yes"/>
      <point x="348" y="436"/>
      <point x="385" y="385"/>
      <point x="393" y="323" type="curve"/>
      <point x="393" y="270" type="line"/>
    </contour>
  </outline>
</glyph>
<glyph name="g" format="1">
  <advance width="522"/>
  <unicode hex="0067"/>
  <outline>
    <contour>
      <point x="261" y="500" type="move" name="top"/>
    </contour>
    <contour>
      <point x="432" y="513" type="line" smooth="yes"/>
      <point x="424" y="511"/>
      <point x="421" y="506"/>
      <point x="421" y="498" type="curve" smooth="yes"/>
      <point x="421" y="495" type="line" smooth="yes"/>
      <point x="423" y="476"/>
      <point x="413" y="470"/>
      <point x="404" y="470" type="curve" smooth="yes"/>
      <point x="400" y="470"/>
      <point x="397" y="471"/>
      <point x="394" y="472" type="curve" smooth="yes"/>
      <point x="390" y="474" type="line"/>
      <point x="354" y="497"/>
      <point x="307" y="512"/>
      <point x="251" y="512" type="curve" smooth="yes"/>
      <point x="115" y="512"/>
      <point x="32" y="426"/>
      <point x="32" y="320" type="curve" smooth="yes"/>
      <point x="32" y="267"/>
      <point x="53" y="219"/>
      <point x="91" y="185" type="curve"/>
      <point x="55" y="169"/>
      <point x="29" y="136"/>
      <point x="29" y="92" type="curve" smooth="yes"/>
      <point x="29" y="54"/>
      <point x="45" y="23"/>
      <point x="80" y="1" type="curve"/>
      <point x="45" y="-18"/>
      <point x="19" y="-48"/>
      <point x="19" y="-93" type="curve" smooth="yes"/>
      <point x="19" y="-177"/>
      <point x="124" y="-215"/>
      <point x="246" y="-215" type="curve" smooth="yes"/>
      <point x="366" y="-215"/>
      <point x="496" y="-176"/>
      <point x="496" y="-67" type="curve" smooth="yes"/>
      <point x="496" y="52"/>
      <point x="380" y="75"/>
      <point x="263" y="81" type="curve" smooth="yes"/>
      <point x="141" y="87"/>
      <point x="118" y="102"/>
      <point x="118" y="133" type="curve" smooth="yes"/>
      <point x="118" y="143"/>
      <point x="123" y="151"/>
      <point x="130" y="157" type="curve"/>
      <point x="164" y="139"/>
      <point x="204" y="129"/>
      <point x="251" y="129" type="curve" smooth="yes"/>
      <point x="389" y="129"/>
      <point x="472" y="215"/>
      <point x="472" y="320" type="curve" smooth="yes"/>
      <point x="472" y="354"/>
      <point x="463" y="385"/>
      <point x="448" y="413" type="curve"/>
      <point x="492" y="413"/>
      <point x="524" y="451"/>
      <point x="519" y="516" type="curve" smooth="yes"/>
      <point x="518" y="525"/>
      <point x="513" y="530"/>
      <point x="506" y="530" type="curve" smooth="yes"/>
      <point x="501" y="530" type="line" smooth="yes"/>
    </contour>
    <contour>
      <point x="342" y="320" type="curve" smooth="yes"/>
      <point x="342" y="262"/>
      <point x="328" y="188"/>
      <point x="251" y="188" type="curve" smooth="yes"/>
      <point x="176" y="188"/>
      <point x="154" y="263"/>
      <point x="154" y="320" type="curve" smooth="yes"/>
      <point x="154" y="378"/>
      <point x="176" y="453"/>
      <point x="251" y="453" type="curve" smooth="yes"/>
      <point x="328" y="453"/>
      <point x="342" y="378"/>
    </contour>
    <contour>
      <point x="119" y="-79" type="curve" smooth="yes"/>
      <point x="119" y="-56"/>
      <point x="129" y="-39"/>
      <point x="147" y="-25" type="curve"/>
      <point x="174" y="-31"/>
      <point x="205" y="-36"/>
      <point x="241" y="-38" type="curve" smooth="yes"/>
      <point x="341" y="-43"/>
      <point x="400" y="-52"/>
      <point x="400" y="-95" type="curve" smooth="yes"/>
      <point x="400" y="-126"/>
      <point x="346" y="-146"/>
      <point x="247" y="-146" type="curve" smooth="yes"/>
      <point x="147" y="-146"/>
      <point x="119" y="-110"/>
    </contour>
  </outline>
</glyph>
<glyph name="i" format="1">
  <advance width="349"/>
  <unicode hex="0069"/>
  <outline>
    <contour>
      <point x="173" y="500" type="move" name="top"/>
    </contour>
    <contour>
      <point x="223" y="614" type="curve" smooth="yes"/>
      <point x="241" y="632"/>
      <point x="248" y="646"/>
      <point x="248" y="664" type="curve" smooth="yes"/>
      <point x="248" y="682"/>
      <point x="241" y="697"/>
      <point x="223" y="714" type="curve" smooth="yes"/>
      <point x="206" y="732"/>
      <point x="191" y="739"/>
      <point x="173" y="739" type="curve" smooth="yes"/>
      <point x="155" y="739"/>
      <point x="141" y="732"/>
      <point x="123" y="714" type="curve" smooth="yes"/>
      <point x="105" y="697"/>
      <point x="98" y="682"/>
      <point x="98" y="664" type="curve" smooth="yes"/>
      <point x="98" y="646"/>
      <point x="105" y="632"/>
      <point x="123" y="614" type="curve" smooth="yes"/>
      <point x="141" y="596"/>
      <point x="155" y="589"/>
      <point x="173" y="589" type="curve" smooth="yes"/>
      <point x="191" y="589"/>
      <point x="206" y="596"/>
    </contour>
    <contour>
      <point x="317" y="52" type="line" smooth="yes"/>
      <point x="268" y="52"/>
      <point x="243" y="92"/>
      <point x="243" y="147" type="curve" smooth="yes"/>
      <point x="243" y="521" type="line" smooth="yes"/>
      <point x="242" y="523"/>
      <point x="242" y="523"/>
      <point x="241" y="523" type="curve" smooth="yes"/>
      <point x="239" y="523" type="line" smooth="yes"/>
      <point x="237" y="523"/>
      <point x="235" y="522"/>
      <point x="234" y="520" type="curve" smooth="yes"/>
      <point x="207" y="492"/>
      <point x="156" y="454"/>
      <point x="50" y="419" type="curve" smooth="yes"/>
      <point x="41" y="416"/>
      <point x="36" y="414"/>
      <point x="36" y="406" type="curve" smooth="yes"/>
      <point x="36" y="372" type="line" smooth="yes"/>
      <point x="36" y="365"/>
      <point x="38" y="360"/>
      <point x="48" y="359" type="curve" smooth="yes"/>
      <point x="103" y="353"/>
      <point x="107" y="297"/>
      <point x="107" y="253" type="curve" smooth="yes"/>
      <point x="107" y="147" type="line" smooth="yes"/>
      <point x="108" y="92"/>
      <point x="83" y="52"/>
      <point x="34" y="52" type="curve" smooth="yes"/>
      <point x="33" y="52" type="line" smooth="yes"/>
      <point x="23" y="52"/>
      <point x="18" y="46"/>
      <point x="18" y="37" type="curve" smooth="yes"/>
      <point x="18" y="7" type="line" smooth="yes"/>
      <point x="18" y="-3"/>
      <point x="25" y="1"/>
      <point x="35" y="1" type="curve" smooth="yes"/>
      <point x="317" y="1" type="line" smooth="yes"/>
      <point x="327" y="1"/>
      <point x="334" y="-3"/>
      <point x="334" y="7" type="curve" smooth="yes"/>
      <point x="334" y="37" type="line" smooth="yes"/>
      <point x="334" y="46"/>
      <point x="329" y="52"/>
      <point x="319" y="52" type="curve" smooth="yes"/>
    </contour>
  </outline>
</glyph>
<glyph name="j" format="1">
  <advance width="302"/>
  <unicode hex="006A"/>
  <outline>
    <contour>
      <point x="227" y="614" type="curve" smooth="yes"/>
      <point x="245" y="632"/>
      <point x="252" y="646"/>
      <point x="252" y="664" type="curve" smooth="yes"/>
      <point x="252" y="682"/>
      <point x="245" y="697"/>
      <point x="227" y="714" type="curve" smooth="yes"/>
      <point x="210" y="732"/>
      <point x="195" y="739"/>
      <point x="177" y="739" type="curve" smooth="yes"/>
      <point x="159" y="739"/>
      <point x="145" y="732"/>
      <point x="127" y="714" type="curve" smooth="yes"/>
      <point x="109" y="697"/>
      <point x="102" y="682"/>
      <point x="102" y="664" type="curve" smooth="yes"/>
      <point x="102" y="646"/>
      <point x="109" y="632"/>
      <point x="127" y="614" type="curve" smooth="yes"/>
      <point x="145" y="596"/>
      <point x="159" y="589"/>
      <point x="177" y="589" type="curve" smooth="yes"/>
      <point x="195" y="589"/>
      <point x="210" y="596"/>
    </contour>
    <contour>
      <point x="245" y="531" type="line" smooth="yes"/>
      <point x="243" y="531"/>
      <point x="241" y="530"/>
      <point x="240" y="528" type="curve" smooth="yes"/>
      <point x="213" y="500"/>
      <point x="158" y="462"/>
      <point x="52" y="427" type="curve" smooth="yes"/>
      <point x="43" y="424"/>
      <point x="38" y="422"/>
      <point x="38" y="414" type="curve" smooth="yes"/>
      <point x="38" y="380" type="line" smooth="yes"/>
      <point x="38" y="373"/>
      <point x="40" y="368"/>
      <point x="50" y="367" type="curve" smooth="yes"/>
      <point x="105" y="361"/>
      <point x="109" y="305"/>
      <point x="109" y="261" type="curve" smooth="yes"/>
      <point x="109" y="30" type="line"/>
      <point x="109" y="-5" type="line" smooth="yes"/>
      <point x="109" y="-87"/>
      <point x="106" y="-158"/>
      <point x="46" y="-158" type="curve" smooth="yes"/>
      <point x="-9" y="-158"/>
      <point x="-23" y="-105"/>
      <point x="-23" y="-56" type="curve" smooth="yes"/>
      <point x="-23" y="-46"/>
      <point x="-28" y="-41"/>
      <point x="-34" y="-41" type="curve" smooth="yes"/>
      <point x="-36" y="-41"/>
      <point x="-38" y="-42"/>
      <point x="-41" y="-44" type="curve" smooth="yes"/>
      <point x="-112" y="-95" type="line" smooth="yes"/>
      <point x="-120" y="-101"/>
      <point x="-123" y="-109"/>
      <point x="-123" y="-116" type="curve" smooth="yes"/>
      <point x="-123" y="-135"/>
      <point x="-84" y="-214"/>
      <point x="39" y="-214" type="curve" smooth="yes"/>
      <point x="214" y="-214"/>
      <point x="249" y="-62"/>
      <point x="249" y="62" type="curve" smooth="yes"/>
      <point x="249" y="529" type="line" smooth="yes"/>
      <point x="248" y="531"/>
      <point x="248" y="531"/>
      <point x="247" y="531" type="curve" smooth="yes"/>
    </contour>
  </outline>
</glyph>
<glyph name="q" format="1">
  <advance width="624"/>
  <unicode hex="0071"/>
  <outline>
    <contour>
      <point x="532" y="-45" type="curve" smooth="yes"/>
      <point x="532" y="143" type="line"/>
      <point x="532" y="512" type="line" smooth="yes"/>
      <point x="532" y="514"/>
      <point x="532" y="514"/>
      <point x="531" y="514" type="curve" smooth="yes"/>
      <point x="529" y="514" type="line" smooth="yes"/>
      <point x="527" y="514"/>
      <point x="526" y="513"/>
      <point x="524" y="512" type="curve" smooth="yes"/>
      <point x="504" y="497"/>
      <point x="481" y="478"/>
      <point x="424" y="454" type="curve"/>
      <point x="383" y="491"/>
      <point x="328" y="510"/>
      <point x="263" y="510" type="curve" smooth="yes"/>
      <point x="142" y="510"/>
      <point x="30" y="436"/>
      <point x="30" y="250" type="curve" smooth="yes"/>
      <point x="30" y="57"/>
      <point x="161" y="-13"/>
      <point x="251" y="-13" type="curve" smooth="yes"/>
      <point x="332" y="-13"/>
      <point x="374" y="27"/>
      <point x="393" y="58" type="curve"/>
      <point x="393" y="-7" type="line"/>
      <point x="393" y="-45" type="line" smooth="yes"/>
      <point x="393" y="-99"/>
      <point x="368" y="-140"/>
      <point x="319" y="-140" type="curve" smooth="yes"/>
      <point x="317" y="-140" type="line" smooth="yes"/>
      <point x="308" y="-140"/>
      <point x="303" y="-145"/>
      <point x="303" y="-155" type="curve" smooth="yes"/>
      <point x="303" y="-185" type="line" smooth="yes"/>
      <point x="303" y="-195"/>
      <point x="308" y="-200"/>
      <point x="318" y="-200" type="curve" smooth="yes"/>
      <point x="604" y="-200" type="line" smooth="yes"/>
      <point x="614" y="-200"/>
      <point x="619" y="-195"/>
      <point x="619" y="-185" type="curve" smooth="yes"/>
      <point x="619" y="-155" type="line" smooth="yes"/>
      <point x="619" y="-145"/>
      <point x="614" y="-140"/>
      <point x="604" y="-140" type="curve" smooth="yes"/>
      <point x="555" y="-140"/>
      <point x="532" y="-99"/>
    </contour>
    <contour>
      <point x="393" y="141" type="line"/>
      <point x="393" y="141"/>
      <point x="371" y="75"/>
      <point x="296" y="75" type="curve" smooth="yes"/>
      <point x="214" y="75"/>
      <point x="158" y="155"/>
      <point x="158" y="283" type="curve" smooth="yes"/>
      <point x="158" y="365"/>
      <point x="184" y="446"/>
      <point x="281" y="446" type="curve" smooth="yes"/>
      <point x="380" y="446"/>
      <point x="393" y="328"/>
      <point x="393" y="268" type="curve" smooth="yes"/>
      <point x="393" y="270" type="line"/>
    </contour>
  </outline>
</glyph>
<glyph name="v" format="1">
  <advance width="599"/>
  <unicode hex="0076"/>
  <outline>
    <contour>
      <point x="395" y="500" type="line" smooth="yes"/>
      <point x="385" y="500"/>
      <point x="380" y="495"/>
      <point x="380" y="485" type="curve" smooth="yes"/>
      <point x="380" y="455" type="line" smooth="yes"/>
      <point x="380" y="445"/>
      <point x="385" y="440"/>
      <point x="395" y="440" type="curve" smooth="yes"/>
      <point x="415" y="440" type="line" smooth="yes"/>
      <point x="431" y="440"/>
      <point x="437" y="432"/>
      <point x="437" y="419" type="curve" smooth="yes"/>
      <point x="437" y="401"/>
      <point x="425" y="374"/>
      <point x="413" y="345" type="curve" smooth="yes"/>
      <point x="328" y="150" type="line"/>
      <point x="236" y="345" type="line" smooth="yes"/>
      <point x="225" y="369"/>
      <point x="216" y="393"/>
      <point x="216" y="410" type="curve" smooth="yes"/>
      <point x="216" y="428"/>
      <point x="225" y="440"/>
      <point x="250" y="440" type="curve" smooth="yes"/>
      <point x="252" y="440" type="line" smooth="yes"/>
      <point x="261" y="440"/>
      <point x="266" y="445"/>
      <point x="266" y="455" type="curve" smooth="yes"/>
      <point x="266" y="485" type="line" smooth="yes"/>
      <point x="266" y="495"/>
      <point x="261" y="500"/>
      <point x="251" y="500" type="curve" smooth="yes"/>
      <point x="21" y="500" type="line" smooth="yes"/>
      <point x="11" y="500"/>
      <point x="6" y="495"/>
      <point x="6" y="485" type="curve" smooth="yes"/>
      <point x="6" y="455" type="line" smooth="yes"/>
      <point x="6" y="445"/>
      <point x="11" y="440"/>
      <point x="21" y="440" type="curve" smooth="yes"/>
      <point x="23" y="440" type="line" smooth="yes"/>
      <point x="48" y="440"/>
      <point x="58" y="426"/>
      <point x="81" y="377" type="curve" smooth="yes"/>
      <point x="249" y="11" type="line" smooth="yes"/>
      <point x="252" y="3"/>
      <point x="258" y="1"/>
      <point x="266" y="1" type="curve" smooth="yes"/>
      <point x="319" y="1" type="line" smooth="yes"/>
      <point x="328" y="1"/>
      <point x="333" y="3"/>
      <point x="337" y="11" type="curve" smooth="yes"/>
      <point x="505" y="377" type="line" smooth="yes"/>
      <point x="528" y="427"/>
      <point x="543" y="440"/>
      <point x="564" y="440" type="curve" smooth="yes"/>
      <point x="578" y="440" type="line" smooth="yes"/>
      <point x="588" y="440"/>
      <point x="593" y="445"/>
      <point x="593" y="455" type="curve" smooth="yes"/>
      <point x="593" y="485" type="line" smooth="yes"/>
      <point x="593" y="495"/>
      <point x="588" y="500"/>
      <point x="578" y="500" type="curve" smooth="yes"/>
    </contour>
  </outline>
</glyph>
<glyph name="w" format="1">
  <advance width="931"/>
  <unicode hex="0077"/>
  <outline>
    <contour>
      <point x="466" y="500" type="move" name="top"/>
    </contour>
    <contour>
      <point x="727" y="500" type="line" smooth="yes"/>
      <point x="717" y="500"/>
      <point x="712" y="495"/>
      <point x="712" y="485" type="curve" smooth="yes"/>
      <point x="712" y="455" type="line" smooth="yes"/>
      <point x="712" y="445"/>
      <point x="717" y="440"/>
      <point x="727" y="440" type="curve" smooth="yes"/>
      <point x="746" y="440" type="line" smooth="yes"/>
      <point x="760" y="440"/>
      <point x="768" y="434"/>
      <point x="768" y="418" type="curve" smooth="yes"/>
      <point x="768" y="407"/>
      <point x="763" y="392"/>
      <point x="755" y="370" type="curve" smooth="yes"/>
      <point x="668" y="157" type="line"/>
      <point x="588" y="345" type="line"/>
      <point x="576" y="369"/>
      <point x="568" y="393"/>
      <point x="568" y="410" type="curve" smooth="yes"/>
      <point x="568" y="428"/>
      <point x="577" y="440"/>
      <point x="601" y="440" type="curve" smooth="yes"/>
      <point x="613" y="440" type="line" smooth="yes"/>
      <point x="623" y="440"/>
      <point x="628" y="445"/>
      <point x="628" y="455" type="curve" smooth="yes"/>
      <point x="628" y="485" type="line" smooth="yes"/>
      <point x="628" y="495"/>
      <point x="623" y="500"/>
      <point x="613" y="500" type="curve" smooth="yes"/>
      <point x="373" y="500" type="line" smooth="yes"/>
      <point x="364" y="499"/>
      <point x="360" y="494"/>
      <point x="360" y="485" type="curve" smooth="yes"/>
      <point x="360" y="455" type="line" smooth="yes"/>
      <point x="360" y="446"/>
      <point x="364" y="441"/>
      <point x="373" y="440" type="curve" smooth="yes"/>
      <point x="395" y="440" type="line" smooth="yes"/>
      <point x="408" y="440"/>
      <point x="416" y="434"/>
      <point x="416" y="418" type="curve" smooth="yes"/>
      <point x="416" y="407"/>
      <point x="412" y="392"/>
      <point x="403" y="370" type="curve" smooth="yes"/>
      <point x="316" y="157" type="line"/>
      <point x="236" y="345" type="line" smooth="yes"/>
      <point x="225" y="369"/>
      <point x="216" y="393"/>
      <point x="216" y="410" type="curve" smooth="yes"/>
      <point x="216" y="428"/>
      <point x="225" y="440"/>
      <point x="250" y="440" type="curve" smooth="yes"/>
      <point x="252" y="440" type="line" smooth="yes"/>
      <point x="261" y="440"/>
      <point x="266" y="445"/>
      <point x="266" y="455" type="curve" smooth="yes"/>
      <point x="266" y="485" type="line" smooth="yes"/>
      <point x="266" y="495"/>
      <point x="261" y="500"/>
      <point x="251" y="500" type="curve" smooth="yes"/>
      <point x="21" y="500" type="line" smooth="yes"/>
      <point x="11" y="500"/>
      <point x="6" y="495"/>
      <point x="6" y="485" type="curve" smooth="yes"/>
      <point x="6" y="455" type="line" smooth="yes"/>
      <point x="6" y="445"/>
      <point x="11" y="440"/>
      <point x="21" y="440" type="curve" smooth="yes"/>
      <point x="23" y="440" type="line" smooth="yes"/>
      <point x="48" y="440"/>
      <point x="59" y="427"/>
      <point x="81" y="377" type="curve" smooth="yes"/>
      <point x="239" y="11" type="line" smooth="yes"/>
      <point x="242" y="3"/>
      <point x="248" y="-9"/>
      <point x="256" y="-9" type="curve" smooth="yes"/>
      <point x="309" y="-9" type="line" smooth="yes"/>
      <point x="318" y="-9"/>
      <point x="323" y="3"/>
      <point x="327" y="11" type="curve" smooth="yes"/>
      <point x="459" y="316" type="line"/>
      <point x="591" y="11" type="line" smooth="yes"/>
      <point x="594" y="3"/>
      <point x="600" y="-9"/>
      <point x="608" y="-9" type="curve" smooth="yes"/>
      <point x="661" y="-9" type="line" smooth="yes"/>
      <point x="670" y="-9"/>
      <point x="675" y="3"/>
      <point x="679" y="11" type="curve" smooth="yes"/>
      <point x="837" y="377" type="line" smooth="yes"/>
      <point x="860" y="427"/>
      <point x="875" y="440"/>
      <point x="896" y="440" type="curve" smooth="yes"/>
      <point x="910" y="440" type="line" smooth="yes"/>
      <point x="920" y="440"/>
      <point x="925" y="445"/>
      <point x="925" y="455" type="curve" smooth="yes"/>
      <point x="925" y="485" type="line" smooth="yes"/>
      <point x="925" y="495"/>
      <point x="920" y="500"/>
      <point x="910" y="500" type="curve" smooth="yes"/>
    </contour>
  </outline>
</glyph>
<glyph name="z" format="1">
  <advance width="544"/>
  <unicode hex="007A"/>
  <outline>
    <contour>
      <point x="312" y="500" type="move" name="top"/>
    </contour>
    <contour>
      <point x="495" y="165" type="line" smooth="yes"/>
      <point x="492" y="167"/>
      <point x="489" y="168"/>
      <point x="486" y="168" type="curve" smooth="yes"/>
      <point x="481" y="168"/>
      <point x="477" y="165"/>
      <point x="474" y="160" type="curve" smooth="yes"/>
      <point x="471" y="154" type="line"/>
      <point x="422" y="70"/>
      <point x="316" y="71"/>
      <point x="247" y="69" type="curve" smooth="yes"/>
      <point x="170" y="66" type="line"/>
      <point x="521" y="481" type="line" smooth="yes"/>
      <point x="524" y="485"/>
      <point x="525" y="488"/>
      <point x="525" y="491" type="curve" smooth="yes"/>
      <point x="525" y="496"/>
      <point x="521" y="500"/>
      <point x="512" y="500" type="curve" smooth="yes"/>
      <point x="143" y="500" type="line" smooth="yes"/>
      <point x="136" y="500"/>
      <point x="129" y="499"/>
      <point x="124" y="504" type="curve" smooth="yes"/>
      <point x="120" y="509" type="line" smooth="yes"/>
      <point x="118" y="511"/>
      <point x="115" y="512"/>
      <point x="113" y="512" type="curve" smooth="yes"/>
      <point x="108" y="512"/>
      <point x="103" y="509"/>
      <point x="100" y="503" type="curve" smooth="yes"/>
      <point x="17" y="372" type="line" smooth="yes"/>
      <point x="15" y="369"/>
      <point x="15" y="366"/>
      <point x="15" y="363" type="curve" smooth="yes"/>
      <point x="15" y="360" type="line" smooth="yes"/>
      <point x="16" y="357"/>
      <point x="19" y="354"/>
      <point x="23" y="352" type="curve" smooth="yes"/>
      <point x="57" y="332" type="line" smooth="yes"/>
      <point x="60" y="330"/>
      <point x="63" y="329"/>
      <point x="65" y="329" type="curve" smooth="yes"/>
      <point x="70" y="329"/>
      <point x="74" y="332"/>
      <point x="77" y="337" type="curve" smooth="yes"/>
      <point x="82" y="344" type="line"/>
      <point x="118" y="402"/>
      <point x="164" y="427"/>
      <point x="232" y="431" type="curve" smooth="yes"/>
      <point x="327" y="435" type="line"/>
      <point x="13" y="68" type="line" smooth="yes"/>
      <point x="11" y="66"/>
      <point x="10" y="62"/>
      <point x="10" y="58" type="curve" smooth="yes"/>
      <point x="10" y="15" type="line" smooth="yes"/>
      <point x="10" y="5"/>
      <point x="15" y="0"/>
      <point x="25" y="0" type="curve" smooth="yes"/>
      <point x="55" y="0" type="line"/>
      <point x="113" y="1" type="line"/>
      <point x="409" y="0" type="line" smooth="yes"/>
      <point x="417" y="0"/>
      <point x="422" y="1"/>
      <point x="428" y="-5" type="curve" smooth="yes"/>
      <point x="433" y="-10" type="line" smooth="yes"/>
      <point x="436" y="-12"/>
      <point x="439" y="-13"/>
      <point x="442" y="-13" type="curve" smooth="yes"/>
      <point x="446" y="-13"/>
      <point x="451" y="-10"/>
      <point x="454" y="-5" type="curve" smooth="yes"/>
      <point x="531" y="127" type="line" smooth="yes"/>
      <point x="533" y="130"/>
      <point x="534" y="133"/>
      <point x="534" y="135" type="curve" smooth="yes"/>
      <point x="534" y="140"/>
      <point x="531" y="144"/>
      <point x="526" y="147" type="curve" smooth="yes"/>
    </contour>
  </outline>
</glyph>
<glyph name="braceleft" format="1">
  <advance width="452"/>
  <unicode hex="007B"/>
  <outline>
    <contour>
      <point x="80" y="322" type="line" smooth="yes"/>
      <point x="80" y="332"/>
      <point x="85" y="337"/>
      <point x="94" y="337" type="curve" smooth="yes"/>
      <point x="157" y="339"/>
      <point x="216" y="358"/>
      <point x="216" y="428" type="curve" smooth="yes"/>
      <point x="216" y="479"/>
      <point x="168" y="534"/>
      <point x="173" y="625" type="curve" smooth="yes"/>
      <point x="177" y="723"/>
      <point x="272" y="756"/>
      <point x="322" y="769" type="curve" smooth="yes"/>
      <point x="329" y="771"/>
      <point x="335" y="769"/>
      <point x="341" y="764" type="curve" smooth="yes"/>
      <point x="351" y="756" type="line" smooth="yes"/>
      <point x="355" y="753"/>
      <point x="357" y="749"/>
      <point x="357" y="746" type="curve" smooth="yes"/>
      <point x="357" y="742"/>
      <point x="354" y="738"/>
      <point x="347" y="735" type="curve" smooth="yes"/>
      <point x="286" y="712"/>
      <point x="266" y="685"/>
      <point x="266" y="663" type="curve" smooth="yes"/>
      <point x="266" y="603"/>
      <point x="346" y="532"/>
      <point x="346" y="458" type="curve" smooth="yes"/>
      <point x="346" y="358"/>
      <point x="276" y="326"/>
      <point x="191" y="305" type="curve"/>
      <point x="276" y="285"/>
      <point x="346" y="253"/>
      <point x="346" y="152" type="curve" smooth="yes"/>
      <point x="346" y="79"/>
      <point x="266" y="7"/>
      <point x="266" y="-53" type="curve" smooth="yes"/>
      <point x="266" y="-74"/>
      <point x="286" y="-101"/>
      <point x="347" y="-124" type="curve" smooth="yes"/>
      <point x="354" y="-126"/>
      <point x="357" y="-130"/>
      <point x="357" y="-135" type="curve" smooth="yes"/>
      <point x="357" y="-138"/>
      <point x="355" y="-141"/>
      <point x="351" y="-145" type="curve" smooth="yes"/>
      <point x="341" y="-153" type="line" smooth="yes"/>
      <point x="337" y="-156"/>
      <point x="332" y="-158"/>
      <point x="327" y="-158" type="curve" smooth="yes"/>
      <point x="322" y="-158" type="line" smooth="yes"/>
      <point x="271" y="-144"/>
      <point x="172" y="-110"/>
      <point x="172" y="-3" type="curve" smooth="yes"/>
      <point x="172" y="81"/>
      <point x="216" y="134"/>
      <point x="216" y="182" type="curve" smooth="yes"/>
      <point x="216" y="253"/>
      <point x="157" y="271"/>
      <point x="94" y="273" type="curve" smooth="yes"/>
      <point x="85" y="274"/>
      <point x="80" y="279"/>
      <point x="80" y="288" type="curve" smooth="yes"/>
    </contour>
  </outline>
</glyph>
<glyph name="bar" format="1">
  <advance width="600"/>
  <unicode hex="007C"/>
  <outline>
    <contour>
      <point x="250" y="-132" type="line" smooth="yes"/>
      <point x="250" y="-142"/>
      <point x="256" y="-147"/>
      <point x="265" y="-147" type="curve" smooth="yes"/>
      <point x="333" y="-147" type="line" smooth="yes"/>
      <point x="343" y="-147"/>
      <point x="348" y="-142"/>
      <point x="348" y="-132" type="curve" smooth="yes"/>
      <point x="348" y="758" type="line" smooth="yes"/>
      <point x="348" y="768"/>
      <point x="343" y="773"/>
      <point x="333" y="773" type="curve" smooth="yes"/>
      <point x="265" y="773" type="line" smooth="yes"/>
      <point x="256" y="773"/>
      <point x="250" y="768"/>
      <point x="250" y="758" type="curve" smooth="yes"/>
    </contour>
  </outline>
</glyph>
<glyph name="braceright" format="1">
  <advance width="453"/>
  <unicode hex="007D"/>
  <outline>
    <contour>
      <point x="373" y="322" type="line" smooth="yes"/>
      <point x="373" y="332"/>
      <point x="367" y="337"/>
      <point x="358" y="337" type="curve" smooth="yes"/>
      <point x="295" y="339"/>
      <point x="237" y="358"/>
      <point x="237" y="428" type="curve" smooth="yes"/>
      <point x="237" y="479"/>
      <point x="284" y="534"/>
      <point x="280" y="625" type="curve" smooth="yes"/>
      <point x="275" y="723"/>
      <point x="180" y="756"/>
      <point x="130" y="769" type="curve" smooth="yes"/>
      <point x="123" y="771"/>
      <point x="117" y="769"/>
      <point x="111" y="764" type="curve" smooth="yes"/>
      <point x="101" y="756" type="line" smooth="yes"/>
      <point x="97" y="753"/>
      <point x="95" y="749"/>
      <point x="95" y="746" type="curve" smooth="yes"/>
      <point x="95" y="742"/>
      <point x="98" y="738"/>
      <point x="105" y="735" type="curve" smooth="yes"/>
      <point x="166" y="712"/>
      <point x="186" y="685"/>
      <point x="186" y="663" type="curve" smooth="yes"/>
      <point x="186" y="603"/>
      <point x="106" y="532"/>
      <point x="106" y="458" type="curve" smooth="yes"/>
      <point x="106" y="358"/>
      <point x="176" y="326"/>
      <point x="261" y="305" type="curve"/>
      <point x="176" y="285"/>
      <point x="106" y="253"/>
      <point x="106" y="152" type="curve" smooth="yes"/>
      <point x="106" y="79"/>
      <point x="186" y="7"/>
      <point x="186" y="-53" type="curve" smooth="yes"/>
      <point x="186" y="-74"/>
      <point x="166" y="-101"/>
      <point x="105" y="-124" type="curve" smooth="yes"/>
      <point x="98" y="-126"/>
      <point x="95" y="-130"/>
      <point x="95" y="-135" type="curve" smooth="yes"/>
      <point x="95" y="-138"/>
      <point x="97" y="-141"/>
      <point x="101" y="-145" type="curve" smooth="yes"/>
      <point x="111" y="-153" type="line" smooth="yes"/>
      <point x="115" y="-156"/>
      <point x="120" y="-158"/>
      <point x="125" y="-158" type="curve" smooth="yes"/>
      <point x="130" y="-158" type="line" smooth="yes"/>
      <point x="182" y="-144"/>
      <point x="280" y="-110"/>
      <point x="280" y="-3" type="curve" smooth="yes"/>
      <point x="280" y="81"/>
      <point x="237" y="134"/>
      <point x="237" y="182" type="curve" smooth="yes"/>
      <point x="237" y="253"/>
      <point x="295" y="271"/>
      <point x="358" y="273" type="curve" smooth="yes"/>
      <point x="367" y="274"/>
      <point x="373" y="279"/>
      <point x="373" y="288" type="curve" smooth="yes"/>
    </contour>
  </outline>
</glyph>
<glyph name="sterling" format="1">
  <advance width="697"/>
  <unicode hex="00A3"/>
  <outline>
    <contour>
      <point x="636" y="232" type="line" smooth="yes"/>
      <point x="633" y="234"/>
      <point x="630" y="235"/>
      <point x="628" y="235" type="curve" smooth="yes"/>
      <point x="623" y="235"/>
      <point x="619" y="232"/>
      <point x="615" y="226" type="curve" smooth="yes"/>
      <point x="612" y="221" type="line" smooth="yes"/>
      <point x="525" y="77"/>
      <point x="422" y="71"/>
      <point x="229" y="71" type="curve"/>
      <point x="274" y="92"/>
      <point x="348" y="155"/>
      <point x="348" y="247" type="curve"/>
      <point x="347" y="271" type="line"/>
      <point x="548" y="271" type="line" smooth="yes"/>
      <point x="558" y="271"/>
      <point x="563" y="276"/>
      <point x="563" y="286" type="curve" smooth="yes"/>
      <point x="563" y="343" type="line" smooth="yes"/>
      <point x="563" y="352"/>
      <point x="558" y="358"/>
      <point x="548" y="358" type="curve" smooth="yes"/>
      <point x="328" y="358" type="line"/>
      <point x="299" y="435"/>
      <point x="248" y="485"/>
      <point x="248" y="574" type="curve" smooth="yes"/>
      <point x="248" y="645"/>
      <point x="303" y="669"/>
      <point x="342" y="669" type="curve" smooth="yes"/>
      <point x="421" y="669"/>
      <point x="492" y="627"/>
      <point x="577" y="521" type="curve" smooth="yes"/>
      <point x="582" y="514"/>
      <point x="588" y="510"/>
      <point x="594" y="510" type="curve" smooth="yes"/>
      <point x="598" y="510"/>
      <point x="602" y="511"/>
      <point x="606" y="513" type="curve" smooth="yes"/>
      <point x="640" y="531" type="line" smooth="yes"/>
      <point x="648" y="535"/>
      <point x="651" y="540"/>
      <point x="651" y="546" type="curve" smooth="yes"/>
      <point x="651" y="550"/>
      <point x="650" y="554"/>
      <point x="647" y="560" type="curve" smooth="yes"/>
      <point x="577" y="739" type="line" smooth="yes"/>
      <point x="572" y="750"/>
      <point x="565" y="755"/>
      <point x="553" y="755" type="curve" smooth="yes"/>
      <point x="516" y="755" type="line" smooth="yes"/>
      <point x="504" y="755"/>
      <point x="498" y="750"/>
      <point x="498" y="741" type="curve" smooth="yes"/>
      <point x="498" y="738"/>
      <point x="499" y="735"/>
      <point x="500" y="731" type="curve" smooth="yes"/>
      <point x="502" y="724"/>
      <point x="503" y="717"/>
      <point x="503" y="711" type="curve" smooth="yes"/>
      <point x="503" y="705"/>
      <point x="502" y="702"/>
      <point x="498" y="702" type="curve" smooth="yes"/>
      <point x="496" y="702"/>
      <point x="494" y="702"/>
      <point x="491" y="704" type="curve" smooth="yes"/>
      <point x="467" y="718"/>
      <point x="415" y="752"/>
      <point x="329" y="752" type="curve" smooth="yes"/>
      <point x="224" y="752"/>
      <point x="93" y="717"/>
      <point x="93" y="570" type="curve" smooth="yes"/>
      <point x="93" y="468"/>
      <point x="145" y="418"/>
      <point x="181" y="358" type="curve"/>
      <point x="103" y="358" type="line" smooth="yes"/>
      <point x="93" y="358"/>
      <point x="88" y="352"/>
      <point x="88" y="343" type="curve" smooth="yes"/>
      <point x="88" y="286" type="line" smooth="yes"/>
      <point x="88" y="276"/>
      <point x="93" y="271"/>
      <point x="103" y="271" type="curve" smooth="yes"/>
      <point x="212" y="271" type="line"/>
      <point x="212" y="264"/>
      <point x="213" y="256"/>
      <point x="213" y="249" type="curve" smooth="yes"/>
      <point x="213" y="153"/>
      <point x="121" y="60"/>
      <point x="34" y="60" type="curve" smooth="yes"/>
      <point x="33" y="60" type="line" smooth="yes"/>
      <point x="23" y="60"/>
      <point x="18" y="54"/>
      <point x="18" y="45" type="curve" smooth="yes"/>
      <point x="18" y="15" type="line" smooth="yes"/>
      <point x="18" y="5"/>
      <point x="23" y="0"/>
      <point x="33" y="0" type="curve" smooth="yes"/>
      <point x="534" y="0" type="line" smooth="yes"/>
      <point x="542" y="0"/>
      <point x="548" y="0"/>
      <point x="554" y="-4" type="curve" smooth="yes"/>
      <point x="559" y="-9" type="line" smooth="yes"/>
      <point x="562" y="-12"/>
      <point x="565" y="-13"/>
      <point x="568" y="-13" type="curve" smooth="yes"/>
      <point x="573" y="-13"/>
      <point x="578" y="-10"/>
      <point x="580" y="-4" type="curve" smooth="yes"/>
      <point x="674" y="192" type="line" smooth="yes"/>
      <point x="676" y="196"/>
      <point x="677" y="199"/>
      <point x="677" y="201" type="curve" smooth="yes"/>
      <point x="677" y="206"/>
      <point x="674" y="210"/>
      <point x="668" y="214" type="curve" smooth="yes"/>
    </contour>
  </outline>
</glyph>
<glyph name="twosuperior" format="1">
  <advance width="425"/>
  <unicode hex="00B2"/>
  <outline>
    <contour>
      <point x="375" y="500" type="line" smooth="yes"/>
      <point x="369" y="504"/>
      <point x="363" y="503"/>
      <point x="359" y="496" type="curve" smooth="yes"/>
      <point x="357" y="492" type="line" smooth="yes"/>
      <point x="330" y="446"/>
      <point x="237" y="447"/>
      <point x="184" y="445" type="curve" smooth="yes"/>
      <point x="113" y="443" type="line"/>
      <point x="183" y="535"/>
      <point x="352" y="569"/>
      <point x="352" y="686" type="curve" smooth="yes"/>
      <point x="352" y="763"/>
      <point x="295" y="800"/>
      <point x="191" y="800" type="curve" smooth="yes"/>
      <point x="96" y="800"/>
      <point x="32" y="747"/>
      <point x="32" y="692" type="curve" smooth="yes"/>
      <point x="32" y="683"/>
      <point x="34" y="673"/>
      <point x="38" y="664" type="curve" smooth="yes"/>
      <point x="41" y="656"/>
      <point x="46" y="652"/>
      <point x="57" y="650" type="curve" smooth="yes"/>
      <point x="138" y="632" type="line" smooth="yes"/>
      <point x="143" y="630"/>
      <point x="145" y="634"/>
      <point x="145" y="639" type="curve" smooth="yes"/>
      <point x="145" y="641"/>
      <point x="144" y="644"/>
      <point x="143" y="647" type="curve" smooth="yes"/>
      <point x="131" y="670"/>
      <point x="126" y="688"/>
      <point x="126" y="703" type="curve" smooth="yes"/>
      <point x="126" y="742"/>
      <point x="159" y="755"/>
      <point x="188" y="755" type="curve" smooth="yes"/>
      <point x="221" y="755"/>
      <point x="242" y="732"/>
      <point x="242" y="687" type="curve" smooth="yes"/>
      <point x="242" y="594"/>
      <point x="76" y="534"/>
      <point x="22" y="425" type="curve" smooth="yes"/>
      <point x="21" y="423"/>
      <point x="20" y="418"/>
      <point x="20" y="415" type="curve" smooth="yes"/>
      <point x="20" y="391" type="line" smooth="yes"/>
      <point x="20" y="384"/>
      <point x="24" y="379"/>
      <point x="31" y="379" type="curve" smooth="yes"/>
      <point x="312" y="379" type="line" smooth="yes"/>
      <point x="317" y="379"/>
      <point x="322" y="379"/>
      <point x="326" y="376" type="curve" smooth="yes"/>
      <point x="330" y="372" type="line" smooth="yes"/>
      <point x="336" y="367"/>
      <point x="342" y="369"/>
      <point x="346" y="376" type="curve" smooth="yes"/>
      <point x="403" y="471" type="line" smooth="yes"/>
      <point x="407" y="477"/>
      <point x="405" y="483"/>
      <point x="399" y="487" type="curve" smooth="yes"/>
    </contour>
  </outline>
</glyph>
<glyph name="acute" format="1">
  <advance width="600"/>
  <unicode hex="00B4"/>
  <outline>
    <contour>
      <point x="262" y="500" type="move" name="_top"/>
    </contour>
    <contour>
      <point x="223" y="560" type="line" smooth="yes"/>
      <point x="227" y="558"/>
      <point x="230" y="557"/>
      <point x="233" y="557" type="curve" smooth="yes"/>
      <point x="235" y="557"/>
      <point x="237" y="558"/>
      <point x="240" y="559" type="curve" smooth="yes"/>
      <point x="299" y="579"/>
      <point x="400" y="639"/>
      <point x="400" y="721" type="curve" smooth="yes"/>
      <point x="400" y="756"/>
      <point x="369" y="772"/>
      <point x="331" y="772" type="curve" smooth="yes"/>
      <point x="324" y="772"/>
      <point x="318" y="771"/>
      <point x="311" y="771" type="curve" smooth="yes"/>
      <point x="301" y="769"/>
      <point x="296" y="765"/>
      <point x="294" y="758" type="curve" smooth="yes"/>
      <point x="269" y="692"/>
      <point x="250" y="658"/>
      <point x="187" y="577" type="curve"/>
    </contour>
  </outline>
</glyph>
<glyph name="paragraph" format="1">
  <advance width="600"/>
  <unicode hex="00B6"/>
  <outline>
    <contour>
      <point x="247" y="700" type="line" smooth="yes"/>
      <point x="118" y="700"/>
      <point x="72" y="616"/>
      <point x="72" y="537" type="curve" smooth="yes"/>
      <point x="72" y="453"/>
      <point x="135" y="382"/>
      <point x="204" y="382" type="curve" smooth="yes"/>
      <point x="237" y="382" type="line"/>
      <point x="237" y="-115" type="line" smooth="yes"/>
      <point x="237" y="-125"/>
      <point x="242" y="-130"/>
      <point x="252" y="-130" type="curve" smooth="yes"/>
      <point x="301" y="-130" type="line" smooth="yes"/>
      <point x="311" y="-130"/>
      <point x="316" y="-125"/>
      <point x="316" y="-115" type="curve" smooth="yes"/>
      <point x="316" y="639" type="line"/>
      <point x="382" y="639" type="line"/>
      <point x="382" y="-115" type="line" smooth="yes"/>
      <point x="382" y="-125"/>
      <point x="387" y="-130"/>
      <point x="397" y="-130" type="curve" smooth="yes"/>
      <point x="447" y="-130" type="line" smooth="yes"/>
      <point x="457" y="-130"/>
      <point x="462" y="-125"/>
      <point x="462" y="-115" type="curve" smooth="yes"/>
      <point x="462" y="544" type="line" smooth="yes"/>
      <point x="462" y="597"/>
      <point x="478" y="637"/>
      <point x="529" y="639" type="curve"/>
      <point x="535" y="639" type="line" smooth="yes"/>
      <point x="545" y="639"/>
      <point x="550" y="645"/>
      <point x="550" y="654" type="curve" smooth="yes"/>
      <point x="550" y="685" type="line" smooth="yes"/>
      <point x="550" y="694"/>
      <point x="545" y="700"/>
      <point x="535" y="700" type="curve" smooth="yes"/>
    </contour>
  </outline>
</glyph>
<glyph name="periodcentered" format="1">
  <advance width="600"/>
  <unicode hex="00B7"/>
  <outline>
    <contour>
      <point x="221" y="395" type="line" smooth="yes"/>
      <point x="208" y="383"/>
      <point x="202" y="370"/>
      <point x="202" y="357" type="curve" smooth="yes"/>
      <point x="202" y="343"/>
      <point x="208" y="330"/>
      <point x="221" y="318" type="curve" smooth="yes"/>
      <point x="260" y="279" type="line" smooth="yes"/>
      <point x="272" y="266"/>
      <point x="285" y="260"/>
      <point x="299" y="260" type="curve" smooth="yes"/>
      <point x="312" y="260"/>
      <point x="325" y="266"/>
      <point x="337" y="279" type="curve" smooth="yes"/>
      <point x="376" y="318" type="line" smooth="yes"/>
      <point x="389" y="330"/>
      <point x="395" y="343"/>
      <point x="395" y="357" type="curve" smooth="yes"/>
      <point x="395" y="370"/>
      <point x="389" y="383"/>
      <point x="376" y="395" type="curve" smooth="yes"/>
      <point x="337" y="435" type="line" smooth="yes"/>
      <point x="325" y="447"/>
      <point x="312" y="454"/>
      <point x="298" y="454" type="curve" smooth="yes"/>
      <point x="285" y="454"/>
      <point x="272" y="447"/>
      <point x="260" y="435" type="curve" smooth="yes"/>
    </contour>
  </outline>
</glyph>
<glyph name="cedilla" format="1">
  <advance width="600"/>
  <unicode hex="00B8"/>
  <outline>
    <contour>
      <point x="235" y="0" type="move" name="_bottom"/>
    </contour>
    <contour>
      <point x="147" y="-92" type="line" smooth="yes"/>
      <point x="145" y="-95"/>
      <point x="145" y="-98"/>
      <point x="145" y="-100" type="curve" smooth="yes"/>
      <point x="145" y="-105"/>
      <point x="148" y="-109"/>
      <point x="154" y="-109" type="curve" smooth="yes"/>
      <point x="172" y="-109"/>
      <point x="191" y="-103"/>
      <point x="211" y="-103" type="curve" smooth="yes"/>
      <point x="257" y="-103"/>
      <point x="288" y="-119"/>
      <point x="288" y="-153" type="curve" smooth="yes"/>
      <point x="288" y="-177"/>
      <point x="267" y="-185"/>
      <point x="240" y="-185" type="curve" smooth="yes"/>
      <point x="213" y="-185"/>
      <point x="179" y="-177"/>
      <point x="156" y="-169" type="curve" smooth="yes"/>
      <point x="146" y="-166"/>
      <point x="139" y="-169"/>
      <point x="139" y="-178" type="curve" smooth="yes"/>
      <point x="139" y="-198"/>
      <point x="140" y="-227"/>
      <point x="160" y="-235" type="curve" smooth="yes"/>
      <point x="196" y="-250"/>
      <point x="229" y="-256"/>
      <point x="259" y="-256" type="curve" smooth="yes"/>
      <point x="337" y="-256"/>
      <point x="389" y="-212"/>
      <point x="389" y="-153" type="curve" smooth="yes"/>
      <point x="389" y="-82"/>
      <point x="330" y="-52"/>
      <point x="276" y="-52" type="curve" smooth="yes"/>
      <point x="260" y="-52"/>
      <point x="244" y="-55"/>
      <point x="231" y="-60" type="curve"/>
      <point x="298" y="21" type="line" smooth="yes"/>
      <point x="301" y="24"/>
      <point x="302" y="28"/>
      <point x="302" y="31" type="curve" smooth="yes"/>
      <point x="302" y="36"/>
      <point x="298" y="39"/>
      <point x="289" y="39" type="curve" smooth="yes"/>
      <point x="238" y="39" type="line" smooth="yes"/>
      <point x="229" y="39"/>
      <point x="224" y="36"/>
      <point x="220" y="29" type="curve" smooth="yes"/>
    </contour>
  </outline>
</glyph>
<glyph name="onesuperior" format="1">
  <advance width="330"/>
  <unicode hex="00B9"/>
  <outline>
    <contour>
      <point x="226" y="667" type="line" smooth="yes"/>
      <point x="226" y="732"/>
      <point x="240" y="759"/>
      <point x="282" y="762" type="curve" smooth="yes"/>
      <point x="298" y="763" type="line" smooth="yes"/>
      <point x="306" y="763"/>
      <point x="310" y="767"/>
      <point x="310" y="775" type="curve" smooth="yes"/>
      <point x="310" y="798" type="line" smooth="yes"/>
      <point x="310" y="806"/>
      <point x="306" y="810"/>
      <point x="298" y="810" type="curve"/>
      <point x="209" y="794"/>
      <point x="130" y="787"/>
      <point x="41" y="787" type="curve" smooth="yes"/>
      <point x="34" y="787"/>
      <point x="30" y="782"/>
      <point x="30" y="775" type="curve" smooth="yes"/>
      <point x="30" y="752" type="line" smooth="yes"/>
      <point x="30" y="744"/>
      <point x="34" y="740"/>
      <point x="41" y="740" type="curve" smooth="yes"/>
      <point x="104" y="740"/>
      <point x="114" y="709"/>
      <point x="114" y="667" type="curve" smooth="yes"/>
      <point x="114" y="511" type="line" smooth="yes"/>
      <point x="114" y="471"/>
      <point x="101" y="440"/>
      <point x="62" y="438" type="curve"/>
      <point x="41" y="438" type="line" smooth="yes"/>
      <point x="34" y="438"/>
      <point x="30" y="434"/>
      <point x="30" y="427" type="curve" smooth="yes"/>
      <point x="30" y="404" type="line" smooth="yes"/>
      <point x="30" y="396"/>
      <point x="34" y="392"/>
      <point x="41" y="392" type="curve" smooth="yes"/>
      <point x="298" y="392" type="line" smooth="yes"/>
      <point x="306" y="392"/>
      <point x="310" y="396"/>
      <point x="310" y="404" type="curve" smooth="yes"/>
      <point x="310" y="427" type="line" smooth="yes"/>
      <point x="310" y="434"/>
      <point x="306" y="438"/>
      <point x="298" y="438" type="curve" smooth="yes"/>
      <point x="278" y="438" type="line"/>
      <point x="239" y="440"/>
      <point x="226" y="471"/>
      <point x="226" y="511" type="curve" smooth="yes"/>
    </contour>
  </outline>
</glyph>
<glyph name="ordmasculine" format="1">
  <advance width="458"/>
  <unicode hex="00BA"/>
  <outline>
    <contour>
      <point x="29" y="542" type="curve" smooth="yes"/>
      <point x="29" y="511"/>
      <point x="35" y="480"/>
      <point x="49" y="451" type="curve" smooth="yes"/>
      <point x="85" y="368"/>
      <point x="165" y="319"/>
      <point x="248" y="319" type="curve" smooth="yes"/>
      <point x="276" y="319"/>
      <point x="305" y="325"/>
      <point x="332" y="337" type="curve" smooth="yes"/>
      <point x="411" y="372"/>
      <point x="457" y="450"/>
      <point x="457" y="533" type="curve" smooth="yes"/>
      <point x="457" y="563"/>
      <point x="451" y="594"/>
      <point x="438" y="624" type="curve" smooth="yes"/>
      <point x="401" y="706"/>
      <point x="321" y="756"/>
      <point x="238" y="756" type="curve" smooth="yes"/>
      <point x="210" y="756"/>
      <point x="181" y="750"/>
      <point x="154" y="738" type="curve" smooth="yes"/>
      <point x="75" y="703"/>
      <point x="29" y="625"/>
    </contour>
    <contour>
      <point x="212" y="689" type="curve" smooth="yes"/>
      <point x="263" y="689"/>
      <point x="308" y="637"/>
      <point x="334" y="578" type="curve" smooth="yes"/>
      <point x="349" y="546"/>
      <point x="358" y="512"/>
      <point x="358" y="481" type="curve" smooth="yes"/>
      <point x="358" y="442"/>
      <point x="343" y="409"/>
      <point x="307" y="393" type="curve" smooth="yes"/>
      <point x="296" y="388"/>
      <point x="285" y="386"/>
      <point x="274" y="386" type="curve" smooth="yes"/>
      <point x="223" y="386"/>
      <point x="178" y="438"/>
      <point x="152" y="497" type="curve" smooth="yes"/>
      <point x="138" y="529"/>
      <point x="129" y="563"/>
      <point x="129" y="594" type="curve" smooth="yes"/>
      <point x="129" y="632"/>
      <point x="143" y="666"/>
      <point x="179" y="682" type="curve" smooth="yes"/>
      <point x="190" y="687"/>
      <point x="201" y="689"/>
    </contour>
  </outline>
</glyph>
<glyph name="onehalf" format="1">
  <advance width="834"/>
  <unicode hex="00BD"/>
  <outline>
    <contour>
      <point x="298" y="392" type="line" smooth="yes"/>
      <point x="306" y="392"/>
      <point x="310" y="396"/>
      <point x="310" y="404" type="curve" smooth="yes"/>
      <point x="310" y="427" type="line" smooth="yes"/>
      <point x="310" y="434"/>
      <point x="306" y="438"/>
      <point x="298" y="438" type="curve" smooth="yes"/>
      <point x="278" y="438" type="line"/>
      <point x="239" y="440"/>
      <point x="226" y="471"/>
      <point x="226" y="511" type="curve" smooth="yes"/>
      <point x="226" y="667" type="line" smooth="yes"/>
      <point x="226" y="732"/>
      <point x="240" y="759"/>
      <point x="282" y="762" type="curve" smooth="yes"/>
      <point x="298" y="763" type="line" smooth="yes"/>
      <point x="306" y="763"/>
      <point x="310" y="767"/>
      <point x="310" y="775" type="curve" smooth="yes"/>
      <point x="310" y="798" type="line" smooth="yes"/>
      <point x="310" y="806"/>
      <point x="306" y="810"/>
      <point x="298" y="810" type="curve"/>
      <point x="219" y="794"/>
      <point x="130" y="787"/>
      <point x="41" y="787" type="curve" smooth="yes"/>
      <point x="34" y="787"/>
      <point x="30" y="782"/>
      <point x="30" y="775" type="curve" smooth="yes"/>
      <point x="30" y="752" type="line" smooth="yes"/>
      <point x="30" y="744"/>
      <point x="34" y="740"/>
      <point x="41" y="740" type="curve" smooth="yes"/>
      <point x="104" y="740"/>
      <point x="114" y="709"/>
      <point x="114" y="667" type="curve" smooth="yes"/>
      <point x="114" y="511" type="line" smooth="yes"/>
      <point x="114" y="471"/>
      <point x="101" y="440"/>
      <point x="62" y="438" type="curve"/>
      <point x="41" y="438" type="line" smooth="yes"/>
      <point x="34" y="438"/>
      <point x="30" y="434"/>
      <point x="30" y="427" type="curve" smooth="yes"/>
      <point x="30" y="404" type="line" smooth="yes"/>
      <point x="30" y="396"/>
      <point x="34" y="392"/>
      <point x="41" y="392" type="curve" smooth="yes"/>
    </contour>
    <contour>
      <point x="615" y="735" type="line" smooth="yes"/>
      <point x="607" y="735"/>
      <point x="601" y="732"/>
      <point x="597" y="726" type="curve" smooth="yes"/>
      <point x="43" y="7" type="line" smooth="yes"/>
      <point x="41" y="3"/>
      <point x="40" y="0"/>
      <point x="40" y="-2" type="curve" smooth="yes"/>
      <point x="40" y="-7"/>
      <point x="44" y="-11"/>
      <point x="52" y="-11" type="curve" smooth="yes"/>
      <point x="94" y="-11" type="line" smooth="yes"/>
      <point x="102" y="-11"/>
      <point x="107" y="-8"/>
      <point x="112" y="-2" type="curve" smooth="yes"/>
      <point x="665" y="717" type="line" smooth="yes"/>
      <point x="668" y="720"/>
      <point x="669" y="723"/>
      <point x="669" y="726" type="curve" smooth="yes"/>
      <point x="669" y="732"/>
      <point x="664" y="735"/>
      <point x="656" y="735" type="curve" smooth="yes"/>
    </contour>
    <contour>
      <point x="784" y="112" type="line" smooth="yes"/>
      <point x="777" y="115"/>
      <point x="772" y="114"/>
      <point x="768" y="107" type="curve" smooth="yes"/>
      <point x="766" y="103" type="line" smooth="yes"/>
      <point x="739" y="57"/>
      <point x="646" y="58"/>
      <point x="593" y="57" type="curve" smooth="yes"/>
      <point x="521" y="55" type="line"/>
      <point x="591" y="146"/>
      <point x="761" y="180"/>
      <point x="761" y="298" type="curve" smooth="yes"/>
      <point x="761" y="374"/>
      <point x="704" y="411"/>
      <point x="600" y="411" type="curve" smooth="yes"/>
      <point x="505" y="411"/>
      <point x="441" y="358"/>
      <point x="441" y="303" type="curve" smooth="yes"/>
      <point x="441" y="294"/>
      <point x="443" y="285"/>
      <point x="446" y="275" type="curve" smooth="yes"/>
      <point x="450" y="267"/>
      <point x="454" y="263"/>
      <point x="466" y="261" type="curve" smooth="yes"/>
      <point x="546" y="243" type="line" smooth="yes"/>
      <point x="552" y="241"/>
      <point x="554" y="245"/>
      <point x="554" y="250" type="curve" smooth="yes"/>
      <point x="554" y="252"/>
      <point x="553" y="255"/>
      <point x="552" y="258" type="curve" smooth="yes"/>
      <point x="540" y="281"/>
      <point x="535" y="300"/>
      <point x="535" y="314" type="curve" smooth="yes"/>
      <point x="535" y="353"/>
      <point x="568" y="366"/>
      <point x="596" y="366" type="curve" smooth="yes"/>
      <point x="630" y="366"/>
      <point x="650" y="343"/>
      <point x="650" y="298" type="curve" smooth="yes"/>
      <point x="650" y="205"/>
      <point x="485" y="145"/>
      <point x="431" y="36" type="curve" smooth="yes"/>
      <point x="430" y="34"/>
      <point x="428" y="30"/>
      <point x="428" y="26" type="curve" smooth="yes"/>
      <point x="428" y="3" type="line" smooth="yes"/>
      <point x="428" y="-4"/>
      <point x="432" y="-9"/>
      <point x="440" y="-9" type="curve" smooth="yes"/>
      <point x="720" y="-9" type="line" smooth="yes"/>
      <point x="726" y="-9"/>
      <point x="730" y="-9"/>
      <point x="735" y="-12" type="curve" smooth="yes"/>
      <point x="739" y="-16" type="line" smooth="yes"/>
      <point x="745" y="-21"/>
      <point x="751" y="-19"/>
      <point x="755" y="-12" type="curve" smooth="yes"/>
      <point x="812" y="82" type="line" smooth="yes"/>
      <point x="816" y="88"/>
      <point x="814" y="94"/>
      <point x="808" y="98" type="curve" smooth="yes"/>
    </contour>
  </outline>
</glyph>
<glyph name="threequarters" format="1">
  <advance width="946"/>
  <unicode hex="00BE"/>
  <outline>
    <contour>
      <point x="125" y="633" type="line" smooth="yes"/>
      <point x="130" y="632"/>
      <point x="133" y="636"/>
      <point x="133" y="641" type="curve" smooth="yes"/>
      <point x="133" y="643"/>
      <point x="132" y="646"/>
      <point x="130" y="649" type="curve" smooth="yes"/>
      <point x="119" y="672"/>
      <point x="114" y="690"/>
      <point x="114" y="705" type="curve" smooth="yes"/>
      <point x="114" y="744"/>
      <point x="147" y="757"/>
      <point x="175" y="757" type="curve" smooth="yes"/>
      <point x="209" y="757"/>
      <point x="229" y="734"/>
      <point x="229" y="689" type="curve" smooth="yes"/>
      <point x="229" y="634"/>
      <point x="181" y="585"/>
      <point x="94" y="557" type="curve" smooth="yes"/>
      <point x="91" y="556"/>
      <point x="89" y="555"/>
      <point x="88" y="554" type="curve" smooth="yes"/>
      <point x="85" y="552"/>
      <point x="83" y="549"/>
      <point x="83" y="545" type="curve" smooth="yes"/>
      <point x="83" y="544"/>
      <point x="83" y="543"/>
      <point x="84" y="542" type="curve" smooth="yes"/>
      <point x="88" y="519" type="line" smooth="yes"/>
      <point x="89" y="513"/>
      <point x="93" y="510"/>
      <point x="98" y="510" type="curve" smooth="yes"/>
      <point x="99" y="510"/>
      <point x="101" y="510"/>
      <point x="102" y="511" type="curve" smooth="yes"/>
      <point x="124" y="515"/>
      <point x="145" y="517"/>
      <point x="164" y="517" type="curve" smooth="yes"/>
      <point x="227" y="517"/>
      <point x="269" y="490"/>
      <point x="269" y="418" type="curve" smooth="yes"/>
      <point x="269" y="326"/>
      <point x="205" y="285"/>
      <point x="121" y="285" type="curve" smooth="yes"/>
      <point x="99" y="285"/>
      <point x="76" y="288"/>
      <point x="52" y="293" type="curve" smooth="yes"/>
      <point x="45" y="295"/>
      <point x="41" y="290"/>
      <point x="41" y="284" type="curve" smooth="yes"/>
      <point x="41" y="282" type="line"/>
      <point x="45" y="249" type="line" smooth="yes"/>
      <point x="46" y="242"/>
      <point x="50" y="239"/>
      <point x="57" y="238" type="curve" smooth="yes"/>
      <point x="81" y="235"/>
      <point x="105" y="233"/>
      <point x="129" y="233" type="curve" smooth="yes"/>
      <point x="274" y="233"/>
      <point x="388" y="294"/>
      <point x="388" y="415" type="curve" smooth="yes"/>
      <point x="388" y="501"/>
      <point x="325" y="551"/>
      <point x="237" y="563" type="curve"/>
      <point x="298" y="586"/>
      <point x="340" y="624"/>
      <point x="340" y="689" type="curve" smooth="yes"/>
      <point x="340" y="765"/>
      <point x="283" y="802"/>
      <point x="178" y="802" type="curve" smooth="yes"/>
      <point x="84" y="802"/>
      <point x="19" y="749"/>
      <point x="19" y="694" type="curve" smooth="yes"/>
      <point x="19" y="685"/>
      <point x="21" y="676"/>
      <point x="25" y="666" type="curve" smooth="yes"/>
      <point x="28" y="658"/>
      <point x="33" y="654"/>
      <point x="44" y="652" type="curve" smooth="yes"/>
    </contour>
    <contour>
      <point x="775" y="735" type="line" smooth="yes"/>
      <point x="767" y="735"/>
      <point x="761" y="732"/>
      <point x="756" y="726" type="curve" smooth="yes"/>
      <point x="203" y="7" type="line" smooth="yes"/>
      <point x="201" y="3"/>
      <point x="199" y="0"/>
      <point x="199" y="-2" type="curve" smooth="yes"/>
      <point x="199" y="-7"/>
      <point x="204" y="-11"/>
      <point x="212" y="-11" type="curve" smooth="yes"/>
      <point x="254" y="-11" type="line" smooth="yes"/>
      <point x="262" y="-11"/>
      <point x="267" y="-8"/>
      <point x="272" y="-2" type="curve" smooth="yes"/>
      <point x="825" y="717" type="line" smooth="yes"/>
      <point x="828" y="720"/>
      <point x="829" y="723"/>
      <point x="829" y="726" type="curve" smooth="yes"/>
      <point x="829" y="732"/>
      <point x="824" y="735"/>
      <point x="816" y="735" type="curve" smooth="yes"/>
    </contour>
    <contour>
      <point x="829" y="54" type="line"/>
      <point x="829" y="162" type="line" smooth="yes"/>
      <point x="829" y="169"/>
      <point x="825" y="172"/>
      <point x="819" y="172" type="curve" smooth="yes"/>
      <point x="816" y="172" type="line" smooth="yes"/>
      <point x="748" y="159" type="line" smooth="yes"/>
      <point x="741" y="158"/>
      <point x="738" y="153"/>
      <point x="738" y="146" type="curve" smooth="yes"/>
      <point x="738" y="54" type="line"/>
      <point x="601" y="54" type="line"/>
      <point x="654" y="117"/>
      <point x="796" y="267"/>
      <point x="796" y="361" type="curve" smooth="yes"/>
      <point x="796" y="370"/>
      <point x="794" y="378"/>
      <point x="792" y="386" type="curve" smooth="yes"/>
      <point x="789" y="395"/>
      <point x="784" y="399"/>
      <point x="773" y="401" type="curve" smooth="yes"/>
      <point x="677" y="425" type="line" smooth="yes"/>
      <point x="672" y="426"/>
      <point x="670" y="422"/>
      <point x="670" y="417" type="curve" smooth="yes"/>
      <point x="670" y="415"/>
      <point x="670" y="412"/>
      <point x="672" y="409" type="curve" smooth="yes"/>
      <point x="684" y="383"/>
      <point x="689" y="359"/>
      <point x="689" y="337" type="curve" smooth="yes"/>
      <point x="689" y="240"/>
      <point x="596" y="162"/>
      <point x="530" y="61" type="curve" smooth="yes"/>
      <point x="527" y="56"/>
      <point x="526" y="52"/>
      <point x="526" y="46" type="curve" smooth="yes"/>
      <point x="526" y="2" type="line" smooth="yes"/>
      <point x="526" y="-5"/>
      <point x="530" y="-9"/>
      <point x="538" y="-9" type="curve" smooth="yes"/>
      <point x="738" y="-9" type="line"/>
      <point x="738" y="-142" type="line" smooth="yes"/>
      <point x="738" y="-149"/>
      <point x="742" y="-153"/>
      <point x="749" y="-153" type="curve" smooth="yes"/>
      <point x="817" y="-153" type="line" smooth="yes"/>
      <point x="825" y="-153"/>
      <point x="829" y="-149"/>
      <point x="829" y="-142" type="curve" smooth="yes"/>
      <point x="829" y="-9" type="line"/>
      <point x="915" y="-9" type="line" smooth="yes"/>
      <point x="922" y="-9"/>
      <point x="926" y="-5"/>
      <point x="926" y="3" type="curve" smooth="yes"/>
      <point x="926" y="43" type="line" smooth="yes"/>
      <point x="926" y="50"/>
      <point x="922" y="54"/>
      <point x="915" y="54" type="curve" smooth="yes"/>
    </contour>
  </outline>
</glyph>
<glyph name="germandbls" format="1">
  <advance width="724"/>
  <unicode hex="00DF"/>
  <outline>
    <contour>
      <point x="604" y="561" type="line" smooth="yes"/>
      <point x="609" y="566"/>
      <point x="611" y="571"/>
      <point x="611" y="578" type="curve" smooth="yes"/>
      <point x="611" y="579" type="line"/>
      <point x="606" y="684"/>
      <point x="513" y="750"/>
      <point x="387" y="750" type="curve" smooth="yes"/>
      <point x="137" y="750"/>
      <point x="117" y="584"/>
      <point x="117" y="514" type="curve" smooth="yes"/>
      <point x="117" y="500" type="line"/>
      <point x="60" y="500" type="line"/>
      <point x="50" y="498"/>
      <point x="46" y="495"/>
      <point x="46" y="486" type="curve" smooth="yes"/>
      <point x="46" y="452" type="line" smooth="yes"/>
      <point x="45" y="446"/>
      <point x="48" y="441"/>
      <point x="57" y="440" type="curve" smooth="yes"/>
      <point x="113" y="433"/>
      <point x="117" y="378"/>
      <point x="117" y="324" type="curve" smooth="yes"/>
      <point x="117" y="155" type="line" smooth="yes"/>
      <point x="117" y="101"/>
      <point x="99" y="60"/>
      <point x="46" y="60" type="curve" smooth="yes"/>
      <point x="43" y="60" type="line" smooth="yes"/>
      <point x="33" y="59"/>
      <point x="28" y="54"/>
      <point x="28" y="45" type="curve" smooth="yes"/>
      <point x="28" y="15" type="line" smooth="yes"/>
      <point x="28" y="5"/>
      <point x="33" y="-5"/>
      <point x="43" y="-5" type="curve" smooth="yes"/>
      <point x="251" y="-5" type="line" smooth="yes"/>
      <point x="261" y="-5"/>
      <point x="266" y="5"/>
      <point x="266" y="14" type="curve" smooth="yes"/>
      <point x="266" y="563" type="line" smooth="yes"/>
      <point x="266" y="630"/>
      <point x="333" y="673"/>
      <point x="394" y="673" type="curve" smooth="yes"/>
      <point x="443" y="673"/>
      <point x="489" y="645"/>
      <point x="493" y="579" type="curve" smooth="yes"/>
      <point x="494" y="572"/>
      <point x="492" y="566"/>
      <point x="487" y="560" type="curve" smooth="yes"/>
      <point x="360" y="439" type="line" smooth="yes"/>
      <point x="355" y="434"/>
      <point x="350" y="431"/>
      <point x="342" y="431" type="curve" smooth="yes"/>
      <point x="338" y="431" type="line" smooth="yes"/>
      <point x="332" y="431"/>
      <point x="329" y="428"/>
      <point x="329" y="422" type="curve" smooth="yes"/>
      <point x="329" y="413"/>
      <point x="339" y="405"/>
      <point x="369" y="371" type="curve" smooth="yes"/>
      <point x="375" y="365"/>
      <point x="378" y="360"/>
      <point x="387" y="360" type="curve" smooth="yes"/>
      <point x="499" y="359"/>
      <point x="568" y="315"/>
      <point x="568" y="207" type="curve" smooth="yes"/>
      <point x="568" y="112"/>
      <point x="505" y="68"/>
      <point x="431" y="68" type="curve" smooth="yes"/>
      <point x="401" y="68"/>
      <point x="367" y="77"/>
      <point x="341" y="95" type="curve" smooth="yes"/>
      <point x="337" y="97"/>
      <point x="332" y="100"/>
      <point x="329" y="100" type="curve" smooth="yes"/>
      <point x="323" y="100"/>
      <point x="322" y="98"/>
      <point x="320" y="94" type="curve" smooth="yes"/>
      <point x="309" y="73"/>
      <point x="304" y="65"/>
      <point x="304" y="62" type="curve" smooth="yes"/>
      <point x="304" y="58"/>
      <point x="306" y="54"/>
      <point x="309" y="51" type="curve" smooth="yes"/>
      <point x="347" y="14"/>
      <point x="401" y="-13"/>
      <point x="470" y="-13" type="curve" smooth="yes"/>
      <point x="590" y="-13"/>
      <point x="714" y="46"/>
      <point x="714" y="207" type="curve" smooth="yes"/>
      <point x="714" y="330"/>
      <point x="610" y="429"/>
      <point x="463" y="429" type="curve"/>
    </contour>
  </outline>
</glyph>
<glyph name="agrave" format="1">
  <advance width="680"/>
  <unicode hex="00E0"/>
  <outline>
    <contour>
      <point x="136,51" y="392" type="curve" smooth="yes"/>
      <point x="151,51" y="403"/>
      <point x="166,51" y="414"/>
      <point x="182,51" y="421" type="curve" smooth="yes"/>
      <point x="199,51" y="429"/>
      <point x="217,51" y="433"/>
      <point x="235,51" y="432" type="curve" smooth="yes"/>
      <point x="251,51" y="431"/>
      <point x="266,51" y="425"/>
      <point x="280,51" y="417" type="curve" smooth="yes"/>
      <point x="293,51" y="409"/>
      <point x="305,51" y="398"/>
      <point x="314,51" y="386" type="curve" smooth="yes"/>
      <point x="334,51" y="361"/>
      <point x="346,51" y="331"/>
      <point x="358,51" y="302" type="curve" smooth="yes"/>
      <point x="373,51" y="261"/>
      <point x="387,51" y="220"/>
      <point x="398,51" y="178" type="curve" smooth="yes"/>
      <point x="405,51" y="154"/>
      <point x="410,51" y="129"/>
      <point x="418,51" y="106" type="curve" smooth="yes"/>
      <point x="426,51" y="82"/>
      <point x="437,51" y="59"/>
      <point x="453,51" y="39" type="curve" smooth="yes"/>
      <point x="468,51" y="21"/>
      <point x="487,51" y="6"/>
      <point x="509,51" y="-2" type="curve" smooth="yes"/>
      <point x="531,51" y="-10"/>
      <point x="555,51" y="-13"/>
      <point x="579,51" y="-8" type="curve" smooth="yes"/>
      <point x="597,51" y="-4"/>
      <point x="613,51" y="3"/>
      <point x="629,51" y="11" type="curve" smooth="yes"/>
      <point x="635,51" y="14"/>
      <point x="641,51" y="18"/>
      <point x="647,51" y="22" type="curve" smooth="yes"/>
      <point x="652,51" y="25"/>
      <point x="657,51" y="30"/>
      <point x="660,51" y="36" type="curve" smooth="yes"/>
      <point x="664,51" y="42"/>
      <point x="666,51" y="48"/>
      <point x="665,51" y="55" type="curve" smooth="yes"/>
      <point x="664,51" y="58"/>
      <point x="663,51" y="61"/>
      <point x="661,51" y="64" type="curve" smooth="yes"/>
      <point x="659,51" y="67"/>
      <point x="656,51" y="69"/>
      <point x="653,51" y="70" type="curve" smooth="yes"/>
      <point x="643,51" y="70" type="line" smooth="yes"/>
      <point x="640,51" y="69"/>
      <point x="637,51" y="68"/>
      <point x="634,51" y="66" type="curve" smooth="yes"/>
      <point x="628,51" y="63"/>
      <point x="623,51" y="60"/>
      <point x="617,51" y="58" type="curve" smooth="yes"/>
      <point x="611,51" y="57"/>
      <point x="604,51" y="58"/>
      <point x="598,51" y="60" type="curve" smooth="yes"/>
      <point x="592,51" y="63"/>
      <point x="587,51" y="67"/>
      <point x="583,51" y="72" type="curve" smooth="yes"/>
      <point x="575,51" y="82"/>
      <point x="571,51" y="94"/>
      <point x="567,51" y="106" type="curve" smooth="yes"/>
      <point x="557,51" y="138"/>
      <point x="546,51" y="169"/>
      <point x="536,51" y="201" type="curve" smooth="yes"/>
      <point x="519,51" y="253"/>
      <point x="504,51" y="305"/>
      <point x="486,51" y="357" type="curve" smooth="yes"/>
      <point x="471,51" y="400"/>
      <point x="454,51" y="443"/>
      <point x="420,51" y="472" type="curve" smooth="yes"/>
      <point x="400,51" y="490"/>
      <point x="374,51" y="502"/>
      <point x="348,51" y="508" type="curve" smooth="yes"/>
      <point x="321,51" y="514"/>
      <point x="294,51" y="514"/>
      <point x="267,51" y="511" type="curve" smooth="yes"/>
      <point x="219,51" y="505"/>
      <point x="173,51" y="489"/>
      <point x="131,51" y="467" type="curve" smooth="yes"/>
      <point x="117,51" y="460"/>
      <point x="104,51" y="453"/>
      <point x="94,5098" y="441" type="curve" smooth="yes"/>
      <point x="88,5098" y="436"/>
      <point x="84,5098" y="430"/>
      <point x="81,5098" y="423" type="curve" smooth="yes"/>
      <point x="79,5098" y="416"/>
      <point x="77,5098" y="408"/>
      <point x="78,5098" y="401" type="curve" smooth="yes"/>
      <point x="79,5098" y="395"/>
      <point x="80,5098" y="390"/>
      <point x="83,5098" y="386" type="curve" smooth="yes"/>
      <point x="87,5098" y="381"/>
      <point x="91,5098" y="378"/>
      <point x="96,5098" y="376" type="curve" smooth="yes"/>
      <point x="100,51" y="375"/>
      <point x="104,51" y="375"/>
      <point x="107,51" y="375" type="curve" smooth="yes"/>
      <point x="111,51" y="376"/>
      <point x="115,51" y="377"/>
      <point x="118,51" y="379" type="curve" smooth="yes"/>
      <point x="125,51" y="382"/>
      <point x="131,51" y="387"/>
    </contour>
    <contour>
      <point x="386,51" y="296" type="line"/>
      <point x="298,51" y="333"/>
      <point x="192,51" y="323"/>
      <point x="112,51" y="271" type="curve" smooth="yes"/>
      <point x="91,5098" y="257"/>
      <point x="72,5098" y="240"/>
      <point x="57,5098" y="219" type="curve" smooth="yes"/>
      <point x="42,5098" y="199"/>
      <point x="32,5098" y="175"/>
      <point x="30,5098" y="149" type="curve" smooth="yes"/>
      <point x="28,5098" y="129"/>
      <point x="32,5098" y="108"/>
      <point x="40,5098" y="89" type="curve" smooth="yes"/>
      <point x="49,5098" y="70"/>
      <point x="62,5098" y="53"/>
      <point x="77,5098" y="39" type="curve" smooth="yes"/>
      <point x="115,51" y="6"/>
      <point x="167,51" y="-6"/>
      <point x="218,51" y="-11" type="curve" smooth="yes"/>
      <point x="265,51" y="-15"/>
      <point x="314,51" y="-12"/>
      <point x="358,51" y="5" type="curve" smooth="yes"/>
      <point x="393,51" y="19"/>
      <point x="423,51" y="42"/>
      <point x="446,51" y="71" type="curve"/>
      <point x="388,51" y="226" type="line" smooth="yes"/>
      <point x="394,51" y="212"/>
      <point x="398,51" y="197"/>
      <point x="400,51" y="181" type="curve" smooth="yes"/>
      <point x="402,51" y="165"/>
      <point x="401,51" y="148"/>
      <point x="397,51" y="132" type="curve" smooth="yes"/>
      <point x="393,51" y="117"/>
      <point x="385,51" y="102"/>
      <point x="373,51" y="90" type="curve" smooth="yes"/>
      <point x="356,51" y="74"/>
      <point x="331,51" y="67"/>
      <point x="307,51" y="67" type="curve" smooth="yes"/>
      <point x="286,51" y="66"/>
      <point x="265,51" y="71"/>
      <point x="247,51" y="80" type="curve" smooth="yes"/>
      <point x="233,51" y="87"/>
      <point x="221,51" y="97"/>
      <point x="212,51" y="109" type="curve" smooth="yes"/>
      <point x="203,51" y="122"/>
      <point x="196,51" y="136"/>
      <point x="195,51" y="151" type="curve" smooth="yes"/>
      <point x="193,51" y="165"/>
      <point x="195,51" y="178"/>
      <point x="201,51" y="191" type="curve" smooth="yes"/>
      <point x="206,51" y="203"/>
      <point x="214,51" y="214"/>
      <point x="224,51" y="223" type="curve" smooth="yes"/>
      <point x="241,51" y="239"/>
      <point x="265,51" y="247"/>
      <point x="288,51" y="249" type="curve" smooth="yes"/>
      <point x="312,51" y="251"/>
      <point x="337,51" y="247"/>
      <point x="358,51" y="234" type="curve" smooth="yes"/>
      <point x="375,51" y="224"/>
      <point x="388,51" y="208"/>
      <point x="395,51" y="189" type="curve"/>
    </contour>
    <contour>
      <point x="384,51" y="577" type="line"/>
      <point x="320,51" y="658"/>
      <point x="302,51" y="692"/>
      <point x="277,51" y="758" type="curve" smooth="yes"/>
      <point x="274,51" y="765"/>
      <point x="269,51" y="769"/>
      <point x="259,51" y="771" type="curve" smooth="yes"/>
      <point x="253,51" y="771"/>
      <point x="246,51" y="772"/>
      <point x="240,51" y="772" type="curve" smooth="yes"/>
      <point x="202,51" y="772"/>
      <point x="170,51" y="756"/>
      <point x="170,51" y="721" type="curve" smooth="yes"/>
      <point x="170,51" y="639"/>
      <point x="271,51" y="579"/>
      <point x="331,51" y="559" type="curve" smooth="yes"/>
      <point x="337,51" y="557"/>
      <point x="342,51" y="557"/>
      <point x="347,51" y="560" type="curve" smooth="yes"/>
    </contour>
  </outline>
</glyph>
<glyph name="acircumflex" format="1">
  <advance width="678"/>
  <unicode hex="00E2"/>
  <outline>
    <contour>
      <point x="136,186" y="392" type="curve" smooth="yes"/>
      <point x="150,186" y="403"/>
      <point x="165,186" y="414"/>
      <point x="182,186" y="421" type="curve" smooth="yes"/>
      <point x="198,186" y="429"/>
      <point x="216,186" y="433"/>
      <point x="235,186" y="432" type="curve" smooth="yes"/>
      <point x="250,186" y="431"/>
      <point x="266,186" y="425"/>
      <point x="279,186" y="417" type="curve" smooth="yes"/>
      <point x="292,186" y="409"/>
      <point x="304,186" y="398"/>
      <point x="314,186" y="386" type="curve" smooth="yes"/>
      <point x="334,186" y="361"/>
      <point x="346,186" y="331"/>
      <point x="357,186" y="302" type="curve" smooth="yes"/>
      <point x="372,186" y="261"/>
      <point x="387,186" y="220"/>
      <point x="398,186" y="178" type="curve" smooth="yes"/>
      <point x="404,186" y="154"/>
      <point x="410,186" y="129"/>
      <point x="418,186" y="106" type="curve" smooth="yes"/>
      <point x="426,186" y="82"/>
      <point x="437,186" y="59"/>
      <point x="452,186" y="39" type="curve" smooth="yes"/>
      <point x="467,186" y="21"/>
      <point x="487,186" y="6"/>
      <point x="509,186" y="-2" type="curve" smooth="yes"/>
      <point x="530,186" y="-10"/>
      <point x="555,186" y="-13"/>
      <point x="578,186" y="-8" type="curve" smooth="yes"/>
      <point x="596,186" y="-4"/>
      <point x="613,186" y="3"/>
      <point x="629,186" y="11" type="curve" smooth="yes"/>
      <point x="635,186" y="14"/>
      <point x="641,186" y="18"/>
      <point x="646,186" y="22" type="curve" smooth="yes"/>
      <point x="652,186" y="25"/>
      <point x="656,186" y="30"/>
      <point x="660,186" y="36" type="curve" smooth="yes"/>
      <point x="663,186" y="42"/>
      <point x="665,186" y="48"/>
      <point x="664,186" y="55" type="curve" smooth="yes"/>
      <point x="664,186" y="58"/>
      <point x="662,186" y="61"/>
      <point x="660,186" y="64" type="curve" smooth="yes"/>
      <point x="658,186" y="67"/>
      <point x="655,186" y="69"/>
      <point x="652,186" y="70" type="curve" smooth="yes"/>
      <point x="643,186" y="70" type="line" smooth="yes"/>
      <point x="639,186" y="69"/>
      <point x="636,186" y="68"/>
      <point x="634,186" y="66" type="curve" smooth="yes"/>
      <point x="628,186" y="63"/>
      <point x="622,186" y="60"/>
      <point x="616,186" y="58" type="curve" smooth="yes"/>
      <point x="610,186" y="57"/>
      <point x="603,186" y="58"/>
      <point x="598,186" y="60" type="curve" smooth="yes"/>
      <point x="592,186" y="63"/>
      <point x="587,186" y="67"/>
      <point x="583,186" y="72" type="curve" smooth="yes"/>
      <point x="575,186" y="82"/>
      <point x="571,186" y="94"/>
      <point x="567,186" y="106" type="curve" smooth="yes"/>
      <point x="556,186" y="138"/>
      <point x="546,186" y="169"/>
      <point x="536,186" y="201" type="curve" smooth="yes"/>
      <point x="519,186" y="253"/>
      <point x="503,186" y="305"/>
      <point x="485,186" y="357" type="curve" smooth="yes"/>
      <point x="471,186" y="400"/>
      <point x="453,186" y="443"/>
      <point x="420,186" y="472" type="curve" smooth="yes"/>
      <point x="399,186" y="490"/>
      <point x="374,186" y="502"/>
      <point x="347,186" y="508" type="curve" smooth="yes"/>
      <point x="321,186" y="514"/>
      <point x="293,186" y="514"/>
      <point x="266,186" y="511" type="curve" smooth="yes"/>
      <point x="219,186" y="505"/>
      <point x="173,186" y="489"/>
      <point x="130,186" y="467" type="curve" smooth="yes"/>
      <point x="117,186" y="460"/>
      <point x="103,186" y="453"/>
      <point x="93,1855" y="441" type="curve" smooth="yes"/>
      <point x="88,1855" y="436"/>
      <point x="84,1855" y="430"/>
      <point x="81,1855" y="423" type="curve" smooth="yes"/>
      <point x="78,1855" y="416"/>
      <point x="77,1855" y="408"/>
      <point x="78,1855" y="401" type="curve" smooth="yes"/>
      <point x="78,1855" y="395"/>
      <point x="80,1855" y="390"/>
      <point x="83,1855" y="386" type="curve" smooth="yes"/>
      <point x="86,1855" y="381"/>
      <point x="90,1855" y="378"/>
      <point x="96,1855" y="376" type="curve" smooth="yes"/>
      <point x="99,1855" y="375"/>
      <point x="103,186" y="375"/>
      <point x="107,186" y="375" type="curve" smooth="yes"/>
      <point x="110,186" y="376"/>
      <point x="114,186" y="377"/>
      <point x="117,186" y="379" type="curve" smooth="yes"/>
      <point x="124,186" y="382"/>
      <point x="130,186" y="387"/>
    </contour>
    <contour>
      <point x="385,186" y="296" type="line"/>
      <point x="297,186" y="333"/>
      <point x="191,186" y="323"/>
      <point x="112,186" y="271" type="curve" smooth="yes"/>
      <point x="91,1855" y="257"/>
      <point x="71,1855" y="240"/>
      <point x="56,1855" y="219" type="curve" smooth="yes"/>
      <point x="42,1855" y="199"/>
      <point x="31,1855" y="175"/>
      <point x="30,1855" y="149" type="curve" smooth="yes"/>
      <point x="29,1855" y="129"/>
      <point x="32,1855" y="108"/>
      <point x="40,1855" y="89" type="curve" smooth="yes"/>
      <point x="48,1855" y="70"/>
      <point x="61,1855" y="53"/>
      <point x="76,1855" y="39" type="curve" smooth="yes"/>
      <point x="114,186" y="6"/>
      <point x="167,186" y="-6"/>
      <point x="217,186" y="-11" type="curve" smooth="yes"/>
      <point x="265,186" y="-15"/>
      <point x="314,186" y="-12"/>
      <point x="358,186" y="5" type="curve" smooth="yes"/>
      <point x="392,186" y="19"/>
      <point x="423,186" y="42"/>
      <point x="446,186" y="71" type="curve"/>
      <point x="387,186" y="226" type="line" smooth="yes"/>
      <point x="393,186" y="212"/>
      <point x="397,186" y="197"/>
      <point x="399,186" y="181" type="curve" smooth="yes"/>
      <point x="401,186" y="165"/>
      <point x="401,186" y="148"/>
      <point x="397,186" y="132" type="curve" smooth="yes"/>
      <point x="393,186" y="117"/>
      <point x="384,186" y="102"/>
      <point x="372,186" y="90" type="curve" smooth="yes"/>
      <point x="355,186" y="74"/>
      <point x="330,186" y="67"/>
      <point x="307,186" y="67" type="curve" smooth="yes"/>
      <point x="286,186" y="66"/>
      <point x="265,186" y="71"/>
      <point x="246,186" y="80" type="curve" smooth="yes"/>
      <point x="233,186" y="87"/>
      <point x="221,186" y="97"/>
      <point x="211,186" y="109" type="curve" smooth="yes"/>
      <point x="202,186" y="122"/>
      <point x="196,186" y="136"/>
      <point x="194,186" y="151" type="curve" smooth="yes"/>
      <point x="193,186" y="165"/>
      <point x="195,186" y="178"/>
      <point x="200,186" y="191" type="curve" smooth="yes"/>
      <point x="205,186" y="203"/>
      <point x="213,186" y="214"/>
      <point x="223,186" y="223" type="curve" smooth="yes"/>
      <point x="241,186" y="239"/>
      <point x="264,186" y="247"/>
      <point x="287,186" y="249" type="curve" smooth="yes"/>
      <point x="312,186" y="251"/>
      <point x="337,186" y="247"/>
      <point x="357,186" y="234" type="curve" smooth="yes"/>
      <point x="374,186" y="224"/>
      <point x="387,186" y="208"/>
      <point x="394,186" y="189" type="curve"/>
    </contour>
    <contour>
      <point x="310,186" y="672" type="curve"/>
      <point x="338,186" y="617"/>
      <point x="389,186" y="555"/>
      <point x="453,186" y="555" type="curve" smooth="yes"/>
      <point x="488,186" y="555"/>
      <point x="504,186" y="586"/>
      <point x="504,186" y="625" type="curve" smooth="yes"/>
      <point x="504,186" y="631"/>
      <point x="504,186" y="637"/>
      <point x="503,186" y="644" type="curve" smooth="yes"/>
      <point x="502,186" y="654"/>
      <point x="497,186" y="659"/>
      <point x="490,186" y="661" type="curve" smooth="yes"/>
      <point x="425,186" y="686"/>
      <point x="391,186" y="705"/>
      <point x="310,186" y="768" type="curve"/>
      <point x="229,186" y="705"/>
      <point x="195,186" y="686"/>
      <point x="129,186" y="661" type="curve" smooth="yes"/>
      <point x="122,186" y="659"/>
      <point x="118,186" y="654"/>
      <point x="116,186" y="644" type="curve" smooth="yes"/>
      <point x="115,186" y="637"/>
      <point x="115,186" y="631"/>
      <point x="115,186" y="625" type="curve" smooth="yes"/>
      <point x="115,186" y="586"/>
      <point x="131,186" y="555"/>
      <point x="166,186" y="555" type="curve" smooth="yes"/>
      <point x="230,186" y="555"/>
      <point x="281,186" y="617"/>
    </contour>
  </outline>
</glyph>
<glyph name="ae" format="1">
  <advance width="897"/>
  <unicode hex="00E6"/>
  <outline>
    <contour>
      <point x="838" y="305" type="line" smooth="yes"/>
      <point x="844" y="308"/>
      <point x="846" y="312"/>
      <point x="846" y="318" type="curve" smooth="yes"/>
      <point x="846" y="393"/>
      <point x="773" y="511"/>
      <point x="640" y="511" type="curve" smooth="yes"/>
      <point x="603" y="511"/>
      <point x="565" y="504"/>
      <point x="531" y="488" type="curve"/>
      <point x="532" y="531" type="line" smooth="yes"/>
      <point x="532" y="532"/>
      <point x="532" y="532"/>
      <point x="531" y="532" type="curve" smooth="yes"/>
      <point x="529" y="532" type="line" smooth="yes"/>
      <point x="527" y="532"/>
      <point x="526" y="531"/>
      <point x="524" y="530" type="curve" smooth="yes"/>
      <point x="504" y="509"/>
      <point x="481" y="482"/>
      <point x="424" y="455" type="curve"/>
      <point x="382" y="492"/>
      <point x="328" y="512"/>
      <point x="263" y="512" type="curve" smooth="yes"/>
      <point x="142" y="512"/>
      <point x="30" y="436"/>
      <point x="30" y="250" type="curve" smooth="yes"/>
      <point x="30" y="57"/>
      <point x="161" y="-12"/>
      <point x="251" y="-12" type="curve" smooth="yes"/>
      <point x="354" y="-12"/>
      <point x="393" y="52"/>
      <point x="404" y="79" type="curve"/>
      <point x="392" y="-9" type="line" smooth="yes"/>
      <point x="392" y="-11"/>
      <point x="392" y="-12"/>
      <point x="394" y="-12" type="curve" smooth="yes"/>
      <point x="396" y="-12" type="line" smooth="yes"/>
      <point x="399" y="-12"/>
      <point x="403" y="-11"/>
      <point x="404" y="-10" type="curve" smooth="yes"/>
      <point x="439" y="4"/>
      <point x="471" y="18"/>
      <point x="528" y="24" type="curve"/>
      <point x="568" y="1"/>
      <point x="616" y="-11"/>
      <point x="671" y="-11" type="curve" smooth="yes"/>
      <point x="772" y="-11"/>
      <point x="834" y="34"/>
      <point x="871" y="104" type="curve" smooth="yes"/>
      <point x="874" y="110"/>
      <point x="878" y="116"/>
      <point x="878" y="122" type="curve" smooth="yes"/>
      <point x="878" y="125"/>
      <point x="877" y="128"/>
      <point x="873" y="129" type="curve" smooth="yes"/>
      <point x="842" y="148"/>
      <point x="840" y="149"/>
      <point x="834" y="149" type="curve" smooth="yes"/>
      <point x="831" y="149"/>
      <point x="827" y="148"/>
      <point x="825" y="145" type="curve" smooth="yes"/>
      <point x="790" y="94"/>
      <point x="740" y="71"/>
      <point x="698" y="71" type="curve" smooth="yes"/>
      <point x="620" y="71"/>
      <point x="570" y="123"/>
      <point x="548" y="178" type="curve"/>
    </contour>
    <contour>
      <point x="393" y="141" type="line"/>
      <point x="393" y="141"/>
      <point x="371" y="75"/>
      <point x="296" y="75" type="curve" smooth="yes"/>
      <point x="214" y="75"/>
      <point x="158" y="155"/>
      <point x="158" y="283" type="curve" smooth="yes"/>
      <point x="158" y="365"/>
      <point x="184" y="446"/>
      <point x="281" y="446" type="curve" smooth="yes"/>
      <point x="360" y="446"/>
      <point x="385" y="382"/>
      <point x="393" y="341" type="curve"/>
    </contour>
    <contour>
      <point x="536" y="241" type="line"/>
      <point x="528" y="264"/>
      <point x="526" y="297"/>
      <point x="526" y="317" type="curve" smooth="yes"/>
      <point x="526" y="382"/>
      <point x="561" y="432"/>
      <point x="616" y="432" type="curve" smooth="yes"/>
      <point x="662" y="432"/>
      <point x="696" y="385"/>
      <point x="696" y="322" type="curve"/>
    </contour>
  </outline>
</glyph>
<glyph name="ccedilla" format="1">
  <advance width="513"/>
  <unicode hex="00E7"/>
  <outline>
    <contour>
      <point x="472" y="356" type="line" smooth="yes"/>
      <point x="479" y="358"/>
      <point x="483" y="362"/>
      <point x="483" y="369" type="curve" smooth="yes"/>
      <point x="483" y="373" type="line" smooth="yes"/>
      <point x="469" y="436"/>
      <point x="423" y="502"/>
      <point x="301" y="510" type="curve" smooth="yes"/>
      <point x="295" y="511"/>
      <point x="289" y="511"/>
      <point x="283" y="511" type="curve" smooth="yes"/>
      <point x="170" y="511"/>
      <point x="44" y="439"/>
      <point x="30" y="273" type="curve" smooth="yes"/>
      <point x="30" y="266"/>
      <point x="29" y="258"/>
      <point x="29" y="250" type="curve" smooth="yes"/>
      <point x="29" y="131"/>
      <point x="106" y="18"/>
      <point x="223" y="-4" type="curve"/>
      <point x="171" y="-92" type="line" smooth="yes"/>
      <point x="169" y="-95"/>
      <point x="168" y="-98"/>
      <point x="168" y="-100" type="curve" smooth="yes"/>
      <point x="168" y="-105"/>
      <point x="172" y="-109"/>
      <point x="178" y="-109" type="curve" smooth="yes"/>
      <point x="195" y="-109"/>
      <point x="215" y="-103"/>
      <point x="235" y="-103" type="curve" smooth="yes"/>
      <point x="281" y="-103"/>
      <point x="312" y="-119"/>
      <point x="312" y="-153" type="curve" smooth="yes"/>
      <point x="312" y="-177"/>
      <point x="291" y="-185"/>
      <point x="264" y="-185" type="curve" smooth="yes"/>
      <point x="236" y="-185"/>
      <point x="203" y="-177"/>
      <point x="179" y="-169" type="curve" smooth="yes"/>
      <point x="169" y="-166"/>
      <point x="163" y="-169"/>
      <point x="163" y="-178" type="curve" smooth="yes"/>
      <point x="163" y="-198"/>
      <point x="164" y="-227"/>
      <point x="183" y="-235" type="curve" smooth="yes"/>
      <point x="219" y="-250"/>
      <point x="253" y="-256"/>
      <point x="283" y="-256" type="curve" smooth="yes"/>
      <point x="361" y="-256"/>
      <point x="413" y="-212"/>
      <point x="413" y="-153" type="curve" smooth="yes"/>
      <point x="413" y="-82"/>
      <point x="353" y="-52"/>
      <point x="300" y="-52" type="curve" smooth="yes"/>
      <point x="284" y="-52"/>
      <point x="268" y="-55"/>
      <point x="254" y="-60" type="curve"/>
      <point x="298" y="-7" type="line"/>
      <point x="391" y="2"/>
      <point x="447" y="48"/>
      <point x="478" y="114" type="curve" smooth="yes"/>
      <point x="481" y="122"/>
      <point x="479" y="129"/>
      <point x="472" y="134" type="curve" smooth="yes"/>
      <point x="446" y="153" type="line" smooth="yes"/>
      <point x="442" y="155"/>
      <point x="439" y="156"/>
      <point x="436" y="156" type="curve" smooth="yes"/>
      <point x="432" y="156"/>
      <point x="428" y="153"/>
      <point x="425" y="148" type="curve" smooth="yes"/>
      <point x="395" y="104"/>
      <point x="352" y="81"/>
      <point x="313" y="77" type="curve" smooth="yes"/>
      <point x="307" y="76"/>
      <point x="301" y="76"/>
      <point x="295" y="76" type="curve" smooth="yes"/>
      <point x="194" y="76"/>
      <point x="158" y="168"/>
      <point x="158" y="268" type="curve" smooth="yes"/>
      <point x="158" y="280"/>
      <point x="159" y="293"/>
      <point x="160" y="305" type="curve" smooth="yes"/>
      <point x="166" y="374"/>
      <point x="196" y="432"/>
      <point x="260" y="432" type="curve" smooth="yes"/>
      <point x="319" y="432"/>
      <point x="345" y="398"/>
      <point x="341" y="341" type="curve"/>
      <point x="340" y="331" type="line" smooth="yes"/>
      <point x="340" y="326"/>
      <point x="343" y="324"/>
      <point x="348" y="324" type="curve" smooth="yes"/>
      <point x="351" y="324"/>
      <point x="353" y="324"/>
      <point x="357" y="325" type="curve" smooth="yes"/>
    </contour>
  </outline>
</glyph>
<glyph name="egrave" format="1">
  <advance width="515"/>
  <unicode hex="00E8"/>
  <outline>
    <contour>
      <point x="304" y="560" type="line" smooth="yes"/>
      <point x="300" y="558"/>
      <point x="297" y="557"/>
      <point x="294" y="557" type="curve" smooth="yes"/>
      <point x="292" y="557"/>
      <point x="290" y="558"/>
      <point x="287" y="559" type="curve" smooth="yes"/>
      <point x="227" y="579"/>
      <point x="126" y="639"/>
      <point x="126" y="721" type="curve" smooth="yes"/>
      <point x="126" y="756"/>
      <point x="158" y="772"/>
      <point x="196" y="772" type="curve" smooth="yes"/>
      <point x="202" y="772"/>
      <point x="209" y="771"/>
      <point x="215" y="771" type="curve" smooth="yes"/>
      <point x="225" y="769"/>
      <point x="230" y="765"/>
      <point x="233" y="758" type="curve" smooth="yes"/>
      <point x="258" y="692"/>
      <point x="277" y="658"/>
      <point x="340" y="577" type="curve"/>
    </contour>
    <contour>
      <point x="465" y="305" type="line" smooth="yes"/>
      <point x="471" y="308"/>
      <point x="473" y="312"/>
      <point x="473" y="318" type="curve" smooth="yes"/>
      <point x="473" y="393"/>
      <point x="400" y="511"/>
      <point x="267" y="511" type="curve" smooth="yes"/>
      <point x="150" y="511"/>
      <point x="30" y="440"/>
      <point x="30" y="254" type="curve" smooth="yes"/>
      <point x="30" y="109"/>
      <point x="132" y="-12"/>
      <point x="298" y="-12" type="curve" smooth="yes"/>
      <point x="399" y="-12"/>
      <point x="461" y="34"/>
      <point x="498" y="104" type="curve" smooth="yes"/>
      <point x="501" y="110"/>
      <point x="505" y="116"/>
      <point x="505" y="122" type="curve" smooth="yes"/>
      <point x="505" y="125"/>
      <point x="503" y="128"/>
      <point x="500" y="129" type="curve" smooth="yes"/>
      <point x="468" y="148"/>
      <point x="467" y="149"/>
      <point x="461" y="149" type="curve" smooth="yes"/>
      <point x="458" y="149"/>
      <point x="454" y="148"/>
      <point x="452" y="145" type="curve" smooth="yes"/>
      <point x="417" y="94"/>
      <point x="367" y="71"/>
      <point x="325" y="71" type="curve" smooth="yes"/>
      <point x="247" y="71"/>
      <point x="197" y="123"/>
      <point x="175" y="178" type="curve"/>
    </contour>
    <contour>
      <point x="163" y="241" type="line"/>
      <point x="154" y="264"/>
      <point x="153" y="297"/>
      <point x="153" y="317" type="curve" smooth="yes"/>
      <point x="153" y="382"/>
      <point x="188" y="432"/>
      <point x="243" y="432" type="curve" smooth="yes"/>
      <point x="289" y="432"/>
      <point x="323" y="385"/>
      <point x="323" y="322" type="curve"/>
    </contour>
  </outline>
</glyph>
<glyph name="eacute" format="1">
  <advance width="515"/>
  <unicode hex="00E9"/>
  <outline>
    <contour>
      <point x="228" y="560" type="line" smooth="yes"/>
      <point x="231" y="558"/>
      <point x="234" y="557"/>
      <point x="237" y="557" type="curve" smooth="yes"/>
      <point x="239" y="557"/>
      <point x="241" y="558"/>
      <point x="244" y="559" type="curve" smooth="yes"/>
      <point x="304" y="579"/>
      <point x="405" y="639"/>
      <point x="405" y="721" type="curve" smooth="yes"/>
      <point x="405" y="756"/>
      <point x="373" y="772"/>
      <point x="335" y="772" type="curve" smooth="yes"/>
      <point x="329" y="772"/>
      <point x="322" y="771"/>
      <point x="316" y="771" type="curve" smooth="yes"/>
      <point x="306" y="769"/>
      <point x="301" y="765"/>
      <point x="298" y="758" type="curve" smooth="yes"/>
      <point x="273" y="692"/>
      <point x="255" y="658"/>
      <point x="191" y="577" type="curve"/>
    </contour>
    <contour>
      <point x="465" y="305" type="line" smooth="yes"/>
      <point x="471" y="308"/>
      <point x="473" y="312"/>
      <point x="473" y="318" type="curve" smooth="yes"/>
      <point x="473" y="393"/>
      <point x="400" y="511"/>
      <point x="267" y="511" type="curve" smooth="yes"/>
      <point x="150" y="511"/>
      <point x="30" y="440"/>
      <point x="30" y="254" type="curve" smooth="yes"/>
      <point x="30" y="109"/>
      <point x="132" y="-12"/>
      <point x="298" y="-12" type="curve" smooth="yes"/>
      <point x="399" y="-12"/>
      <point x="461" y="34"/>
      <point x="498" y="104" type="curve" smooth="yes"/>
      <point x="501" y="110"/>
      <point x="505" y="116"/>
      <point x="505" y="122" type="curve" smooth="yes"/>
      <point x="505" y="125"/>
      <point x="503" y="128"/>
      <point x="500" y="129" type="curve" smooth="yes"/>
      <point x="468" y="148"/>
      <point x="467" y="149"/>
      <point x="461" y="149" type="curve" smooth="yes"/>
      <point x="458" y="149"/>
      <point x="454" y="148"/>
      <point x="452" y="145" type="curve" smooth="yes"/>
      <point x="417" y="94"/>
      <point x="367" y="71"/>
      <point x="325" y="71" type="curve" smooth="yes"/>
      <point x="247" y="71"/>
      <point x="197" y="123"/>
      <point x="175" y="178" type="curve"/>
    </contour>
    <contour>
      <point x="163" y="241" type="line"/>
      <point x="154" y="264"/>
      <point x="153" y="297"/>
      <point x="153" y="317" type="curve" smooth="yes"/>
      <point x="153" y="382"/>
      <point x="188" y="432"/>
      <point x="243" y="432" type="curve" smooth="yes"/>
      <point x="289" y="432"/>
      <point x="323" y="385"/>
      <point x="323" y="322" type="curve"/>
    </contour>
  </outline>
</glyph>
<glyph name="ecircumflex" format="1">
  <advance width="515"/>
  <unicode hex="00EA"/>
  <outline>
    <contour>
      <point x="266" y="672" type="curve"/>
      <point x="295" y="617"/>
      <point x="346" y="555"/>
      <point x="410" y="555" type="curve" smooth="yes"/>
      <point x="445" y="555"/>
      <point x="461" y="586"/>
      <point x="461" y="625" type="curve" smooth="yes"/>
      <point x="461" y="631"/>
      <point x="461" y="637"/>
      <point x="460" y="644" type="curve" smooth="yes"/>
      <point x="459" y="654"/>
      <point x="454" y="659"/>
      <point x="447" y="661" type="curve" smooth="yes"/>
      <point x="382" y="686"/>
      <point x="348" y="705"/>
      <point x="267" y="768" type="curve"/>
      <point x="185" y="705"/>
      <point x="151" y="686"/>
      <point x="86" y="661" type="curve" smooth="yes"/>
      <point x="79" y="659"/>
      <point x="74" y="654"/>
      <point x="73" y="644" type="curve" smooth="yes"/>
      <point x="72" y="637"/>
      <point x="72" y="631"/>
      <point x="72" y="625" type="curve" smooth="yes"/>
      <point x="72" y="586"/>
      <point x="88" y="555"/>
      <point x="123" y="555" type="curve" smooth="yes"/>
      <point x="187" y="555"/>
      <point x="238" y="617"/>
    </contour>
    <contour>
      <point x="465" y="305" type="line" smooth="yes"/>
      <point x="471" y="308"/>
      <point x="473" y="312"/>
      <point x="473" y="318" type="curve" smooth="yes"/>
      <point x="473" y="393"/>
      <point x="400" y="511"/>
      <point x="267" y="511" type="curve" smooth="yes"/>
      <point x="150" y="511"/>
      <point x="30" y="440"/>
      <point x="30" y="254" type="curve" smooth="yes"/>
      <point x="30" y="109"/>
      <point x="132" y="-12"/>
      <point x="298" y="-12" type="curve" smooth="yes"/>
      <point x="399" y="-12"/>
      <point x="461" y="34"/>
      <point x="498" y="104" type="curve" smooth="yes"/>
      <point x="501" y="110"/>
      <point x="505" y="116"/>
      <point x="505" y="122" type="curve" smooth="yes"/>
      <point x="505" y="125"/>
      <point x="503" y="128"/>
      <point x="500" y="129" type="curve" smooth="yes"/>
      <point x="468" y="148"/>
      <point x="467" y="149"/>
      <point x="461" y="149" type="curve" smooth="yes"/>
      <point x="458" y="149"/>
      <point x="454" y="148"/>
      <point x="452" y="145" type="curve" smooth="yes"/>
      <point x="417" y="94"/>
      <point x="367" y="71"/>
      <point x="325" y="71" type="curve" smooth="yes"/>
      <point x="247" y="71"/>
      <point x="197" y="123"/>
      <point x="175" y="178" type="curve"/>
    </contour>
    <contour>
      <point x="163" y="241" type="line"/>
      <point x="154" y="264"/>
      <point x="153" y="297"/>
      <point x="153" y="317" type="curve" smooth="yes"/>
      <point x="153" y="382"/>
      <point x="188" y="432"/>
      <point x="243" y="432" type="curve" smooth="yes"/>
      <point x="289" y="432"/>
      <point x="323" y="385"/>
      <point x="323" y="322" type="curve"/>
    </contour>
  </outline>
</glyph>
<glyph name="icircumflex" format="1">
  <advance width="349"/>
  <unicode hex="00EE"/>
  <outline>
    <contour>
      <point x="354" y="661" type="curve" smooth="yes"/>
      <point x="288" y="686"/>
      <point x="254" y="705"/>
      <point x="173" y="768" type="curve"/>
      <point x="92" y="705"/>
      <point x="58" y="686"/>
      <point x="-6" y="661" type="curve" smooth="yes"/>
      <point x="-13" y="659"/>
      <point x="-18" y="654"/>
      <point x="-19" y="644" type="curve" smooth="yes"/>
      <point x="-20" y="637"/>
      <point x="-20" y="631"/>
      <point x="-20" y="625" type="curve" smooth="yes"/>
      <point x="-20" y="586"/>
      <point x="-4" y="555"/>
      <point x="30" y="555" type="curve" smooth="yes"/>
      <point x="94" y="555"/>
      <point x="144" y="617"/>
      <point x="173" y="672" type="curve"/>
      <point x="202" y="617"/>
      <point x="253" y="555"/>
      <point x="317" y="555" type="curve" smooth="yes"/>
      <point x="352" y="555"/>
      <point x="368" y="586"/>
      <point x="368" y="625" type="curve" smooth="yes"/>
      <point x="368" y="631"/>
      <point x="367" y="637"/>
      <point x="367" y="644" type="curve" smooth="yes"/>
      <point x="365" y="654"/>
      <point x="361" y="659"/>
    </contour>
    <contour>
      <point x="317" y="60" type="line" smooth="yes"/>
      <point x="268" y="60"/>
      <point x="243" y="100"/>
      <point x="243" y="155" type="curve" smooth="yes"/>
      <point x="243" y="529" type="line" smooth="yes"/>
      <point x="242" y="531"/>
      <point x="242" y="531"/>
      <point x="241" y="531" type="curve" smooth="yes"/>
      <point x="239" y="531" type="line" smooth="yes"/>
      <point x="237" y="531"/>
      <point x="235" y="530"/>
      <point x="234" y="528" type="curve" smooth="yes"/>
      <point x="207" y="500"/>
      <point x="156" y="462"/>
      <point x="50" y="427" type="curve" smooth="yes"/>
      <point x="41" y="424"/>
      <point x="36" y="422"/>
      <point x="36" y="414" type="curve" smooth="yes"/>
      <point x="36" y="380" type="line" smooth="yes"/>
      <point x="36" y="373"/>
      <point x="38" y="368"/>
      <point x="48" y="367" type="curve" smooth="yes"/>
      <point x="103" y="361"/>
      <point x="107" y="305"/>
      <point x="107" y="261" type="curve" smooth="yes"/>
      <point x="107" y="155" type="line" smooth="yes"/>
      <point x="108" y="100"/>
      <point x="83" y="60"/>
      <point x="34" y="60" type="curve" smooth="yes"/>
      <point x="33" y="60" type="line" smooth="yes"/>
      <point x="23" y="60"/>
      <point x="18" y="54"/>
      <point x="18" y="45" type="curve" smooth="yes"/>
      <point x="18" y="15" type="line" smooth="yes"/>
      <point x="18" y="5"/>
      <point x="25" y="9"/>
      <point x="35" y="9" type="curve" smooth="yes"/>
      <point x="317" y="9" type="line" smooth="yes"/>
      <point x="327" y="9"/>
      <point x="334" y="5"/>
      <point x="334" y="15" type="curve" smooth="yes"/>
      <point x="334" y="45" type="line" smooth="yes"/>
      <point x="334" y="54"/>
      <point x="329" y="60"/>
      <point x="319" y="60" type="curve" smooth="yes"/>
    </contour>
  </outline>
</glyph>
<glyph name="eth" format="1">
  <advance width="572"/>
  <unicode hex="00F0"/>
  <outline>
    <contour>
      <point x="337" y="745" type="line" smooth="yes"/>
      <point x="340" y="749"/>
      <point x="342" y="752"/>
      <point x="342" y="755" type="curve" smooth="yes"/>
      <point x="342" y="759"/>
      <point x="339" y="763"/>
      <point x="335" y="766" type="curve" smooth="yes"/>
      <point x="285" y="804" type="line" smooth="yes"/>
      <point x="282" y="806"/>
      <point x="279" y="807"/>
      <point x="276" y="807" type="curve" smooth="yes"/>
      <point x="272" y="807"/>
      <point x="268" y="805"/>
      <point x="264" y="801" type="curve" smooth="yes"/>
      <point x="221" y="750" type="line"/>
      <point x="169" y="773"/>
      <point x="114" y="788"/>
      <point x="57" y="788" type="curve" smooth="yes"/>
      <point x="48" y="788"/>
      <point x="43" y="783"/>
      <point x="43" y="773" type="curve" smooth="yes"/>
      <point x="43" y="717" type="line" smooth="yes"/>
      <point x="43" y="708"/>
      <point x="48" y="703"/>
      <point x="57" y="702" type="curve" smooth="yes"/>
      <point x="92" y="699"/>
      <point x="127" y="691"/>
      <point x="160" y="676" type="curve"/>
      <point x="125" y="636" type="line" smooth="yes"/>
      <point x="123" y="632"/>
      <point x="121" y="629"/>
      <point x="121" y="626" type="curve" smooth="yes"/>
      <point x="121" y="622"/>
      <point x="123" y="618"/>
      <point x="128" y="615" type="curve" smooth="yes"/>
      <point x="177" y="577" type="line" smooth="yes"/>
      <point x="181" y="575"/>
      <point x="184" y="574"/>
      <point x="187" y="574" type="curve" smooth="yes"/>
      <point x="191" y="574"/>
      <point x="195" y="576"/>
      <point x="198" y="580" type="curve" smooth="yes"/>
      <point x="238" y="628" type="line"/>
      <point x="277" y="596"/>
      <point x="311" y="554"/>
      <point x="339" y="503" type="curve"/>
      <point x="321" y="507"/>
      <point x="302" y="510"/>
      <point x="283" y="510" type="curve" smooth="yes"/>
      <point x="263" y="510"/>
      <point x="242" y="507"/>
      <point x="222" y="502" type="curve" smooth="yes"/>
      <point x="106" y="473"/>
      <point x="30" y="367"/>
      <point x="30" y="250" type="curve" smooth="yes"/>
      <point x="30" y="228"/>
      <point x="33" y="207"/>
      <point x="38" y="185" type="curve" smooth="yes"/>
      <point x="68" y="64"/>
      <point x="174" y="-15"/>
      <point x="289" y="-15" type="curve" smooth="yes"/>
      <point x="309" y="-15"/>
      <point x="330" y="-13"/>
      <point x="350" y="-8" type="curve" smooth="yes"/>
      <point x="470" y="21"/>
      <point x="549" y="135"/>
      <point x="542" y="258" type="curve"/>
      <point x="540" y="442"/>
      <point x="442" y="609"/>
      <point x="303" y="704" type="curve"/>
    </contour>
    <contour>
      <point x="307" y="59" type="curve" smooth="yes"/>
      <point x="238" y="59"/>
      <point x="190" y="136"/>
      <point x="170" y="218" type="curve" smooth="yes"/>
      <point x="163" y="244"/>
      <point x="159" y="272"/>
      <point x="159" y="298" type="curve" smooth="yes"/>
      <point x="159" y="361"/>
      <point x="182" y="416"/>
      <point x="240" y="431" type="curve" smooth="yes"/>
      <point x="249" y="433"/>
      <point x="257" y="434"/>
      <point x="265" y="434" type="curve" smooth="yes"/>
      <point x="334" y="434"/>
      <point x="382" y="357"/>
      <point x="402" y="276" type="curve" smooth="yes"/>
      <point x="409" y="249"/>
      <point x="413" y="221"/>
      <point x="413" y="195" type="curve" smooth="yes"/>
      <point x="413" y="132"/>
      <point x="391" y="77"/>
      <point x="332" y="63" type="curve" smooth="yes"/>
      <point x="323" y="60"/>
      <point x="315" y="59"/>
    </contour>
  </outline>
</glyph>
<glyph name="ntilde" format="1">
  <advance width="682"/>
  <unicode hex="00F1"/>
  <outline>
    <contour>
      <point x="294" y="586" type="curve"/>
      <point x="282" y="600"/>
      <point x="278" y="614"/>
      <point x="278" y="629" type="curve" smooth="yes"/>
      <point x="278" y="638"/>
      <point x="283" y="651"/>
      <point x="297" y="651" type="curve" smooth="yes"/>
      <point x="308" y="651"/>
      <point x="315" y="644"/>
      <point x="329" y="624" type="curve" smooth="yes"/>
      <point x="347" y="599"/>
      <point x="370" y="556"/>
      <point x="439" y="556" type="curve" smooth="yes"/>
      <point x="490" y="556"/>
      <point x="537" y="597"/>
      <point x="537" y="662" type="curve" smooth="yes"/>
      <point x="537" y="702"/>
      <point x="505" y="738"/>
      <point x="487" y="738" type="curve" smooth="yes"/>
      <point x="465" y="738"/>
      <point x="442" y="721"/>
      <point x="431" y="708" type="curve"/>
      <point x="442" y="694"/>
      <point x="446" y="680"/>
      <point x="446" y="666" type="curve" smooth="yes"/>
      <point x="446" y="655"/>
      <point x="442" y="643"/>
      <point x="428" y="643" type="curve" smooth="yes"/>
      <point x="417" y="643"/>
      <point x="409" y="650"/>
      <point x="395" y="670" type="curve" smooth="yes"/>
      <point x="378" y="694"/>
      <point x="354" y="738"/>
      <point x="285" y="738" type="curve" smooth="yes"/>
      <point x="235" y="738"/>
      <point x="187" y="697"/>
      <point x="187" y="632" type="curve" smooth="yes"/>
      <point x="187" y="592"/>
      <point x="221" y="556"/>
      <point x="238" y="556" type="curve" smooth="yes"/>
      <point x="260" y="556"/>
      <point x="283" y="573"/>
    </contour>
    <contour>
      <point x="653" y="60" type="line" smooth="yes"/>
      <point x="604" y="60"/>
      <point x="579" y="101"/>
      <point x="579" y="155" type="curve" smooth="yes"/>
      <point x="579" y="320" type="line" smooth="yes"/>
      <point x="579" y="416"/>
      <point x="552" y="513"/>
      <point x="409" y="513" type="curve" smooth="yes"/>
      <point x="318" y="513"/>
      <point x="264" y="443"/>
      <point x="236" y="398" type="curve"/>
      <point x="254" y="530" type="line" smooth="yes"/>
      <point x="254" y="531"/>
      <point x="254" y="531"/>
      <point x="253" y="531" type="curve" smooth="yes"/>
      <point x="250" y="531" type="line" smooth="yes"/>
      <point x="249" y="531"/>
      <point x="247" y="530"/>
      <point x="246" y="529" type="curve" smooth="yes"/>
      <point x="219" y="509"/>
      <point x="143" y="471"/>
      <point x="48" y="456" type="curve" smooth="yes"/>
      <point x="38" y="454"/>
      <point x="34" y="451"/>
      <point x="34" y="442" type="curve" smooth="yes"/>
      <point x="34" y="409" type="line" smooth="yes"/>
      <point x="33" y="402"/>
      <point x="36" y="397"/>
      <point x="45" y="396" type="curve" smooth="yes"/>
      <point x="101" y="390"/>
      <point x="104" y="334"/>
      <point x="104" y="281" type="curve" smooth="yes"/>
      <point x="104" y="155" type="line" smooth="yes"/>
      <point x="104" y="101"/>
      <point x="81" y="60"/>
      <point x="32" y="60" type="curve" smooth="yes"/>
      <point x="30" y="60" type="line" smooth="yes"/>
      <point x="20" y="60"/>
      <point x="15" y="55"/>
      <point x="15" y="45" type="curve" smooth="yes"/>
      <point x="15" y="15" type="line" smooth="yes"/>
      <point x="15" y="5"/>
      <point x="20" y="0"/>
      <point x="30" y="0" type="curve" smooth="yes"/>
      <point x="320" y="0" type="line" smooth="yes"/>
      <point x="330" y="0"/>
      <point x="335" y="5"/>
      <point x="335" y="15" type="curve" smooth="yes"/>
      <point x="335" y="45" type="line" smooth="yes"/>
      <point x="335" y="54"/>
      <point x="330" y="60"/>
      <point x="321" y="60" type="curve" smooth="yes"/>
      <point x="319" y="60" type="line" smooth="yes"/>
      <point x="270" y="60"/>
      <point x="245" y="101"/>
      <point x="245" y="155" type="curve" smooth="yes"/>
      <point x="245" y="339" type="line"/>
      <point x="262" y="381"/>
      <point x="317" y="425"/>
      <point x="367" y="425" type="curve" smooth="yes"/>
      <point x="443" y="425"/>
      <point x="439" y="360"/>
      <point x="439" y="305" type="curve" smooth="yes"/>
      <point x="439" y="155" type="line" smooth="yes"/>
      <point x="440" y="101"/>
      <point x="424" y="60"/>
      <point x="386" y="60" type="curve" smooth="yes"/>
      <point x="376" y="60"/>
      <point x="371" y="55"/>
      <point x="371" y="45" type="curve" smooth="yes"/>
      <point x="371" y="15" type="line" smooth="yes"/>
      <point x="371" y="5"/>
      <point x="376" y="0"/>
      <point x="386" y="0" type="curve" smooth="yes"/>
      <point x="657" y="0" type="line" smooth="yes"/>
      <point x="667" y="0"/>
      <point x="672" y="5"/>
      <point x="672" y="15" type="curve" smooth="yes"/>
      <point x="672" y="45" type="line" smooth="yes"/>
      <point x="672" y="55"/>
      <point x="667" y="60"/>
      <point x="657" y="60" type="curve" smooth="yes"/>
    </contour>
  </outline>
</glyph>
